<?xml version="1.0" encoding="UTF-8" standalone="no"?>
<!DOCTYPE svg PUBLIC "-//W3C//DTD SVG 1.1//EN"
 "http://www.w3.org/Graphics/SVG/1.1/DTD/svg11.dtd">
<!-- Generated by graphviz version 12.2.1 (0)
 -->
<!-- Title: USDC_Sweeper Pages: 1 -->
<svg width="1113pt" height="129pt"
 viewBox="0.00 0.00 1113.03 128.99" xmlns="http://www.w3.org/2000/svg" xmlns:xlink="http://www.w3.org/1999/xlink">
<g id="graph0" class="graph" transform="scale(1 1) rotate(0) translate(4 124.99)">
<title>USDC_Sweeper</title>
<polygon fill="white" stroke="none" points="-4,4 -4,-124.99 1109.03,-124.99 1109.03,4 -4,4"/>
<!-- SourceWallet -->
<g id="node1" class="node">
<title>SourceWallet</title>
<path fill="none" stroke="black" d="M175.89,-108.99C175.89,-108.99 98.39,-108.99 98.39,-108.99 92.39,-108.99 86.39,-102.99 86.39,-96.99 86.39,-96.99 86.39,-81.49 86.39,-81.49 86.39,-75.49 92.39,-69.49 98.39,-69.49 98.39,-69.49 175.89,-69.49 175.89,-69.49 181.89,-69.49 187.89,-75.49 187.89,-81.49 187.89,-81.49 187.89,-96.99 187.89,-96.99 187.89,-102.99 181.89,-108.99 175.89,-108.99"/>
<text text-anchor="middle" x="137.14" y="-91.69" font-family="Arial" font-size="14.00">Source Wallet</text>
<text text-anchor="middle" x="137.14" y="-75.94" font-family="Arial" font-size="14.00">(Holds USDC)</text>
</g>
<!-- Keeper -->
<g id="node2" class="node">
<title>Keeper</title>
<path fill="none" stroke="black" d="M630.78,-80.99C630.78,-80.99 548.78,-80.99 548.78,-80.99 542.78,-80.99 536.78,-74.99 536.78,-68.99 536.78,-68.99 536.78,-53.49 536.78,-53.49 536.78,-47.49 542.78,-41.49 548.78,-41.49 548.78,-41.49 630.78,-41.49 630.78,-41.49 636.78,-41.49 642.78,-47.49 642.78,-53.49 642.78,-53.49 642.78,-68.99 642.78,-68.99 642.78,-74.99 636.78,-80.99 630.78,-80.99"/>
<text text-anchor="middle" x="589.78" y="-63.69" font-family="Arial" font-size="14.00">Keeper</text>
<text text-anchor="middle" x="589.78" y="-47.94" font-family="Arial" font-size="14.00">(Lambda / Bot)</text>
</g>
<!-- SourceWallet&#45;&gt;Keeper -->
<g id="edge1" class="edge">
<title>SourceWallet&#45;&gt;Keeper</title>
<path fill="none" stroke="blue" d="M188.09,-86.14C270.41,-81.02 434.48,-70.83 525.05,-65.2"/>
<polygon fill="blue" stroke="blue" points="525.25,-68.7 535.01,-64.58 524.81,-61.71 525.25,-68.7"/>
<text text-anchor="middle" x="405.53" y="-83.34" font-family="Times,serif" font-size="14.00">USDC.approve(keeper, amount)</text>
</g>
<!-- SafeWallet -->
<g id="node3" class="node">
<title>SafeWallet</title>
<path fill="none" stroke="black" d="M1093.03,-120.99C1093.03,-120.99 994.53,-120.99 994.53,-120.99 988.53,-120.99 982.53,-114.99 982.53,-108.99 982.53,-108.99 982.53,-93.49 982.53,-93.49 982.53,-87.49 988.53,-81.49 994.53,-81.49 994.53,-81.49 1093.03,-81.49 1093.03,-81.49 1099.03,-81.49 1105.03,-87.49 1105.03,-93.49 1105.03,-93.49 1105.03,-108.99 1105.03,-108.99 1105.03,-114.99 1099.03,-120.99 1093.03,-120.99"/>
<text text-anchor="middle" x="1043.78" y="-103.69" font-family="Arial" font-size="14.00">Safe Wallet</text>
<text text-anchor="middle" x="1043.78" y="-87.94" font-family="Arial" font-size="14.00">(Receives USDC)</text>
</g>
<!-- Keeper&#45;&gt;SafeWallet -->
<g id="edge3" class="edge">
<title>Keeper&#45;&gt;SafeWallet</title>
<path fill="none" stroke="red" d="M642.94,-74.99C648.93,-76.24 654.96,-77.37 660.78,-78.24 767.95,-94.35 893.65,-99.27 970.74,-100.72"/>
<polygon fill="red" stroke="red" points="970.65,-104.22 980.71,-100.89 970.77,-97.22 970.65,-104.22"/>
<text text-anchor="middle" x="812.65" y="-104.54" font-family="Times,serif" font-size="14.00">USDC.transferFrom(source, safe, balance)</text>
</g>
<!-- RPC -->
<g id="node4" class="node">
<title>RPC</title>
<path fill="none" stroke="black" d="M1082.53,-51.99C1082.53,-51.99 1005.03,-51.99 1005.03,-51.99 999.03,-51.99 993.03,-45.99 993.03,-39.99 993.03,-39.99 993.03,-24.49 993.03,-24.49 993.03,-18.49 999.03,-12.49 1005.03,-12.49 1005.03,-12.49 1082.53,-12.49 1082.53,-12.49 1088.53,-12.49 1094.53,-18.49 1094.53,-24.49 1094.53,-24.49 1094.53,-39.99 1094.53,-39.99 1094.53,-45.99 1088.53,-51.99 1082.53,-51.99"/>
<text text-anchor="middle" x="1043.78" y="-34.69" font-family="Arial" font-size="14.00">RPC Endpoint</text>
<text text-anchor="middle" x="1043.78" y="-18.94" font-family="Arial" font-size="14.00">(Blockchain)</text>
</g>
<!-- Keeper&#45;&gt;RPC -->
<g id="edge2" class="edge">
<title>Keeper&#45;&gt;RPC</title>
<path fill="none" stroke="green" d="M643.11,-58.67C715.43,-54.99 849.95,-47.74 964.53,-39.24 970.08,-38.83 975.85,-38.37 981.63,-37.89"/>
<polygon fill="green" stroke="green" points="981.53,-41.41 991.19,-37.08 980.93,-34.44 981.53,-41.41"/>
<text text-anchor="middle" x="812.65" y="-61.38" font-family="Times,serif" font-size="14.00">Check balance / Listen to Transfer events</text>
</g>
<!-- Keeper&#45;&gt;RPC -->
<g id="edge4" class="edge">
<title>Keeper&#45;&gt;RPC</title>
<path fill="none" stroke="black" stroke-dasharray="5,2" d="M615.73,-41.1C628.42,-32.15 644.56,-22.6 660.78,-17.99 770.61,13.2 905.34,-3.97 981.9,-18.58"/>
<polygon fill="black" stroke="black" points="980.79,-21.93 991.28,-20.42 982.14,-15.06 980.79,-21.93"/>
<text text-anchor="middle" x="812.65" y="-21.94" font-family="Times,serif" font-size="14.00">Send transaction (gas paid by keeper)</text>
</g>
<!-- Event -->
<g id="node5" class="node">
<title>Event</title>
<path fill="none" stroke="black" d="M125.24,-49.68C125.24,-49.68 11.9,-34.8 11.9,-34.8 5.95,-34.02 5.95,-32.46 11.9,-31.68 11.9,-31.68 125.24,-16.8 125.24,-16.8 131.19,-16.02 143.09,-16.02 149.04,-16.8 149.04,-16.8 262.38,-31.68 262.38,-31.68 268.33,-32.46 268.33,-34.02 262.38,-34.8 262.38,-34.8 149.04,-49.68 149.04,-49.68 143.09,-50.46 131.19,-50.46 125.24,-49.68"/>
<text text-anchor="middle" x="137.14" y="-27.82" font-family="Arial" font-size="14.00">Cron or Event Trigger</text>
</g>
<!-- Event&#45;&gt;Keeper -->
<g id="edge5" class="edge">
<title>Event&#45;&gt;Keeper</title>
<path fill="none" stroke="black" stroke-dasharray="1,5" d="M260.34,-30.91C335.23,-31 432.89,-33.81 518.78,-44.99 520.96,-45.28 523.17,-45.6 525.4,-45.95"/>
<polygon fill="black" stroke="black" points="524.67,-49.38 535.13,-47.68 525.89,-42.49 524.67,-49.38"/>
<text text-anchor="middle" x="405.53" y="-48.94" font-family="Times,serif" font-size="14.00">Run keeper</text>
</g>
</g>
</svg>
