<?xml version="1.0" encoding="UTF-8" standalone="no"?>
<!DOCTYPE svg PUBLIC "-//W3C//DTD SVG 1.1//EN"
 "http://www.w3.org/Graphics/SVG/1.1/DTD/svg11.dtd">
<!-- Generated by graphviz version 12.2.1 (0)
 -->
<!-- Title: USDC_Sweeper Pages: 1 -->
<svg width="1308pt" height="333pt"
 viewBox="0.00 0.00 1307.90 332.90" xmlns="http://www.w3.org/2000/svg" xmlns:xlink="http://www.w3.org/1999/xlink">
<g id="graph0" class="graph" transform="scale(1 1) rotate(0) translate(4 328.9)">
<title>USDC_Sweeper</title>
<polygon fill="#f8fafc" stroke="none" points="-4,4 -4,-328.9 1303.9,-328.9 1303.9,4 -4,4"/>
<!-- SourceWallet -->
<g id="node1" class="node">
<title>SourceWallet</title>
<path fill="#6366f1" stroke="#312e81" stroke-width="2.5" d="M246.9,-321.9C246.9,-321.9 127.8,-321.9 127.8,-321.9 121.8,-321.9 115.8,-315.9 115.8,-309.9 115.8,-309.9 115.8,-244.8 115.8,-244.8 115.8,-238.8 121.8,-232.8 127.8,-232.8 127.8,-232.8 246.9,-232.8 246.9,-232.8 252.9,-232.8 258.9,-238.8 258.9,-244.8 258.9,-244.8 258.9,-309.9 258.9,-309.9 258.9,-315.9 252.9,-321.9 246.9,-321.9"/>
<text text-anchor="middle" x="187.35" y="-279.8" font-family="Arial" font-size="14.00" fill="white">Source Wallet</text>
<text text-anchor="middle" x="187.35" y="-264.05" font-family="Arial" font-size="14.00" fill="white">(Holds USDC)</text>
</g>
<!-- Keeper -->
<g id="node2" class="node">
<title>Keeper</title>
<path fill="#10b981" stroke="#047857" stroke-width="2.5" d="M789.3,-219.9C789.3,-219.9 665.7,-219.9 665.7,-219.9 659.7,-219.9 653.7,-213.9 653.7,-207.9 653.7,-207.9 653.7,-142.8 653.7,-142.8 653.7,-136.8 659.7,-130.8 665.7,-130.8 665.7,-130.8 789.3,-130.8 789.3,-130.8 795.3,-130.8 801.3,-136.8 801.3,-142.8 801.3,-142.8 801.3,-207.9 801.3,-207.9 801.3,-213.9 795.3,-219.9 789.3,-219.9"/>
<text text-anchor="middle" x="727.5" y="-177.8" font-family="Arial" font-size="14.00" fill="white">Keeper</text>
<text text-anchor="middle" x="727.5" y="-162.05" font-family="Arial" font-size="14.00" fill="white">(Lambda / Bot)</text>
</g>
<!-- SourceWallet&#45;&gt;Keeper -->
<g id="edge1" class="edge">
<title>SourceWallet&#45;&gt;Keeper</title>
<path fill="none" stroke="#3b82f6" stroke-width="2.5" d="M259.81,-263.81C357.27,-245.33 531.81,-212.25 637.61,-192.2"/>
<polygon fill="#3b82f6" stroke="#3b82f6" stroke-width="2.5" points="638.29,-196.34 649.3,-189.98 636.73,-188.09 638.29,-196.34"/>
<text text-anchor="middle" x="514.2" y="-232.26" font-family="Arial" font-size="12.00" fill="#1e40af">USDC.approve(keeper, amount)</text>
</g>
<!-- SafeWallet -->
<g id="node3" class="node">
<title>SafeWallet</title>
<path fill="#059669" stroke="#065f46" stroke-width="2.5" d="M1287.9,-324.9C1287.9,-324.9 1147.8,-324.9 1147.8,-324.9 1141.8,-324.9 1135.8,-318.9 1135.8,-312.9 1135.8,-312.9 1135.8,-247.8 1135.8,-247.8 1135.8,-241.8 1141.8,-235.8 1147.8,-235.8 1147.8,-235.8 1287.9,-235.8 1287.9,-235.8 1293.9,-235.8 1299.9,-241.8 1299.9,-247.8 1299.9,-247.8 1299.9,-312.9 1299.9,-312.9 1299.9,-318.9 1293.9,-324.9 1287.9,-324.9"/>
<text text-anchor="middle" x="1217.85" y="-282.8" font-family="Arial" font-size="14.00" fill="white">Safe Wallet</text>
<text text-anchor="middle" x="1217.85" y="-267.05" font-family="Arial" font-size="14.00" fill="white">(Receives USDC)</text>
</g>
<!-- Keeper&#45;&gt;SafeWallet -->
<g id="edge3" class="edge">
<title>Keeper&#45;&gt;SafeWallet</title>
<path fill="none" stroke="#ef4444" stroke-width="2.5" d="M802.14,-191.18C886.82,-209.39 1026.16,-239.35 1119.68,-259.46"/>
<polygon fill="#ef4444" stroke="#ef4444" stroke-width="2.5" points="1118.54,-263.51 1131.15,-261.92 1120.3,-255.3 1118.54,-263.51"/>
<text text-anchor="middle" x="968.55" y="-252.17" font-family="Arial" font-size="12.00" fill="#991b1b">USDC.transferFrom(source, safe, balance)</text>
</g>
<!-- RPC -->
<g id="node4" class="node">
<title>RPC</title>
<path fill="#7c3aed" stroke="#5b21b6" stroke-width="2.5" d="M1277.4,-132.9C1277.4,-132.9 1158.3,-132.9 1158.3,-132.9 1152.3,-132.9 1146.3,-126.9 1146.3,-120.9 1146.3,-120.9 1146.3,-55.8 1146.3,-55.8 1146.3,-49.8 1152.3,-43.8 1158.3,-43.8 1158.3,-43.8 1277.4,-43.8 1277.4,-43.8 1283.4,-43.8 1289.4,-49.8 1289.4,-55.8 1289.4,-55.8 1289.4,-120.9 1289.4,-120.9 1289.4,-126.9 1283.4,-132.9 1277.4,-132.9"/>
<text text-anchor="middle" x="1217.85" y="-90.8" font-family="Arial" font-size="14.00" fill="white">RPC Endpoint</text>
<text text-anchor="middle" x="1217.85" y="-75.05" font-family="Arial" font-size="14.00" fill="white">(Blockchain)</text>
</g>
<!-- Keeper&#45;&gt;RPC -->
<g id="edge2" class="edge">
<title>Keeper&#45;&gt;RPC</title>
<path fill="none" stroke="#10b981" stroke-width="2.5" d="M802.14,-162.23C890.01,-146.58 1036.74,-120.44 1130.05,-103.81"/>
<polygon fill="#10b981" stroke="#10b981" stroke-width="2.5" points="1130.59,-107.98 1141.67,-101.74 1129.12,-99.71 1130.59,-107.98"/>
<text text-anchor="middle" x="968.55" y="-154.87" font-family="Arial" font-size="12.00" fill="#065f46">Check balance / Listen to Transfer events</text>
</g>
<!-- Keeper&#45;&gt;RPC -->
<g id="edge4" class="edge">
<title>Keeper&#45;&gt;RPC</title>
<path fill="none" stroke="#6b7280" stroke-width="2.5" stroke-dasharray="5,2" d="M773.24,-129.91C795.78,-110.23 824.78,-89.37 855.3,-79.1 945.3,-48.81 1055.15,-57.54 1129.99,-69.75"/>
<polygon fill="#6b7280" stroke="#6b7280" stroke-width="2.5" points="1129.14,-73.87 1141.67,-71.76 1130.56,-65.59 1129.14,-73.87"/>
<text text-anchor="middle" x="968.55" y="-81.95" font-family="Arial" font-size="12.00" fill="#374151">Send transaction (gas paid by keeper)</text>
</g>
<!-- Event -->
<g id="node5" class="node">
<title>Event</title>
<path fill="#f59e0b" stroke="#92400e" stroke-width="2.5" d="M176.18,-142.33C176.18,-142.33 11.17,-77.72 11.17,-77.72 5.59,-75.54 5.59,-71.16 11.17,-68.98 11.17,-68.98 176.18,-4.37 176.18,-4.37 181.76,-2.19 192.94,-2.19 198.52,-4.37 198.52,-4.37 363.53,-68.98 363.53,-68.98 369.11,-71.16 369.11,-75.54 363.53,-77.72 363.53,-77.72 198.52,-142.33 198.52,-142.33 192.94,-144.51 181.76,-144.51 176.18,-142.33"/>
<text text-anchor="middle" x="187.35" y="-67.92" font-family="Arial" font-size="14.00" fill="white">Cron or Event Trigger</text>
</g>
<!-- Event&#45;&gt;Keeper -->
<g id="edge5" class="edge">
<title>Event&#45;&gt;Keeper</title>
<path fill="none" stroke="#f59e0b" stroke-width="2.5" stroke-dasharray="1,5" d="M315.54,-97.46C414.64,-116.24 549.69,-141.84 637.48,-158.48"/>
<polygon fill="#f59e0b" stroke="#f59e0b" stroke-width="2.5" points="636.48,-162.56 649.05,-160.67 638.04,-154.31 636.48,-162.56"/>
<text text-anchor="middle" x="514.2" y="-153.55" font-family="Arial" font-size="12.00" fill="#92400e">Run keeper</text>
</g>
</g>
</svg>
