<svg width="909" height="907" viewBox="0 0 909 907" fill="none" xmlns="http://www.w3.org/2000/svg">
<g clip-path="url(#clip0_396_2369)">
<circle opacity="0.25" cx="454.5" cy="453.5" r="302.5" stroke="white" stroke-opacity="0.4" stroke-width="3.41667"/>
<circle opacity="0.25" cx="453.5" cy="451.499" r="163.5" stroke="white" stroke-opacity="0.4" stroke-width="3.41667"/>
<g opacity="0.8">
<path d="M681.356 105.679L695.836 103.294L693.452 88.8138" stroke="#7853FF" stroke-width="2.37192" stroke-linecap="round" stroke-linejoin="round"/>
</g>
<g opacity="0.8">
<path d="M780.072 705.704L783.221 720.038L797.555 716.889" stroke="#7853FF" stroke-width="2.37192" stroke-linecap="round" stroke-linejoin="round"/>
</g>
<g opacity="0.8">
<path d="M567.703 848.666L558.88 860.393L570.607 869.216" stroke="#7853FF" stroke-width="2.37192" stroke-linecap="round" stroke-linejoin="round"/>
</g>
<path d="M630.776 50.0507L631.515 38.0978L632.623 38.5976L631.859 49.2052L639.347 41.6296L640.427 42.1163L631.943 50.5768L630.776 50.0507Z" fill="#757185"/>
<path d="M639.714 54.3969C639.127 54.1158 638.687 53.7749 638.394 53.3744C638.111 52.9784 637.954 52.566 637.923 52.1371C637.901 51.7129 637.987 51.2987 638.181 50.8947C638.42 50.3945 638.748 50.0311 639.164 49.8046C639.59 49.5827 640.075 49.4958 640.62 49.5439C641.164 49.5919 641.745 49.7634 642.36 50.0584L644.323 50.9985C644.548 50.5272 644.668 50.0934 644.68 49.6972C644.692 49.301 644.598 48.9543 644.398 48.6571C644.202 48.3503 643.892 48.0955 643.469 47.8928C642.978 47.6577 642.495 47.58 642.019 47.6596C641.543 47.7392 641.147 47.9987 640.83 48.4382L639.777 47.9336C640.079 47.4514 640.457 47.1063 640.911 46.8982C641.375 46.6948 641.865 46.6102 642.381 46.6444C642.902 46.669 643.402 46.7965 643.883 47.027C644.557 47.3496 645.043 47.7421 645.342 48.2046C645.645 48.6575 645.797 49.1559 645.796 49.6998C645.796 50.2437 645.658 50.8043 645.381 51.3814L643.231 55.869L642.308 55.4266L642.886 54.0714C642.703 54.232 642.49 54.3668 642.249 54.4758C642.017 54.5894 641.768 54.6652 641.501 54.7031C641.244 54.7456 640.967 54.7431 640.671 54.6957C640.37 54.6578 640.051 54.5582 639.714 54.3969ZM640.251 53.572C640.607 53.7425 640.959 53.8225 641.307 53.8118C641.669 53.7962 642.009 53.7165 642.326 53.5728C642.644 53.4291 642.927 53.2334 643.175 52.9859C643.429 52.7288 643.634 52.4367 643.79 52.1096L643.915 51.8499L642.024 50.9443C641.515 50.7 641.076 50.5667 640.708 50.5443C640.34 50.5219 640.038 50.5842 639.802 50.7313C639.566 50.8785 639.381 51.0915 639.248 51.3705C639.114 51.6494 639.059 51.9247 639.083 52.1962C639.111 52.4582 639.22 52.7116 639.411 52.9564C639.615 53.1963 639.895 53.4015 640.251 53.572Z" fill="#757185"/>
<path d="M645.615 57.0524L650.752 46.7412L651.754 47.2406L646.617 57.5518L645.615 57.0524Z" fill="#757185"/>
<path d="M648.713 58.6045L652.365 51.4146L653.349 51.9145L649.698 59.1044L648.713 58.6045ZM653.726 49.9706C653.527 49.8691 653.389 49.7156 653.314 49.51C653.244 49.2949 653.262 49.0827 653.368 48.8735C653.479 48.6548 653.633 48.5174 653.829 48.4614C654.039 48.4007 654.244 48.421 654.444 48.5225C654.643 48.6239 654.781 48.7774 654.856 48.983C654.936 49.1791 654.92 49.3865 654.809 49.6052C654.703 49.8145 654.542 49.9542 654.327 50.0244C654.126 50.0899 653.926 50.072 653.726 49.9706Z" fill="#757185"/>
<path d="M654.771 61.9485C654.082 61.5853 653.563 61.1064 653.213 60.512C652.878 59.9131 652.718 59.2559 652.733 58.5405C652.749 57.8252 652.946 57.1089 653.324 56.3919C653.702 55.6748 654.179 55.1126 654.756 54.7052C655.338 54.2884 655.972 54.0565 656.661 54.0094C657.349 53.9622 658.037 54.1203 658.726 54.4836C659.33 54.802 659.788 55.2128 660.102 55.7158C660.43 56.2144 660.592 56.7642 660.589 57.3653L662.895 52.9922L663.886 53.5147L658.512 63.7044L657.606 63.2267L658.2 61.8941C657.92 62.0598 657.597 62.1911 657.233 62.2882C656.877 62.3902 656.488 62.42 656.064 62.3774C655.655 62.3303 655.224 62.1874 654.771 61.9485ZM655.311 61.13C655.811 61.3938 656.307 61.5047 656.8 61.4629C657.301 61.4261 657.77 61.2454 658.207 60.9209C658.653 60.6013 659.028 60.1538 659.331 59.5782C659.635 59.0027 659.792 58.4407 659.804 57.8923C659.826 57.3488 659.71 56.8596 659.457 56.4247C659.213 55.9947 658.841 55.6479 658.341 55.3842C657.851 55.1254 657.354 55.0145 656.853 55.0513C656.351 55.0881 655.877 55.2663 655.431 55.5859C655 55.901 654.63 56.351 654.321 56.936C654.013 57.5209 653.852 58.0877 653.84 58.6361C653.834 59.1751 653.957 59.6621 654.21 60.097C654.463 60.5319 654.83 60.8763 655.311 61.13Z" fill="#757185"/>
<path d="M662.935 66.3635C662.367 66.0467 661.949 65.6794 661.681 65.2615C661.422 64.8488 661.291 64.4275 661.286 63.9975C661.291 63.5728 661.402 63.1647 661.62 62.7734C661.89 62.2889 662.24 61.9464 662.669 61.746C663.108 61.5508 663.597 61.4939 664.138 61.5755C664.679 61.657 665.247 61.8639 665.844 62.1962L667.744 63.2555C667.999 62.799 668.144 62.3734 668.181 61.9787C668.218 61.584 668.145 61.2322 667.963 60.9232C667.787 60.6049 667.493 60.3315 667.083 60.103C666.608 59.8382 666.131 59.7309 665.651 59.781C665.171 59.8311 664.76 60.0657 664.416 60.4849L663.396 59.9163C663.727 59.4536 664.126 59.1325 664.592 58.9528C665.068 58.7784 665.562 58.7241 666.075 58.7901C666.593 58.8467 667.085 59.0048 667.551 59.2645C668.203 59.6279 668.664 60.0497 668.934 60.5298C669.209 61.0005 669.329 61.5073 669.295 62.0501C669.261 62.5929 669.089 63.1439 668.777 63.7029L666.355 68.0495L665.46 67.551L666.121 66.2341C665.928 66.383 665.708 66.5044 665.46 66.5984C665.222 66.6975 664.968 66.7578 664.7 66.7792C664.441 66.8058 664.165 66.7862 663.872 66.7206C663.573 66.6642 663.261 66.5452 662.935 66.3635ZM663.522 65.5732C663.867 65.7654 664.213 65.8668 664.561 65.8777C664.924 65.8844 665.268 65.8258 665.593 65.7019C665.919 65.578 666.213 65.4002 666.477 65.1684C666.745 64.9274 666.968 64.6485 667.145 64.3317L667.285 64.0801L665.454 63.0598C664.96 62.7846 664.53 62.6244 664.165 62.5794C663.799 62.5344 663.494 62.578 663.249 62.7103C663.004 62.8426 662.807 63.0438 662.656 63.314C662.506 63.5842 662.434 63.8556 662.441 64.1281C662.453 64.3912 662.546 64.6509 662.721 64.907C662.91 65.159 663.177 65.3811 663.522 65.5732Z" fill="#757185"/>
<path d="M671.329 70.9289C670.933 70.6979 670.627 70.4393 670.411 70.153C670.201 69.8575 670.1 69.5212 670.11 69.1442C670.135 68.7634 670.294 68.3195 670.59 67.8127L672.999 63.6793L671.782 62.9704L672.266 62.141L673.482 62.8499L674.563 61.3131L675.392 61.7965L674.442 63.4277L676.529 64.6442L676.054 65.4598L673.966 64.2433L671.558 68.3766C671.289 68.8374 671.199 69.2044 671.286 69.4777C671.379 69.7418 671.661 70.0108 672.131 70.2847L672.85 70.7037L672.366 71.5331L671.329 70.9289Z" fill="#757185"/>
<path d="M677.622 74.9119C676.984 74.5236 676.51 74.0294 676.201 73.4292C675.902 72.8346 675.774 72.1825 675.819 71.473C675.878 70.7599 676.13 70.0389 676.574 69.3101C677.018 68.5812 677.54 68.0312 678.14 67.66C678.741 67.2889 679.376 67.1073 680.045 67.1153C680.73 67.1197 681.395 67.3188 682.042 67.7127C682.707 68.1176 683.176 68.609 683.448 69.187C683.73 69.7706 683.842 70.3759 683.785 71.003C683.737 71.6357 683.538 72.239 683.189 72.813C683.134 72.9041 683.075 72.9998 683.014 73.1C682.959 73.1911 682.888 73.2976 682.801 73.4197L677.157 69.9834L677.648 69.1771L682.376 72.0559C682.785 71.3432 682.896 70.668 682.71 70.0302C682.533 69.3979 682.13 68.8904 681.502 68.5077C681.092 68.2581 680.651 68.1208 680.179 68.0958C679.722 68.0672 679.273 68.1686 678.833 68.3999C678.407 68.6277 678.027 69.0149 677.694 69.5615L677.478 69.9168C677.101 70.5364 676.897 71.1177 676.866 71.6608C676.835 72.204 676.936 72.6839 677.169 73.1007C677.412 73.523 677.729 73.8534 678.121 74.0919C678.64 74.4081 679.138 74.5549 679.613 74.5324C680.095 74.5007 680.533 74.3243 680.928 74.003L681.871 74.5771C681.509 74.9059 681.096 75.1539 680.632 75.321C680.177 75.4937 679.694 75.5491 679.182 75.4873C678.67 75.4254 678.15 75.2336 677.622 74.9119Z" fill="#757185"/>
<rect x="673.35" y="811" width="98" height="44" rx="22" fill="url(#paint0_radial_396_2369)"/>
<path d="M684.598 838V826.8H688.358C689.147 826.8 689.798 826.928 690.31 827.184C690.822 827.44 691.201 827.781 691.446 828.208C691.702 828.635 691.83 829.109 691.83 829.632C691.83 830.208 691.702 830.688 691.446 831.072C691.201 831.456 690.875 831.749 690.47 831.952C690.075 832.155 689.659 832.283 689.222 832.336L689.43 832.176C689.899 832.187 690.337 832.315 690.742 832.56C691.147 832.805 691.473 833.136 691.718 833.552C691.963 833.957 692.086 834.421 692.086 834.944C692.086 835.499 691.947 836.011 691.67 836.48C691.403 836.939 691.003 837.307 690.47 837.584C689.937 837.861 689.27 838 688.47 838H684.598ZM685.718 837.056H688.39C689.201 837.056 689.825 836.864 690.262 836.48C690.71 836.096 690.934 835.568 690.934 834.896C690.934 834.224 690.699 833.691 690.23 833.296C689.771 832.891 689.142 832.688 688.342 832.688H685.718V837.056ZM685.718 831.76H688.326C689.083 831.76 689.665 831.579 690.07 831.216C690.475 830.853 690.678 830.363 690.678 829.744C690.678 829.147 690.481 828.667 690.086 828.304C689.691 827.931 689.089 827.744 688.278 827.744H685.718V831.76ZM694.017 838V826.48H695.137V838H694.017ZM700.96 838.192C700.224 838.192 699.557 838.021 698.96 837.68C698.373 837.328 697.909 836.837 697.568 836.208C697.227 835.568 697.056 834.827 697.056 833.984C697.056 833.109 697.227 832.357 697.568 831.728C697.92 831.099 698.395 830.613 698.992 830.272C699.589 829.92 700.256 829.744 700.992 829.744C701.76 829.744 702.437 829.92 703.024 830.272C703.611 830.613 704.075 831.099 704.416 831.728C704.757 832.357 704.928 833.109 704.928 833.984C704.928 834.827 704.752 835.568 704.4 836.208C704.059 836.837 703.589 837.328 702.992 837.68C702.405 838.021 701.728 838.192 700.96 838.192ZM700.976 837.232C701.477 837.232 701.936 837.109 702.352 836.864C702.779 836.619 703.12 836.256 703.376 835.776C703.643 835.285 703.776 834.683 703.776 833.968C703.776 833.243 703.648 832.64 703.392 832.16C703.136 831.68 702.795 831.323 702.368 831.088C701.952 830.843 701.493 830.72 700.992 830.72C700.512 830.72 700.059 830.843 699.632 831.088C699.205 831.333 698.859 831.696 698.592 832.176C698.336 832.645 698.208 833.243 698.208 833.968C698.208 834.683 698.336 835.285 698.592 835.776C698.848 836.256 699.184 836.619 699.6 836.864C700.027 837.109 700.485 837.232 700.976 837.232ZM710.397 838.192C709.651 838.192 708.984 838.016 708.397 837.664C707.811 837.312 707.347 836.821 707.005 836.192C706.664 835.552 706.493 834.816 706.493 833.984C706.493 833.12 706.664 832.379 707.005 831.76C707.347 831.131 707.811 830.64 708.397 830.288C708.995 829.925 709.661 829.744 710.397 829.744C711.336 829.744 712.115 829.989 712.733 830.48C713.363 830.96 713.763 831.6 713.933 832.4H712.813C712.696 831.867 712.413 831.456 711.965 831.168C711.528 830.869 711 830.72 710.381 830.72C709.901 830.72 709.453 830.843 709.037 831.088C708.621 831.323 708.285 831.68 708.029 832.16C707.773 832.64 707.645 833.248 707.645 833.984C707.645 834.528 707.72 835.003 707.869 835.408C708.019 835.813 708.221 836.155 708.477 836.432C708.733 836.699 709.027 836.901 709.357 837.04C709.688 837.179 710.029 837.248 710.381 837.248C710.787 837.248 711.155 837.184 711.485 837.056C711.827 836.917 712.115 836.72 712.349 836.464C712.584 836.208 712.739 835.899 712.813 835.536H713.933C713.773 836.315 713.379 836.955 712.749 837.456C712.12 837.947 711.336 838.192 710.397 838.192ZM720.741 838L716.789 833.584L720.405 829.936H721.797L717.781 833.952L717.797 833.2L722.181 838H720.741ZM715.861 838V826.48H716.981V838H715.861ZM726.632 838.192C725.885 838.192 725.219 838.016 724.632 837.664C724.045 837.312 723.581 836.821 723.24 836.192C722.899 835.552 722.728 834.816 722.728 833.984C722.728 833.12 722.899 832.379 723.24 831.76C723.581 831.131 724.045 830.64 724.632 830.288C725.229 829.925 725.896 829.744 726.632 829.744C727.571 829.744 728.349 829.989 728.968 830.48C729.597 830.96 729.997 831.6 730.168 832.4H729.048C728.931 831.867 728.648 831.456 728.2 831.168C727.763 830.869 727.235 830.72 726.616 830.72C726.136 830.72 725.688 830.843 725.272 831.088C724.856 831.323 724.52 831.68 724.264 832.16C724.008 832.64 723.88 833.248 723.88 833.984C723.88 834.528 723.955 835.003 724.104 835.408C724.253 835.813 724.456 836.155 724.712 836.432C724.968 836.699 725.261 836.901 725.592 837.04C725.923 837.179 726.264 837.248 726.616 837.248C727.021 837.248 727.389 837.184 727.72 837.056C728.061 836.917 728.349 836.72 728.584 836.464C728.819 836.208 728.973 835.899 729.048 835.536H730.168C730.008 836.315 729.613 836.955 728.984 837.456C728.355 837.947 727.571 838.192 726.632 838.192ZM732.095 838V826.48H733.215V831.376C733.493 830.864 733.877 830.464 734.367 830.176C734.858 829.888 735.397 829.744 735.983 829.744C736.591 829.744 737.119 829.867 737.567 830.112C738.026 830.357 738.378 830.731 738.623 831.232C738.879 831.733 739.007 832.373 739.007 833.152V838H737.903V833.28C737.903 832.416 737.722 831.776 737.359 831.36C737.007 830.933 736.485 830.72 735.791 830.72C735.311 830.72 734.874 830.837 734.479 831.072C734.095 831.307 733.786 831.648 733.551 832.096C733.327 832.533 733.215 833.077 733.215 833.728V838H732.095ZM743.703 838.192C743.052 838.192 742.508 838.075 742.071 837.84C741.644 837.605 741.324 837.301 741.111 836.928C740.908 836.555 740.807 836.144 740.807 835.696C740.807 835.141 740.945 834.672 741.223 834.288C741.511 833.904 741.911 833.616 742.423 833.424C742.935 833.232 743.532 833.136 744.215 833.136H746.391C746.391 832.613 746.311 832.171 746.151 831.808C745.991 831.445 745.756 831.173 745.447 830.992C745.137 830.8 744.748 830.704 744.279 830.704C743.735 830.704 743.265 830.843 742.871 831.12C742.476 831.397 742.231 831.803 742.135 832.336H740.967C741.031 831.771 741.223 831.296 741.543 830.912C741.873 830.528 742.279 830.24 742.759 830.048C743.239 829.845 743.745 829.744 744.279 829.744C745.025 829.744 745.633 829.888 746.103 830.176C746.572 830.453 746.924 830.837 747.159 831.328C747.393 831.819 747.511 832.384 747.511 833.024V838H746.487L746.423 836.528C746.327 836.752 746.193 836.965 746.023 837.168C745.863 837.371 745.671 837.547 745.447 837.696C745.233 837.845 744.983 837.963 744.695 838.048C744.407 838.144 744.076 838.192 743.703 838.192ZM743.831 837.216C744.225 837.216 744.577 837.136 744.887 836.976C745.207 836.805 745.479 836.587 745.703 836.32C745.927 836.053 746.097 835.755 746.215 835.424C746.332 835.083 746.391 834.731 746.391 834.368V834.08H744.295C743.729 834.08 743.276 834.149 742.935 834.288C742.593 834.427 742.348 834.613 742.199 834.848C742.049 835.083 741.975 835.355 741.975 835.664C741.975 835.973 742.044 836.245 742.183 836.48C742.321 836.704 742.529 836.885 742.807 837.024C743.095 837.152 743.436 837.216 743.831 837.216ZM749.787 838V829.936H750.891V838H749.787ZM750.347 828.032C750.123 828.032 749.931 827.957 749.771 827.808C749.611 827.648 749.531 827.451 749.531 827.216C749.531 826.971 749.605 826.779 749.755 826.64C749.915 826.491 750.107 826.416 750.331 826.416C750.555 826.416 750.747 826.491 750.907 826.64C751.067 826.779 751.147 826.971 751.147 827.216C751.147 827.451 751.067 827.648 750.907 827.808C750.757 827.957 750.571 828.032 750.347 828.032ZM753.33 838V829.936H754.354L754.418 831.376C754.674 830.864 755.042 830.464 755.522 830.176C756.013 829.888 756.557 829.744 757.154 829.744C757.773 829.744 758.311 829.867 758.77 830.112C759.229 830.357 759.586 830.731 759.842 831.232C760.098 831.723 760.226 832.352 760.226 833.12V838H759.106V833.248C759.106 832.395 758.919 831.76 758.546 831.344C758.173 830.928 757.639 830.72 756.946 830.72C756.477 830.72 756.05 830.837 755.666 831.072C755.293 831.296 754.994 831.627 754.77 832.064C754.557 832.501 754.45 833.04 754.45 833.68V838H753.33Z" fill="#757185"/>
<path d="M786.602 687.426L779.438 677.877L780.064 676.91L791.71 679.525L791.068 680.52L780.987 678.193L787.236 686.445L786.602 687.426ZM785.088 684.198L784.491 683.412L787.176 679.26L788.137 679.482L785.088 684.198Z" fill="#757185"/>
<path d="M794.475 675.407C794.157 675.925 793.775 676.323 793.329 676.6C792.88 676.862 792.379 676.974 791.827 676.935C791.266 676.891 790.654 676.665 789.99 676.258L785.832 673.703L786.418 672.749L790.467 675.236C791.195 675.683 791.833 675.856 792.383 675.756C792.938 675.646 793.392 675.305 793.744 674.733C793.995 674.324 794.123 673.902 794.127 673.466C794.138 673.022 794.012 672.594 793.751 672.184C793.487 671.758 793.082 671.378 792.536 671.043L788.856 668.782L789.442 667.827L796.313 672.048L795.777 672.921L794.516 672.222C794.828 672.713 794.978 673.244 794.966 673.813C794.951 674.367 794.788 674.898 794.475 675.407Z" fill="#757185"/>
<path d="M799.451 666.742C799.218 667.138 798.959 667.443 798.671 667.657C798.375 667.867 798.038 667.966 797.662 667.954C797.281 667.928 796.838 667.767 796.332 667.469L792.208 665.044L791.494 666.258L790.667 665.772L791.381 664.558L789.848 663.471L790.335 662.643L791.962 663.6L793.187 661.518L794 661.996L792.776 664.079L796.9 666.504C797.359 666.774 797.726 666.866 798 666.78C798.264 666.688 798.534 666.407 798.81 665.938L799.232 665.221L800.059 665.708L799.451 666.742Z" fill="#757185"/>
<path d="M801.397 663.399L791.356 657.752L791.905 656.775L796.172 659.175C795.862 658.683 795.701 658.152 795.691 657.583C795.68 657.014 795.819 656.474 796.107 655.963C796.405 655.433 796.77 655.033 797.204 654.763C797.643 654.483 798.14 654.359 798.698 654.391C799.26 654.414 799.881 654.616 800.559 654.998L804.785 657.374L804.244 658.336L800.13 656.023C799.377 655.599 798.73 655.443 798.19 655.556C797.645 655.653 797.203 656.004 796.863 656.609C796.628 657.027 796.516 657.466 796.527 657.925C796.543 658.374 796.689 658.811 796.964 659.236C797.236 659.645 797.655 660.009 798.222 660.328L801.946 662.423L801.397 663.399Z" fill="#757185"/>
<path d="M808.713 650.464C808.369 651.115 807.907 651.625 807.327 651.994C806.742 652.349 806.091 652.531 805.375 652.539C804.65 652.542 803.915 652.347 803.169 651.954C802.396 651.546 801.81 651.044 801.413 650.449C801.02 649.844 800.813 649.198 800.789 648.51C800.757 647.817 800.912 647.146 801.255 646.495C801.614 645.815 802.085 645.298 802.67 644.944C803.246 644.584 803.892 644.4 804.608 644.392C805.324 644.383 806.068 644.583 806.842 644.991C807.587 645.384 808.161 645.886 808.563 646.496C808.96 647.091 809.175 647.735 809.208 648.428C809.236 649.106 809.071 649.785 808.713 650.464ZM807.871 650.002C808.105 649.559 808.21 649.096 808.188 648.613C808.17 648.122 808.008 647.65 807.703 647.2C807.393 646.735 806.922 646.336 806.29 646.003C805.649 645.664 805.056 645.496 804.512 645.499C803.968 645.501 803.493 645.637 803.086 645.905C802.675 646.158 802.353 646.507 802.119 646.95C801.895 647.375 801.792 647.833 801.81 648.325C801.828 648.816 801.987 649.292 802.287 649.752C802.583 650.197 803.051 650.589 803.693 650.928C804.325 651.261 804.918 651.429 805.471 651.432C806.015 651.429 806.493 651.301 806.904 651.048C807.32 650.785 807.642 650.436 807.871 650.002Z" fill="#757185"/>
<path d="M810.878 645.89L803.688 642.238L804.152 641.325L805.572 641.957C805.317 641.636 805.14 641.289 805.042 640.916C804.944 640.543 804.925 640.145 804.985 639.721C805.045 639.296 805.191 638.856 805.423 638.4L806.464 638.929L806.269 639.314C806.114 639.618 806.007 639.935 805.948 640.263C805.879 640.587 805.884 640.907 805.963 641.222C806.042 641.538 806.21 641.844 806.465 642.141C806.721 642.439 807.092 642.711 807.577 642.957L811.385 644.892L810.878 645.89Z" fill="#757185"/>
<path d="M813.653 640.373L806.422 636.804L806.911 635.814L814.142 639.383L813.653 640.373ZM804.962 635.459C804.863 635.66 804.711 635.799 804.507 635.876C804.292 635.949 804.08 635.933 803.87 635.83C803.65 635.721 803.51 635.569 803.452 635.374C803.389 635.164 803.407 634.959 803.506 634.758C803.605 634.557 803.757 634.418 803.962 634.341C804.157 634.259 804.365 634.272 804.585 634.38C804.795 634.484 804.937 634.643 805.009 634.858C805.077 635.058 805.062 635.258 804.962 635.459Z" fill="#757185"/>
<path d="M815.449 636.72L814.61 636.322L810.985 629.518L809.051 633.595L808.198 633.19L810.674 627.972L811.513 628.37L815.152 635.18L817.155 630.959L817.994 631.357L815.449 636.72Z" fill="#757185"/>
<path d="M820.441 626.448C820.134 627.129 819.702 627.659 819.144 628.039C818.59 628.41 817.959 628.616 817.249 628.659C816.534 628.687 815.788 628.526 815.01 628.175C814.232 627.824 813.622 627.373 813.18 626.823C812.738 626.272 812.48 625.664 812.406 624.999C812.327 624.319 812.443 623.634 812.754 622.944C813.074 622.234 813.505 621.709 814.045 621.367C814.589 621.016 815.176 620.831 815.806 620.81C816.44 620.78 817.063 620.904 817.675 621.18C817.772 621.224 817.875 621.27 817.981 621.318C818.079 621.362 818.193 621.42 818.325 621.491L815.607 627.514L814.746 627.126L817.024 622.08C816.266 621.761 815.582 621.733 814.972 621.996C814.366 622.25 813.912 622.712 813.609 623.383C813.412 623.82 813.33 624.274 813.363 624.746C813.39 625.203 813.546 625.636 813.83 626.045C814.108 626.44 814.539 626.769 815.122 627.032L815.501 627.203C816.162 627.501 816.764 627.633 817.307 627.597C817.85 627.561 818.314 627.401 818.699 627.119C819.088 626.826 819.377 626.471 819.566 626.053C819.816 625.499 819.901 624.987 819.82 624.518C819.73 624.044 819.501 623.631 819.134 623.278L819.588 622.271C819.958 622.591 820.255 622.97 820.478 623.41C820.705 623.84 820.819 624.313 820.821 624.829C820.822 625.344 820.696 625.884 820.441 626.448Z" fill="#757185"/>
<path d="M824.202 617.845C823.898 618.562 823.464 619.12 822.901 619.518C822.333 619.903 821.692 620.118 820.977 620.163C820.263 620.207 819.533 620.072 818.787 619.755C818.04 619.439 817.44 619.011 816.985 618.47C816.521 617.926 816.236 617.313 816.131 616.631C816.026 615.949 816.126 615.25 816.43 614.533C816.696 613.905 817.067 613.413 817.542 613.058C818.011 612.689 818.545 612.481 819.144 612.434L814.593 610.505L815.03 609.473L825.636 613.97L825.236 614.912L823.858 614.433C824.047 614.698 824.205 615.008 824.333 615.364C824.464 615.709 824.527 616.095 824.52 616.52C824.508 616.932 824.401 617.374 824.202 617.845ZM823.34 617.376C823.561 616.855 823.63 616.352 823.547 615.865C823.468 615.368 823.248 614.915 822.888 614.508C822.532 614.09 822.054 613.755 821.455 613.501C820.856 613.247 820.283 613.137 819.736 613.171C819.192 613.196 818.715 613.353 818.302 613.641C817.895 613.92 817.58 614.32 817.36 614.841C817.143 615.351 817.074 615.855 817.153 616.352C817.232 616.849 817.45 617.306 817.806 617.723C818.156 618.127 818.636 618.457 819.245 618.716C819.854 618.974 820.432 619.086 820.979 619.051C821.517 619.013 821.992 618.849 822.404 618.56C822.816 618.272 823.128 617.877 823.34 617.376Z" fill="#757185"/>
<circle opacity="0.25" cx="454.5" cy="453.5" r="302.5" stroke="white" stroke-opacity="0.4" stroke-width="3.41667"/>
<circle opacity="0.25" cx="454.5" cy="453.5" r="163.5" stroke="white" stroke-opacity="0.4" stroke-width="3.41667"/>
<circle cx="454.5" cy="453.5" r="423.5" stroke="url(#paint1_angular_396_2369)" stroke-width="3.41667"/>
<mask id="mask0_396_2369" style="mask-type:alpha" maskUnits="userSpaceOnUse" x="26" y="20" width="430" height="863">
<rect x="26.5" y="20.5" width="429" height="862" fill="#D9D9D9" stroke="#010101"/>
</mask>
<g mask="url(#mask0_396_2369)">
<circle cx="454.5" cy="453.5" r="423.5" stroke="#010101" stroke-width="3.41667"/>
</g>
<rect x="415" y="60" width="69" height="44" rx="22" fill="url(#paint2_radial_396_2369)"/>
<path d="M429.736 87.192C428.915 87.192 428.2 87.0427 427.592 86.744C426.995 86.4453 426.536 86.0293 426.216 85.496C425.896 84.952 425.736 84.3333 425.736 83.64H426.904C426.904 84.1093 427.011 84.5413 427.224 84.936C427.437 85.3307 427.752 85.6507 428.168 85.896C428.584 86.1307 429.107 86.248 429.736 86.248C430.291 86.248 430.755 86.1573 431.128 85.976C431.512 85.784 431.805 85.5333 432.008 85.224C432.211 84.9147 432.312 84.5627 432.312 84.168C432.312 83.6987 432.211 83.32 432.008 83.032C431.816 82.744 431.549 82.5093 431.208 82.328C430.867 82.1467 430.477 81.992 430.04 81.864C429.613 81.7253 429.16 81.576 428.68 81.416C427.816 81.1173 427.181 80.7493 426.776 80.312C426.371 79.8747 426.163 79.3147 426.152 78.632C426.152 78.0453 426.285 77.528 426.552 77.08C426.829 76.6213 427.229 76.264 427.752 76.008C428.275 75.7413 428.893 75.608 429.608 75.608C430.301 75.608 430.904 75.7413 431.416 76.008C431.939 76.264 432.344 76.6267 432.632 77.096C432.92 77.5547 433.064 78.0827 433.064 78.68H431.912C431.912 78.3387 431.821 78.008 431.64 77.688C431.469 77.3573 431.208 77.0907 430.856 76.888C430.515 76.6747 430.077 76.568 429.544 76.568C429.107 76.568 428.717 76.648 428.376 76.808C428.045 76.9573 427.784 77.1813 427.592 77.48C427.4 77.768 427.304 78.1093 427.304 78.504C427.304 78.888 427.389 79.2027 427.56 79.448C427.731 79.6933 427.971 79.896 428.28 80.056C428.589 80.216 428.952 80.3653 429.368 80.504C429.784 80.632 430.248 80.7813 430.76 80.952C431.283 81.1333 431.747 81.352 432.152 81.608C432.557 81.864 432.877 82.1947 433.112 82.6C433.347 82.9947 433.464 83.496 433.464 84.104C433.464 84.6267 433.325 85.128 433.048 85.608C432.781 86.0773 432.371 86.4613 431.816 86.76C431.261 87.048 430.568 87.192 429.736 87.192ZM438.811 87.192C438.064 87.192 437.403 87.016 436.827 86.664C436.261 86.312 435.813 85.8213 435.483 85.192C435.163 84.552 435.003 83.8053 435.003 82.952C435.003 82.0987 435.163 81.3573 435.483 80.728C435.803 80.0987 436.251 79.6133 436.827 79.272C437.413 78.92 438.085 78.744 438.843 78.744C439.621 78.744 440.277 78.92 440.811 79.272C441.355 79.624 441.765 80.0827 442.043 80.648C442.331 81.2133 442.475 81.832 442.475 82.504C442.475 82.6107 442.475 82.7227 442.475 82.84C442.475 82.9467 442.469 83.0747 442.459 83.224H435.851V82.28H441.387C441.365 81.4587 441.109 80.824 440.619 80.376C440.139 79.928 439.531 79.704 438.795 79.704C438.315 79.704 437.867 79.816 437.451 80.04C437.045 80.2533 436.715 80.5733 436.459 81C436.213 81.416 436.091 81.944 436.091 82.584V83C436.091 83.7253 436.219 84.328 436.475 84.808C436.731 85.288 437.067 85.6453 437.483 85.88C437.909 86.1147 438.352 86.232 438.811 86.232C439.419 86.232 439.92 86.0987 440.315 85.832C440.709 85.5547 440.992 85.176 441.163 84.696H442.267C442.128 85.1653 441.904 85.592 441.595 85.976C441.296 86.36 440.912 86.6587 440.443 86.872C439.973 87.0853 439.429 87.192 438.811 87.192ZM447.051 87C446.593 87 446.198 86.9307 445.867 86.792C445.537 86.6427 445.281 86.4027 445.099 86.072C444.929 85.7307 444.843 85.2667 444.843 84.68V79.896H443.435V78.936H444.843L445.003 77.064H445.963V78.952H448.379V79.896H445.963V84.68C445.963 85.2133 446.07 85.576 446.283 85.768C446.497 85.9493 446.875 86.04 447.419 86.04H448.251V87H447.051ZM453.176 87C452.718 87 452.323 86.9307 451.992 86.792C451.662 86.6427 451.406 86.4027 451.224 86.072C451.054 85.7307 450.968 85.2667 450.968 84.68V79.896H449.56V78.936H450.968L451.128 77.064H452.088V78.952H454.504V79.896H452.088V84.68C452.088 85.2133 452.195 85.576 452.408 85.768C452.622 85.9493 453 86.04 453.544 86.04H454.376V87H453.176ZM456.245 87V75.48H457.365V87H456.245ZM463.092 87.192C462.345 87.192 461.684 87.016 461.108 86.664C460.543 86.312 460.095 85.8213 459.764 85.192C459.444 84.552 459.284 83.8053 459.284 82.952C459.284 82.0987 459.444 81.3573 459.764 80.728C460.084 80.0987 460.532 79.6133 461.108 79.272C461.695 78.92 462.367 78.744 463.124 78.744C463.903 78.744 464.559 78.92 465.092 79.272C465.636 79.624 466.047 80.0827 466.324 80.648C466.612 81.2133 466.756 81.832 466.756 82.504C466.756 82.6107 466.756 82.7227 466.756 82.84C466.756 82.9467 466.751 83.0747 466.74 83.224H460.132V82.28H465.668C465.647 81.4587 465.391 80.824 464.9 80.376C464.42 79.928 463.812 79.704 463.076 79.704C462.596 79.704 462.148 79.816 461.732 80.04C461.327 80.2533 460.996 80.5733 460.74 81C460.495 81.416 460.372 81.944 460.372 82.584V83C460.372 83.7253 460.5 84.328 460.756 84.808C461.012 85.288 461.348 85.6453 461.764 85.88C462.191 86.1147 462.633 86.232 463.092 86.232C463.7 86.232 464.201 86.0987 464.596 85.832C464.991 85.5547 465.273 85.176 465.444 84.696H466.548C466.409 85.1653 466.185 85.592 465.876 85.976C465.577 86.36 465.193 86.6587 464.724 86.872C464.255 87.0853 463.711 87.192 463.092 87.192ZM468.589 87V78.936H469.613L469.693 80.488C469.864 80.1147 470.093 79.8 470.381 79.544C470.669 79.288 471.016 79.0907 471.421 78.952C471.826 78.8133 472.285 78.744 472.797 78.744V79.912H472.365C472.024 79.912 471.693 79.96 471.373 80.056C471.053 80.1413 470.77 80.2907 470.525 80.504C470.28 80.7173 470.082 81.0053 469.933 81.368C469.784 81.7307 469.709 82.184 469.709 82.728V87H468.589Z" fill="#757185"/>
<rect x="441.1" y="847.75" width="50.5" height="50.5" rx="15.25" fill="#010101"/>
<rect x="441.1" y="847.75" width="50.5" height="50.5" rx="15.25" stroke="#BCF85B" stroke-width="1.5"/>
<g opacity="0.8">
<path d="M462.475 871.313L465.392 874.229L471.954 867.667M478.517 886.625V867.375C478.517 864.925 478.517 863.7 478.04 862.764C477.62 861.941 476.951 861.271 476.128 860.852C475.192 860.375 473.967 860.375 471.517 860.375H462.183C459.733 860.375 458.508 860.375 457.572 860.852C456.749 861.271 456.08 861.941 455.66 862.764C455.183 863.7 455.183 864.925 455.183 867.375V886.625L459.194 883.708L462.84 886.625L466.85 883.708L470.86 886.625L474.506 883.708L478.517 886.625Z" stroke="#BCF85B" stroke-width="2" stroke-linecap="round" stroke-linejoin="round"/>
</g>
<rect x="697.1" y="755.75" width="50.5" height="50.5" rx="15.25" fill="#010101"/>
<rect x="697.1" y="755.75" width="50.5" height="50.5" rx="15.25" stroke="#FA1980" stroke-width="1.5"/>
<g opacity="0.8">
<path d="M721.392 770.562H732.038C733.671 770.562 734.488 770.562 735.112 770.88C735.661 771.16 736.107 771.606 736.386 772.155C736.704 772.779 736.704 773.596 736.704 775.229V777.125C736.704 778.484 736.704 779.163 736.482 779.699C736.186 780.414 735.619 780.982 734.904 781.278C734.368 781.5 733.688 781.5 732.329 781.5M724.309 792.437H713.663C712.029 792.437 711.212 792.437 710.589 792.119C710.04 791.84 709.594 791.394 709.314 790.845C708.996 790.221 708.996 789.404 708.996 787.771V785.875C708.996 784.516 708.996 783.836 709.218 783.3C709.514 782.586 710.082 782.018 710.797 781.722C711.333 781.5 712.012 781.5 713.371 781.5M720.371 785.146H725.329C725.738 785.146 725.942 785.146 726.098 785.066C726.235 784.996 726.347 784.885 726.417 784.748C726.496 784.592 726.496 784.387 726.496 783.979V779.021C726.496 778.612 726.496 778.408 726.417 778.252C726.347 778.115 726.235 778.003 726.098 777.933C725.942 777.854 725.738 777.854 725.329 777.854H720.371C719.963 777.854 719.758 777.854 719.602 777.933C719.465 778.003 719.354 778.115 719.284 778.252C719.204 778.408 719.204 778.612 719.204 779.021V783.979C719.204 784.387 719.204 784.592 719.284 784.748C719.354 784.885 719.465 784.996 719.602 785.066C719.758 785.146 719.963 785.146 720.371 785.146ZM731.309 796.083H736.267C736.675 796.083 736.879 796.083 737.035 796.004C737.173 795.934 737.284 795.822 737.354 795.685C737.434 795.529 737.434 795.325 737.434 794.917V789.958C737.434 789.55 737.434 789.346 737.354 789.19C737.284 789.052 737.173 788.941 737.035 788.871C736.879 788.792 736.675 788.792 736.267 788.792H731.309C730.9 788.792 730.696 788.792 730.54 788.871C730.403 788.941 730.291 789.052 730.221 789.19C730.142 789.346 730.142 789.55 730.142 789.958V794.917C730.142 795.325 730.142 795.529 730.221 795.685C730.291 795.822 730.403 795.934 730.54 796.004C730.696 796.083 730.9 796.083 731.309 796.083ZM709.434 774.208H714.392C714.8 774.208 715.004 774.208 715.16 774.129C715.298 774.059 715.409 773.947 715.479 773.81C715.559 773.654 715.559 773.45 715.559 773.042V768.083C715.559 767.675 715.559 767.471 715.479 767.315C715.409 767.177 715.298 767.066 715.16 766.996C715.004 766.917 714.8 766.917 714.392 766.917H709.434C709.025 766.917 708.821 766.917 708.665 766.996C708.528 767.066 708.416 767.177 708.346 767.315C708.267 767.471 708.267 767.675 708.267 768.083V773.042C708.267 773.45 708.267 773.654 708.346 773.81C708.416 773.947 708.528 774.059 708.665 774.129C708.821 774.208 709.025 774.208 709.434 774.208Z" stroke="#FA1980" stroke-width="2" stroke-linecap="round" stroke-linejoin="round"/>
</g>
<g filter="url(#filter0_ddd_396_2369)">
<rect x="746.35" y="150" width="52" height="52" rx="26" fill="#8B79FD"/>
<rect x="746.936" y="150.586" width="50.8281" height="50.8281" rx="25.4141" stroke="white" stroke-opacity="0.15" stroke-width="1.17188"/>
</g>
<g opacity="0.8">
<path d="M778.975 189.625C781.425 189.625 782.65 189.625 783.586 189.148C784.41 188.729 785.079 188.059 785.498 187.236C785.975 186.3 785.975 185.075 785.975 182.625V170.375C785.975 167.925 785.975 166.7 785.498 165.764C785.079 164.941 784.41 164.271 783.586 163.852C782.65 163.375 781.425 163.375 778.975 163.375L766.725 163.375C764.275 163.375 763.05 163.375 762.114 163.852C761.291 164.271 760.621 164.941 760.202 165.764C759.725 166.7 759.725 167.925 759.725 170.375L759.725 182.625C759.725 185.075 759.725 186.3 760.202 187.236C760.621 188.059 761.291 188.729 762.114 189.148C763.05 189.625 764.275 189.625 766.725 189.625H778.975Z" stroke="black" stroke-width="2" stroke-linecap="round" stroke-linejoin="round"/>
<path d="M775.375 178.242C775.272 177.934 775.221 177.779 775.224 177.653C775.226 177.52 775.244 177.451 775.305 177.333C775.363 177.221 775.519 177.076 775.83 176.787C776.688 175.988 777.225 174.848 777.225 173.583C777.225 171.167 775.266 169.208 772.85 169.208C770.434 169.208 768.475 171.167 768.475 173.583C768.475 174.848 769.012 175.988 769.87 176.787C770.181 177.076 770.337 177.221 770.395 177.333C770.456 177.451 770.474 177.52 770.477 177.653C770.479 177.779 770.428 177.934 770.325 178.242L768.987 182.256C768.814 182.775 768.728 183.034 768.78 183.24C768.825 183.421 768.938 183.577 769.095 183.677C769.274 183.792 769.547 183.792 770.094 183.792H775.606C776.153 183.792 776.426 183.792 776.606 183.677C776.763 183.577 776.875 183.421 776.921 183.24C776.972 183.034 776.886 182.775 776.713 182.256L775.375 178.242Z" stroke="black" stroke-width="2" stroke-linecap="round" stroke-linejoin="round"/>
</g>
<g filter="url(#filter1_ddd_396_2369)">
<rect x="792.35" y="212" width="52" height="52" rx="26" fill="#8B79FD"/>
<rect x="792.936" y="212.586" width="50.8281" height="50.8281" rx="25.4141" stroke="white" stroke-opacity="0.15" stroke-width="1.17188"/>
</g>
<g opacity="0.8">
<path d="M824.975 251.625C827.425 251.625 828.65 251.625 829.586 251.148C830.41 250.729 831.079 250.059 831.498 249.236C831.975 248.3 831.975 247.075 831.975 244.625V232.375C831.975 229.925 831.975 228.7 831.498 227.764C831.079 226.941 830.41 226.271 829.586 225.852C828.65 225.375 827.425 225.375 824.975 225.375L812.725 225.375C810.275 225.375 809.05 225.375 808.114 225.852C807.291 226.271 806.621 226.941 806.202 227.764C805.725 228.7 805.725 229.925 805.725 232.375L805.725 244.625C805.725 247.075 805.725 248.3 806.202 249.236C806.621 250.059 807.291 250.729 808.114 251.148C809.05 251.625 810.275 251.625 812.725 251.625H824.975Z" stroke="black" stroke-width="2" stroke-linecap="round" stroke-linejoin="round"/>
<path d="M821.375 240.242C821.272 239.934 821.221 239.779 821.224 239.653C821.226 239.52 821.244 239.451 821.305 239.333C821.363 239.221 821.519 239.076 821.83 238.787C822.688 237.988 823.225 236.848 823.225 235.583C823.225 233.167 821.266 231.208 818.85 231.208C816.434 231.208 814.475 233.167 814.475 235.583C814.475 236.848 815.012 237.988 815.87 238.787C816.181 239.076 816.337 239.221 816.395 239.333C816.456 239.451 816.474 239.52 816.477 239.653C816.479 239.779 816.428 239.934 816.325 240.242L814.987 244.256C814.814 244.775 814.728 245.034 814.78 245.24C814.825 245.421 814.938 245.577 815.095 245.677C815.274 245.792 815.547 245.792 816.094 245.792H821.606C822.153 245.792 822.426 245.792 822.606 245.677C822.763 245.577 822.875 245.421 822.921 245.24C822.972 245.034 822.886 244.775 822.713 244.256L821.375 240.242Z" stroke="black" stroke-width="2" stroke-linecap="round" stroke-linejoin="round"/>
</g>
<g filter="url(#filter2_ddd_396_2369)">
<rect x="828.35" y="289" width="52" height="52" rx="26" fill="#8B79FD"/>
<rect x="828.936" y="289.586" width="50.8281" height="50.8281" rx="25.4141" stroke="white" stroke-opacity="0.15" stroke-width="1.17188"/>
</g>
<g opacity="0.8">
<path d="M860.975 328.625C863.425 328.625 864.65 328.625 865.586 328.148C866.41 327.729 867.079 327.059 867.498 326.236C867.975 325.3 867.975 324.075 867.975 321.625V309.375C867.975 306.925 867.975 305.7 867.498 304.764C867.079 303.941 866.41 303.271 865.586 302.852C864.65 302.375 863.425 302.375 860.975 302.375L848.725 302.375C846.275 302.375 845.05 302.375 844.114 302.852C843.291 303.271 842.621 303.941 842.202 304.764C841.725 305.7 841.725 306.925 841.725 309.375L841.725 321.625C841.725 324.075 841.725 325.3 842.202 326.236C842.621 327.059 843.291 327.729 844.114 328.148C845.05 328.625 846.275 328.625 848.725 328.625H860.975Z" stroke="black" stroke-width="2" stroke-linecap="round" stroke-linejoin="round"/>
<path d="M857.375 317.242C857.272 316.934 857.221 316.779 857.224 316.653C857.226 316.52 857.244 316.451 857.305 316.333C857.363 316.221 857.519 316.076 857.83 315.787C858.688 314.988 859.225 313.848 859.225 312.583C859.225 310.167 857.266 308.208 854.85 308.208C852.434 308.208 850.475 310.167 850.475 312.583C850.475 313.848 851.012 314.988 851.87 315.787C852.181 316.076 852.337 316.221 852.395 316.333C852.456 316.451 852.474 316.52 852.477 316.653C852.479 316.779 852.428 316.934 852.325 317.242L850.987 321.256C850.814 321.775 850.728 322.034 850.78 322.24C850.825 322.421 850.938 322.577 851.095 322.677C851.274 322.792 851.547 322.792 852.094 322.792H857.606C858.153 322.792 858.426 322.792 858.606 322.677C858.763 322.577 858.875 322.421 858.921 322.24C858.972 322.034 858.886 321.775 858.713 321.256L857.375 317.242Z" stroke="black" stroke-width="2" stroke-linecap="round" stroke-linejoin="round"/>
</g>
<g filter="url(#filter3_ddd_396_2369)">
<rect x="848.35" y="374" width="52" height="52" rx="26" fill="#8B79FD"/>
<rect x="848.936" y="374.586" width="50.8281" height="50.8281" rx="25.4141" stroke="white" stroke-opacity="0.15" stroke-width="1.17188"/>
</g>
<g opacity="0.8">
<path d="M880.975 413.625C883.425 413.625 884.65 413.625 885.586 413.148C886.41 412.729 887.079 412.059 887.498 411.236C887.975 410.3 887.975 409.075 887.975 406.625V394.375C887.975 391.925 887.975 390.7 887.498 389.764C887.079 388.941 886.41 388.271 885.586 387.852C884.65 387.375 883.425 387.375 880.975 387.375L868.725 387.375C866.275 387.375 865.05 387.375 864.114 387.852C863.291 388.271 862.621 388.941 862.202 389.764C861.725 390.7 861.725 391.925 861.725 394.375L861.725 406.625C861.725 409.075 861.725 410.3 862.202 411.236C862.621 412.059 863.291 412.729 864.114 413.148C865.05 413.625 866.275 413.625 868.725 413.625H880.975Z" stroke="black" stroke-width="2" stroke-linecap="round" stroke-linejoin="round"/>
<path d="M877.375 402.242C877.272 401.934 877.221 401.779 877.224 401.653C877.226 401.52 877.244 401.451 877.305 401.333C877.363 401.221 877.519 401.076 877.83 400.787C878.688 399.988 879.225 398.848 879.225 397.583C879.225 395.167 877.266 393.208 874.85 393.208C872.434 393.208 870.475 395.167 870.475 397.583C870.475 398.848 871.012 399.988 871.87 400.787C872.181 401.076 872.337 401.221 872.395 401.333C872.456 401.451 872.474 401.52 872.477 401.653C872.479 401.779 872.428 401.934 872.325 402.242L870.987 406.256C870.814 406.775 870.728 407.034 870.78 407.24C870.825 407.421 870.938 407.577 871.095 407.677C871.274 407.792 871.547 407.792 872.094 407.792H877.606C878.153 407.792 878.426 407.792 878.606 407.677C878.763 407.577 878.875 407.421 878.921 407.24C878.972 407.034 878.886 406.775 878.713 406.256L877.375 402.242Z" stroke="black" stroke-width="2" stroke-linecap="round" stroke-linejoin="round"/>
</g>
<rect x="807.35" y="424" width="102" height="52" rx="26" fill="url(#paint3_radial_396_2369)"/>
<path d="M822.774 447.192C821.952 447.192 821.238 447.043 820.63 446.744C820.032 446.445 819.574 446.029 819.254 445.496C818.934 444.952 818.774 444.333 818.774 443.64H819.942C819.942 444.109 820.048 444.541 820.262 444.936C820.475 445.331 820.79 445.651 821.206 445.896C821.622 446.131 822.144 446.248 822.774 446.248C823.328 446.248 823.792 446.157 824.166 445.976C824.55 445.784 824.843 445.533 825.046 445.224C825.248 444.915 825.35 444.563 825.35 444.168C825.35 443.699 825.248 443.32 825.046 443.032C824.854 442.744 824.587 442.509 824.246 442.328C823.904 442.147 823.515 441.992 823.078 441.864C822.651 441.725 822.198 441.576 821.718 441.416C820.854 441.117 820.219 440.749 819.814 440.312C819.408 439.875 819.2 439.315 819.19 438.632C819.19 438.045 819.323 437.528 819.59 437.08C819.867 436.621 820.267 436.264 820.79 436.008C821.312 435.741 821.931 435.608 822.646 435.608C823.339 435.608 823.942 435.741 824.454 436.008C824.976 436.264 825.382 436.627 825.67 437.096C825.958 437.555 826.102 438.083 826.102 438.68H824.95C824.95 438.339 824.859 438.008 824.678 437.688C824.507 437.357 824.246 437.091 823.894 436.888C823.552 436.675 823.115 436.568 822.582 436.568C822.144 436.568 821.755 436.648 821.414 436.808C821.083 436.957 820.822 437.181 820.63 437.48C820.438 437.768 820.342 438.109 820.342 438.504C820.342 438.888 820.427 439.203 820.598 439.448C820.768 439.693 821.008 439.896 821.318 440.056C821.627 440.216 821.99 440.365 822.406 440.504C822.822 440.632 823.286 440.781 823.798 440.952C824.32 441.133 824.784 441.352 825.19 441.608C825.595 441.864 825.915 442.195 826.15 442.6C826.384 442.995 826.502 443.496 826.502 444.104C826.502 444.627 826.363 445.128 826.086 445.608C825.819 446.077 825.408 446.461 824.854 446.76C824.299 447.048 823.606 447.192 822.774 447.192ZM830.968 447.192C830.318 447.192 829.774 447.075 829.336 446.84C828.91 446.605 828.59 446.301 828.376 445.928C828.174 445.555 828.072 445.144 828.072 444.696C828.072 444.141 828.211 443.672 828.488 443.288C828.776 442.904 829.176 442.616 829.688 442.424C830.2 442.232 830.798 442.136 831.48 442.136H833.656C833.656 441.613 833.576 441.171 833.416 440.808C833.256 440.445 833.022 440.173 832.712 439.992C832.403 439.8 832.014 439.704 831.544 439.704C831 439.704 830.531 439.843 830.136 440.12C829.742 440.397 829.496 440.803 829.4 441.336H828.232C828.296 440.771 828.488 440.296 828.808 439.912C829.139 439.528 829.544 439.24 830.024 439.048C830.504 438.845 831.011 438.744 831.544 438.744C832.291 438.744 832.899 438.888 833.368 439.176C833.838 439.453 834.19 439.837 834.424 440.328C834.659 440.819 834.776 441.384 834.776 442.024V447H833.752L833.688 445.528C833.592 445.752 833.459 445.965 833.288 446.168C833.128 446.371 832.936 446.547 832.712 446.696C832.499 446.845 832.248 446.963 831.96 447.048C831.672 447.144 831.342 447.192 830.968 447.192ZM831.096 446.216C831.491 446.216 831.843 446.136 832.152 445.976C832.472 445.805 832.744 445.587 832.968 445.32C833.192 445.053 833.363 444.755 833.48 444.424C833.598 444.083 833.656 443.731 833.656 443.368V443.08H831.56C830.995 443.08 830.542 443.149 830.2 443.288C829.859 443.427 829.614 443.613 829.464 443.848C829.315 444.083 829.24 444.355 829.24 444.664C829.24 444.973 829.31 445.245 829.448 445.48C829.587 445.704 829.795 445.885 830.072 446.024C830.36 446.152 830.702 446.216 831.096 446.216ZM837.372 447V437.544C837.372 437.075 837.447 436.691 837.596 436.392C837.756 436.083 837.991 435.853 838.3 435.704C838.61 435.555 838.999 435.48 839.468 435.48H840.38V436.44H839.66C839.234 436.44 838.93 436.525 838.748 436.696C838.578 436.867 838.492 437.165 838.492 437.592V447H837.372ZM836.124 439.896V438.936H840.588V439.896H836.124ZM845.364 447.192C844.617 447.192 843.956 447.016 843.38 446.664C842.815 446.312 842.367 445.821 842.036 445.192C841.716 444.552 841.556 443.805 841.556 442.952C841.556 442.099 841.716 441.357 842.036 440.728C842.356 440.099 842.804 439.613 843.38 439.272C843.967 438.92 844.639 438.744 845.396 438.744C846.175 438.744 846.831 438.92 847.364 439.272C847.908 439.624 848.319 440.083 848.596 440.648C848.884 441.213 849.028 441.832 849.028 442.504C849.028 442.611 849.028 442.723 849.028 442.84C849.028 442.947 849.023 443.075 849.012 443.224H842.404V442.28H847.94C847.919 441.459 847.663 440.824 847.172 440.376C846.692 439.928 846.084 439.704 845.348 439.704C844.868 439.704 844.42 439.816 844.004 440.04C843.599 440.253 843.268 440.573 843.012 441C842.767 441.416 842.644 441.944 842.644 442.584V443C842.644 443.725 842.772 444.328 843.028 444.808C843.284 445.288 843.62 445.645 844.036 445.88C844.463 446.115 844.905 446.232 845.364 446.232C845.972 446.232 846.473 446.099 846.868 445.832C847.263 445.555 847.545 445.176 847.716 444.696H848.82C848.681 445.165 848.457 445.592 848.148 445.976C847.849 446.36 847.465 446.659 846.996 446.872C846.527 447.085 845.983 447.192 845.364 447.192ZM853.981 450.712C853.266 450.712 852.632 450.616 852.077 450.424C851.533 450.232 851.101 449.944 850.781 449.56C850.472 449.176 850.317 448.701 850.317 448.136C850.317 447.912 850.354 447.667 850.429 447.4C850.514 447.144 850.674 446.883 850.909 446.616C851.144 446.349 851.474 446.109 851.901 445.896L852.813 446.296C852.248 446.563 851.88 446.851 851.709 447.16C851.538 447.48 851.453 447.768 851.453 448.024C851.453 448.408 851.56 448.728 851.773 448.984C851.997 449.24 852.296 449.432 852.669 449.56C853.053 449.699 853.49 449.768 853.981 449.768C854.472 449.768 854.893 449.693 855.245 449.544C855.608 449.405 855.885 449.203 856.077 448.936C856.269 448.68 856.365 448.381 856.365 448.04C856.365 447.645 856.21 447.309 855.901 447.032C855.602 446.765 855.042 446.611 854.221 446.568C853.57 446.525 853.032 446.472 852.605 446.408C852.189 446.333 851.842 446.248 851.565 446.152C851.298 446.045 851.074 445.933 850.893 445.816C850.722 445.699 850.557 445.571 850.397 445.432V445.064L851.933 443.608L852.957 443.976L851.453 445.32L851.549 444.888C851.666 444.973 851.778 445.053 851.885 445.128C852.002 445.203 852.152 445.267 852.333 445.32C852.525 445.363 852.786 445.411 853.117 445.464C853.458 445.507 853.917 445.549 854.493 445.592C855.229 445.645 855.816 445.773 856.253 445.976C856.69 446.179 857.01 446.451 857.213 446.792C857.416 447.133 857.517 447.533 857.517 447.992C857.517 448.451 857.389 448.888 857.133 449.304C856.888 449.72 856.504 450.056 855.981 450.312C855.469 450.579 854.802 450.712 853.981 450.712ZM853.965 444.44C853.282 444.44 852.706 444.312 852.237 444.056C851.778 443.8 851.426 443.459 851.181 443.032C850.936 442.595 850.813 442.115 850.813 441.592C850.813 441.059 850.936 440.579 851.181 440.152C851.426 439.725 851.784 439.384 852.253 439.128C852.722 438.872 853.293 438.744 853.965 438.744C854.648 438.744 855.218 438.872 855.677 439.128C856.146 439.384 856.498 439.725 856.733 440.152C856.978 440.579 857.101 441.059 857.101 441.592C857.101 442.115 856.978 442.595 856.733 443.032C856.498 443.459 856.146 443.8 855.677 444.056C855.218 444.312 854.648 444.44 853.965 444.44ZM853.965 443.48C854.584 443.48 855.069 443.32 855.421 443C855.784 442.669 855.965 442.2 855.965 441.592C855.965 440.973 855.784 440.504 855.421 440.184C855.069 439.864 854.584 439.704 853.965 439.704C853.346 439.704 852.85 439.864 852.477 440.184C852.114 440.504 851.933 440.973 851.933 441.592C851.933 442.2 852.114 442.669 852.477 443C852.84 443.32 853.336 443.48 853.965 443.48ZM855.277 439.944L854.877 438.936H858.141V439.848L855.277 439.944ZM862.601 447.192C861.993 447.192 861.455 447.075 860.985 446.84C860.527 446.595 860.169 446.227 859.913 445.736C859.657 445.235 859.529 444.595 859.529 443.816V438.936H860.649V443.688C860.649 444.541 860.836 445.176 861.209 445.592C861.593 446.008 862.121 446.216 862.793 446.216C863.273 446.216 863.7 446.104 864.073 445.88C864.457 445.656 864.756 445.325 864.969 444.888C865.193 444.44 865.305 443.896 865.305 443.256V438.936H866.425V447H865.401L865.337 445.56C865.081 446.083 864.708 446.488 864.217 446.776C863.737 447.053 863.199 447.192 862.601 447.192ZM871.281 447.192C870.63 447.192 870.086 447.075 869.649 446.84C869.222 446.605 868.902 446.301 868.689 445.928C868.486 445.555 868.385 445.144 868.385 444.696C868.385 444.141 868.524 443.672 868.801 443.288C869.089 442.904 869.489 442.616 870.001 442.424C870.513 442.232 871.11 442.136 871.793 442.136H873.969C873.969 441.613 873.889 441.171 873.729 440.808C873.569 440.445 873.334 440.173 873.025 439.992C872.716 439.8 872.326 439.704 871.857 439.704C871.313 439.704 870.844 439.843 870.449 440.12C870.054 440.397 869.809 440.803 869.713 441.336H868.545C868.609 440.771 868.801 440.296 869.121 439.912C869.452 439.528 869.857 439.24 870.337 439.048C870.817 438.845 871.324 438.744 871.857 438.744C872.604 438.744 873.212 438.888 873.681 439.176C874.15 439.453 874.502 439.837 874.737 440.328C874.972 440.819 875.089 441.384 875.089 442.024V447H874.065L874.001 445.528C873.905 445.752 873.772 445.965 873.601 446.168C873.441 446.371 873.249 446.547 873.025 446.696C872.812 446.845 872.561 446.963 872.273 447.048C871.985 447.144 871.654 447.192 871.281 447.192ZM871.409 446.216C871.804 446.216 872.156 446.136 872.465 445.976C872.785 445.805 873.057 445.587 873.281 445.32C873.505 445.053 873.676 444.755 873.793 444.424C873.91 444.083 873.969 443.731 873.969 443.368V443.08H871.873C871.308 443.08 870.854 443.149 870.513 443.288C870.172 443.427 869.926 443.613 869.777 443.848C869.628 444.083 869.553 444.355 869.553 444.664C869.553 444.973 869.622 445.245 869.761 445.48C869.9 445.704 870.108 445.885 870.385 446.024C870.673 446.152 871.014 446.216 871.409 446.216ZM877.205 447V438.936H878.229L878.309 440.488C878.48 440.115 878.709 439.8 878.997 439.544C879.285 439.288 879.632 439.091 880.037 438.952C880.442 438.813 880.901 438.744 881.413 438.744V439.912H880.981C880.64 439.912 880.309 439.96 879.989 440.056C879.669 440.141 879.386 440.291 879.141 440.504C878.896 440.717 878.698 441.005 878.549 441.368C878.4 441.731 878.325 442.184 878.325 442.728V447H877.205ZM886.162 447.192C885.384 447.192 884.701 447.011 884.114 446.648C883.538 446.275 883.09 445.768 882.77 445.128C882.45 444.488 882.29 443.763 882.29 442.952C882.29 442.141 882.45 441.421 882.77 440.792C883.09 440.152 883.544 439.651 884.13 439.288C884.717 438.925 885.4 438.744 886.178 438.744C886.861 438.744 887.458 438.893 887.97 439.192C888.493 439.48 888.893 439.891 889.17 440.424V435.48H890.29V447H889.266L889.17 445.544C889 445.821 888.776 446.088 888.498 446.344C888.232 446.6 887.901 446.808 887.506 446.968C887.122 447.117 886.674 447.192 886.162 447.192ZM886.258 446.216C886.824 446.216 887.314 446.083 887.73 445.816C888.157 445.549 888.488 445.171 888.722 444.68C888.968 444.189 889.09 443.619 889.09 442.968C889.09 442.317 888.968 441.747 888.722 441.256C888.488 440.765 888.157 440.387 887.73 440.12C887.314 439.853 886.824 439.72 886.258 439.72C885.704 439.72 885.213 439.853 884.786 440.12C884.36 440.387 884.024 440.765 883.778 441.256C883.544 441.736 883.426 442.307 883.426 442.968C883.426 443.629 883.549 444.205 883.794 444.696C884.04 445.176 884.376 445.549 884.802 445.816C885.229 446.083 885.714 446.216 886.258 446.216ZM895.524 447.192C894.884 447.192 894.319 447.085 893.828 446.872C893.348 446.659 892.959 446.355 892.66 445.96C892.372 445.555 892.196 445.075 892.132 444.52H893.284C893.348 444.829 893.471 445.112 893.652 445.368C893.844 445.624 894.1 445.832 894.42 445.992C894.74 446.141 895.119 446.216 895.556 446.216C895.962 446.216 896.292 446.157 896.548 446.04C896.815 445.912 897.012 445.747 897.14 445.544C897.279 445.331 897.348 445.096 897.348 444.84C897.348 444.488 897.263 444.216 897.092 444.024C896.932 443.821 896.698 443.672 896.388 443.576C896.079 443.48 895.706 443.389 895.268 443.304C894.906 443.24 894.559 443.155 894.228 443.048C893.898 442.941 893.599 442.803 893.332 442.632C893.076 442.461 892.874 442.248 892.724 441.992C892.575 441.725 892.5 441.416 892.5 441.064C892.5 440.605 892.612 440.205 892.836 439.864C893.071 439.512 893.402 439.24 893.828 439.048C894.255 438.845 894.756 438.744 895.332 438.744C896.154 438.744 896.826 438.952 897.348 439.368C897.871 439.773 898.175 440.371 898.26 441.16H897.14C897.098 440.723 896.916 440.376 896.596 440.12C896.276 439.864 895.844 439.736 895.3 439.736C894.767 439.736 894.356 439.848 894.068 440.072C893.791 440.285 893.652 440.579 893.652 440.952C893.652 441.187 893.727 441.389 893.876 441.56C894.026 441.731 894.244 441.88 894.532 442.008C894.831 442.125 895.194 442.227 895.62 442.312C896.132 442.408 896.602 442.536 897.028 442.696C897.466 442.845 897.818 443.08 898.084 443.4C898.362 443.709 898.5 444.152 898.5 444.728C898.511 445.208 898.394 445.635 898.148 446.008C897.903 446.381 897.556 446.675 897.108 446.888C896.66 447.091 896.132 447.192 895.524 447.192ZM852.098 463V451.8H858.898V452.728H853.218V456.904H858.418V457.832H853.218V462.072H858.898V463H852.098ZM860.97 463V454.936H861.994L862.058 456.376C862.314 455.864 862.682 455.464 863.162 455.176C863.653 454.888 864.197 454.744 864.794 454.744C865.413 454.744 865.952 454.867 866.41 455.112C866.869 455.357 867.226 455.731 867.482 456.232C867.738 456.723 867.866 457.352 867.866 458.12V463H866.746V458.248C866.746 457.395 866.56 456.76 866.186 456.344C865.813 455.928 865.28 455.72 864.586 455.72C864.117 455.72 863.69 455.837 863.306 456.072C862.933 456.296 862.634 456.627 862.41 457.064C862.197 457.501 862.09 458.04 862.09 458.68V463H860.97ZM873.106 466.712C872.391 466.712 871.757 466.616 871.202 466.424C870.658 466.232 870.226 465.944 869.906 465.56C869.597 465.176 869.442 464.701 869.442 464.136C869.442 463.912 869.479 463.667 869.554 463.4C869.639 463.144 869.799 462.883 870.034 462.616C870.269 462.349 870.599 462.109 871.026 461.896L871.938 462.296C871.373 462.563 871.005 462.851 870.834 463.16C870.663 463.48 870.578 463.768 870.578 464.024C870.578 464.408 870.685 464.728 870.898 464.984C871.122 465.24 871.421 465.432 871.794 465.56C872.178 465.699 872.615 465.768 873.106 465.768C873.597 465.768 874.018 465.693 874.37 465.544C874.733 465.405 875.01 465.203 875.202 464.936C875.394 464.68 875.49 464.381 875.49 464.04C875.49 463.645 875.335 463.309 875.026 463.032C874.727 462.765 874.167 462.611 873.346 462.568C872.695 462.525 872.157 462.472 871.73 462.408C871.314 462.333 870.967 462.248 870.69 462.152C870.423 462.045 870.199 461.933 870.018 461.816C869.847 461.699 869.682 461.571 869.522 461.432V461.064L871.058 459.608L872.082 459.976L870.578 461.32L870.674 460.888C870.791 460.973 870.903 461.053 871.01 461.128C871.127 461.203 871.277 461.267 871.458 461.32C871.65 461.363 871.911 461.411 872.242 461.464C872.583 461.507 873.042 461.549 873.618 461.592C874.354 461.645 874.941 461.773 875.378 461.976C875.815 462.179 876.135 462.451 876.338 462.792C876.541 463.133 876.642 463.533 876.642 463.992C876.642 464.451 876.514 464.888 876.258 465.304C876.013 465.72 875.629 466.056 875.106 466.312C874.594 466.579 873.927 466.712 873.106 466.712ZM873.09 460.44C872.407 460.44 871.831 460.312 871.362 460.056C870.903 459.8 870.551 459.459 870.306 459.032C870.061 458.595 869.938 458.115 869.938 457.592C869.938 457.059 870.061 456.579 870.306 456.152C870.551 455.725 870.909 455.384 871.378 455.128C871.847 454.872 872.418 454.744 873.09 454.744C873.773 454.744 874.343 454.872 874.802 455.128C875.271 455.384 875.623 455.725 875.858 456.152C876.103 456.579 876.226 457.059 876.226 457.592C876.226 458.115 876.103 458.595 875.858 459.032C875.623 459.459 875.271 459.8 874.802 460.056C874.343 460.312 873.773 460.44 873.09 460.44ZM873.09 459.48C873.709 459.48 874.194 459.32 874.546 459C874.909 458.669 875.09 458.2 875.09 457.592C875.09 456.973 874.909 456.504 874.546 456.184C874.194 455.864 873.709 455.704 873.09 455.704C872.471 455.704 871.975 455.864 871.602 456.184C871.239 456.504 871.058 456.973 871.058 457.592C871.058 458.2 871.239 458.669 871.602 459C871.965 459.32 872.461 459.48 873.09 459.48ZM874.402 455.944L874.002 454.936H877.266V455.848L874.402 455.944ZM878.974 463V454.936H880.078V463H878.974ZM879.534 453.032C879.31 453.032 879.118 452.957 878.958 452.808C878.798 452.648 878.718 452.451 878.718 452.216C878.718 451.971 878.793 451.779 878.942 451.64C879.102 451.491 879.294 451.416 879.518 451.416C879.742 451.416 879.934 451.491 880.094 451.64C880.254 451.779 880.334 451.971 880.334 452.216C880.334 452.451 880.254 452.648 880.094 452.808C879.945 452.957 879.758 453.032 879.534 453.032ZM882.517 463V454.936H883.541L883.605 456.376C883.861 455.864 884.229 455.464 884.709 455.176C885.2 454.888 885.744 454.744 886.341 454.744C886.96 454.744 887.499 454.867 887.957 455.112C888.416 455.357 888.773 455.731 889.029 456.232C889.285 456.723 889.413 457.352 889.413 458.12V463H888.293V458.248C888.293 457.395 888.107 456.76 887.733 456.344C887.36 455.928 886.827 455.72 886.133 455.72C885.664 455.72 885.237 455.837 884.853 456.072C884.48 456.296 884.181 456.627 883.957 457.064C883.744 457.501 883.637 458.04 883.637 458.68V463H882.517ZM894.989 463.192C894.242 463.192 893.581 463.016 893.005 462.664C892.44 462.312 891.992 461.821 891.661 461.192C891.341 460.552 891.181 459.805 891.181 458.952C891.181 458.099 891.341 457.357 891.661 456.728C891.981 456.099 892.429 455.613 893.005 455.272C893.592 454.92 894.264 454.744 895.021 454.744C895.8 454.744 896.456 454.92 896.989 455.272C897.533 455.624 897.944 456.083 898.221 456.648C898.509 457.213 898.653 457.832 898.653 458.504C898.653 458.611 898.653 458.723 898.653 458.84C898.653 458.947 898.648 459.075 898.637 459.224H892.029V458.28H897.565C897.544 457.459 897.288 456.824 896.797 456.376C896.317 455.928 895.709 455.704 894.973 455.704C894.493 455.704 894.045 455.816 893.629 456.04C893.224 456.253 892.893 456.573 892.637 457C892.392 457.416 892.269 457.944 892.269 458.584V459C892.269 459.725 892.397 460.328 892.653 460.808C892.909 461.288 893.245 461.645 893.661 461.88C894.088 462.115 894.53 462.232 894.989 462.232C895.597 462.232 896.098 462.099 896.493 461.832C896.888 461.555 897.17 461.176 897.341 460.696H898.445C898.306 461.165 898.082 461.592 897.773 461.976C897.474 462.36 897.09 462.659 896.621 462.872C896.152 463.085 895.608 463.192 894.989 463.192Z" fill="#757185"/>
<g filter="url(#filter4_ddd_396_2369)">
<rect x="403" y="402" width="104" height="104" rx="52" fill="#15131D"/>
<rect x="404.172" y="403.172" width="101.656" height="101.656" rx="50.8281" stroke="white" stroke-opacity="0.15" stroke-width="2.34375"/>
</g>
<path d="M479.333 481.25C479.333 477.18 479.333 475.144 478.831 473.488C477.7 469.76 474.782 466.842 471.053 465.711C469.397 465.208 467.362 465.208 463.291 465.208H448.708C444.638 465.208 442.603 465.208 440.947 465.711C437.218 466.842 434.3 469.76 433.169 473.488C432.667 475.144 432.667 477.18 432.667 481.25M469.125 441.875C469.125 449.124 463.249 455 456 455C448.751 455 442.875 449.124 442.875 441.875C442.875 434.626 448.751 428.75 456 428.75C463.249 428.75 469.125 434.626 469.125 441.875Z" stroke="white" stroke-width="4" stroke-linecap="round" stroke-linejoin="round"/>
<rect x="428.1" y="53.25" width="50.5" height="50.5" rx="15.25" transform="rotate(-90 428.1 53.25)" fill="#010101"/>
<rect x="428.1" y="53.25" width="50.5" height="50.5" rx="15.25" transform="rotate(-90 428.1 53.25)" stroke="#BCF85B" stroke-width="1.5"/>
<g opacity="0.8">
<path d="M452.832 42.5218C453.155 42.7102 453.316 42.8043 453.544 42.8532C453.721 42.8911 453.979 42.8911 454.156 42.8532C454.384 42.8043 454.545 42.7102 454.868 42.5218C457.709 40.8644 465.517 35.6583 465.517 28.5001V22.9584C465.517 21.3924 465.517 20.6093 465.275 20.0535C465.03 19.4885 464.785 19.188 464.282 18.8327C463.787 18.4832 462.817 18.2813 460.876 17.8776C458.737 17.4327 457.094 16.6293 455.592 15.4675C454.872 14.9103 454.511 14.6317 454.23 14.5557C453.932 14.4756 453.768 14.4756 453.47 14.5557C453.189 14.6317 452.828 14.9103 452.108 15.4675C450.606 16.6293 448.963 17.4327 446.824 17.8776C444.883 18.2813 443.913 18.4832 443.418 18.8327C442.915 19.188 442.67 19.4885 442.425 20.0535C442.183 20.6093 442.183 21.3924 442.183 22.9584V28.5001C442.183 35.6583 449.991 40.8644 452.832 42.5218Z" stroke="#BCF85B" stroke-width="2" stroke-linecap="round" stroke-linejoin="round"/>
</g>
</g>
<defs>
<filter id="filter0_ddd_396_2369" x="744.944" y="149.297" width="54.8125" height="54.8125" filterUnits="userSpaceOnUse" color-interpolation-filters="sRGB">
<feFlood flood-opacity="0" result="BackgroundImageFix"/>
<feColorMatrix in="SourceAlpha" type="matrix" values="0 0 0 0 0 0 0 0 0 0 0 0 0 0 0 0 0 0 127 0" result="hardAlpha"/>
<feOffset dy="0.703125"/>
<feGaussianBlur stdDeviation="0.703125"/>
<feComposite in2="hardAlpha" operator="out"/>
<feColorMatrix type="matrix" values="0 0 0 0 0 0 0 0 0 0 0 0 0 0 0 0 0 0 0.1 0"/>
<feBlend mode="normal" in2="BackgroundImageFix" result="effect1_dropShadow_396_2369"/>
<feColorMatrix in="SourceAlpha" type="matrix" values="0 0 0 0 0 0 0 0 0 0 0 0 0 0 0 0 0 0 127 0" result="hardAlpha"/>
<feOffset dy="0.46875"/>
<feGaussianBlur stdDeviation="0.351562"/>
<feComposite in2="hardAlpha" operator="out"/>
<feColorMatrix type="matrix" values="0 0 0 0 0 0 0 0 0 0 0 0 0 0 0 0 0 0 0.1 0"/>
<feBlend mode="normal" in2="effect1_dropShadow_396_2369" result="effect2_dropShadow_396_2369"/>
<feColorMatrix in="SourceAlpha" type="matrix" values="0 0 0 0 0 0 0 0 0 0 0 0 0 0 0 0 0 0 127 0" result="hardAlpha"/>
<feOffset dy="0.117188"/>
<feGaussianBlur stdDeviation="0.117188"/>
<feComposite in2="hardAlpha" operator="out"/>
<feColorMatrix type="matrix" values="0 0 0 0 0 0 0 0 0 0 0 0 0 0 0 0 0 0 0.1 0"/>
<feBlend mode="normal" in2="effect2_dropShadow_396_2369" result="effect3_dropShadow_396_2369"/>
<feBlend mode="normal" in="SourceGraphic" in2="effect3_dropShadow_396_2369" result="shape"/>
</filter>
<filter id="filter1_ddd_396_2369" x="790.944" y="211.297" width="54.8125" height="54.8125" filterUnits="userSpaceOnUse" color-interpolation-filters="sRGB">
<feFlood flood-opacity="0" result="BackgroundImageFix"/>
<feColorMatrix in="SourceAlpha" type="matrix" values="0 0 0 0 0 0 0 0 0 0 0 0 0 0 0 0 0 0 127 0" result="hardAlpha"/>
<feOffset dy="0.703125"/>
<feGaussianBlur stdDeviation="0.703125"/>
<feComposite in2="hardAlpha" operator="out"/>
<feColorMatrix type="matrix" values="0 0 0 0 0 0 0 0 0 0 0 0 0 0 0 0 0 0 0.1 0"/>
<feBlend mode="normal" in2="BackgroundImageFix" result="effect1_dropShadow_396_2369"/>
<feColorMatrix in="SourceAlpha" type="matrix" values="0 0 0 0 0 0 0 0 0 0 0 0 0 0 0 0 0 0 127 0" result="hardAlpha"/>
<feOffset dy="0.46875"/>
<feGaussianBlur stdDeviation="0.351562"/>
<feComposite in2="hardAlpha" operator="out"/>
<feColorMatrix type="matrix" values="0 0 0 0 0 0 0 0 0 0 0 0 0 0 0 0 0 0 0.1 0"/>
<feBlend mode="normal" in2="effect1_dropShadow_396_2369" result="effect2_dropShadow_396_2369"/>
<feColorMatrix in="SourceAlpha" type="matrix" values="0 0 0 0 0 0 0 0 0 0 0 0 0 0 0 0 0 0 127 0" result="hardAlpha"/>
<feOffset dy="0.117188"/>
<feGaussianBlur stdDeviation="0.117188"/>
<feComposite in2="hardAlpha" operator="out"/>
<feColorMatrix type="matrix" values="0 0 0 0 0 0 0 0 0 0 0 0 0 0 0 0 0 0 0.1 0"/>
<feBlend mode="normal" in2="effect2_dropShadow_396_2369" result="effect3_dropShadow_396_2369"/>
<feBlend mode="normal" in="SourceGraphic" in2="effect3_dropShadow_396_2369" result="shape"/>
</filter>
<filter id="filter2_ddd_396_2369" x="826.944" y="288.297" width="54.8125" height="54.8125" filterUnits="userSpaceOnUse" color-interpolation-filters="sRGB">
<feFlood flood-opacity="0" result="BackgroundImageFix"/>
<feColorMatrix in="SourceAlpha" type="matrix" values="0 0 0 0 0 0 0 0 0 0 0 0 0 0 0 0 0 0 127 0" result="hardAlpha"/>
<feOffset dy="0.703125"/>
<feGaussianBlur stdDeviation="0.703125"/>
<feComposite in2="hardAlpha" operator="out"/>
<feColorMatrix type="matrix" values="0 0 0 0 0 0 0 0 0 0 0 0 0 0 0 0 0 0 0.1 0"/>
<feBlend mode="normal" in2="BackgroundImageFix" result="effect1_dropShadow_396_2369"/>
<feColorMatrix in="SourceAlpha" type="matrix" values="0 0 0 0 0 0 0 0 0 0 0 0 0 0 0 0 0 0 127 0" result="hardAlpha"/>
<feOffset dy="0.46875"/>
<feGaussianBlur stdDeviation="0.351562"/>
<feComposite in2="hardAlpha" operator="out"/>
<feColorMatrix type="matrix" values="0 0 0 0 0 0 0 0 0 0 0 0 0 0 0 0 0 0 0.1 0"/>
<feBlend mode="normal" in2="effect1_dropShadow_396_2369" result="effect2_dropShadow_396_2369"/>
<feColorMatrix in="SourceAlpha" type="matrix" values="0 0 0 0 0 0 0 0 0 0 0 0 0 0 0 0 0 0 127 0" result="hardAlpha"/>
<feOffset dy="0.117188"/>
<feGaussianBlur stdDeviation="0.117188"/>
<feComposite in2="hardAlpha" operator="out"/>
<feColorMatrix type="matrix" values="0 0 0 0 0 0 0 0 0 0 0 0 0 0 0 0 0 0 0.1 0"/>
<feBlend mode="normal" in2="effect2_dropShadow_396_2369" result="effect3_dropShadow_396_2369"/>
<feBlend mode="normal" in="SourceGraphic" in2="effect3_dropShadow_396_2369" result="shape"/>
</filter>
<filter id="filter3_ddd_396_2369" x="846.944" y="373.297" width="54.8125" height="54.8125" filterUnits="userSpaceOnUse" color-interpolation-filters="sRGB">
<feFlood flood-opacity="0" result="BackgroundImageFix"/>
<feColorMatrix in="SourceAlpha" type="matrix" values="0 0 0 0 0 0 0 0 0 0 0 0 0 0 0 0 0 0 127 0" result="hardAlpha"/>
<feOffset dy="0.703125"/>
<feGaussianBlur stdDeviation="0.703125"/>
<feComposite in2="hardAlpha" operator="out"/>
<feColorMatrix type="matrix" values="0 0 0 0 0 0 0 0 0 0 0 0 0 0 0 0 0 0 0.1 0"/>
<feBlend mode="normal" in2="BackgroundImageFix" result="effect1_dropShadow_396_2369"/>
<feColorMatrix in="SourceAlpha" type="matrix" values="0 0 0 0 0 0 0 0 0 0 0 0 0 0 0 0 0 0 127 0" result="hardAlpha"/>
<feOffset dy="0.46875"/>
<feGaussianBlur stdDeviation="0.351562"/>
<feComposite in2="hardAlpha" operator="out"/>
<feColorMatrix type="matrix" values="0 0 0 0 0 0 0 0 0 0 0 0 0 0 0 0 0 0 0.1 0"/>
<feBlend mode="normal" in2="effect1_dropShadow_396_2369" result="effect2_dropShadow_396_2369"/>
<feColorMatrix in="SourceAlpha" type="matrix" values="0 0 0 0 0 0 0 0 0 0 0 0 0 0 0 0 0 0 127 0" result="hardAlpha"/>
<feOffset dy="0.117188"/>
<feGaussianBlur stdDeviation="0.117188"/>
<feComposite in2="hardAlpha" operator="out"/>
<feColorMatrix type="matrix" values="0 0 0 0 0 0 0 0 0 0 0 0 0 0 0 0 0 0 0.1 0"/>
<feBlend mode="normal" in2="effect2_dropShadow_396_2369" result="effect3_dropShadow_396_2369"/>
<feBlend mode="normal" in="SourceGraphic" in2="effect3_dropShadow_396_2369" result="shape"/>
</filter>
<filter id="filter4_ddd_396_2369" x="400.188" y="400.594" width="109.625" height="109.625" filterUnits="userSpaceOnUse" color-interpolation-filters="sRGB">
<feFlood flood-opacity="0" result="BackgroundImageFix"/>
<feColorMatrix in="SourceAlpha" type="matrix" values="0 0 0 0 0 0 0 0 0 0 0 0 0 0 0 0 0 0 127 0" result="hardAlpha"/>
<feOffset dy="1.40625"/>
<feGaussianBlur stdDeviation="1.40625"/>
<feComposite in2="hardAlpha" operator="out"/>
<feColorMatrix type="matrix" values="0 0 0 0 0 0 0 0 0 0 0 0 0 0 0 0 0 0 0.1 0"/>
<feBlend mode="normal" in2="BackgroundImageFix" result="effect1_dropShadow_396_2369"/>
<feColorMatrix in="SourceAlpha" type="matrix" values="0 0 0 0 0 0 0 0 0 0 0 0 0 0 0 0 0 0 127 0" result="hardAlpha"/>
<feOffset dy="0.9375"/>
<feGaussianBlur stdDeviation="0.703125"/>
<feComposite in2="hardAlpha" operator="out"/>
<feColorMatrix type="matrix" values="0 0 0 0 0 0 0 0 0 0 0 0 0 0 0 0 0 0 0.1 0"/>
<feBlend mode="normal" in2="effect1_dropShadow_396_2369" result="effect2_dropShadow_396_2369"/>
<feColorMatrix in="SourceAlpha" type="matrix" values="0 0 0 0 0 0 0 0 0 0 0 0 0 0 0 0 0 0 127 0" result="hardAlpha"/>
<feOffset dy="0.234375"/>
<feGaussianBlur stdDeviation="0.234375"/>
<feComposite in2="hardAlpha" operator="out"/>
<feColorMatrix type="matrix" values="0 0 0 0 0 0 0 0 0 0 0 0 0 0 0 0 0 0 0.1 0"/>
<feBlend mode="normal" in2="effect2_dropShadow_396_2369" result="effect3_dropShadow_396_2369"/>
<feBlend mode="normal" in="SourceGraphic" in2="effect3_dropShadow_396_2369" result="shape"/>
</filter>
<radialGradient id="paint0_radial_396_2369" cx="0" cy="0" r="1" gradientUnits="userSpaceOnUse" gradientTransform="translate(726.863 833) rotate(91.8937) scale(19.5107 43.4366)">
<stop offset="0.505" stop-color="#010101"/>
<stop offset="1" stop-color="#010101" stop-opacity="0"/>
</radialGradient>
<radialGradient id="paint1_angular_396_2369" cx="0" cy="0" r="1" gradientUnits="userSpaceOnUse" gradientTransform="translate(454.5 453.5) rotate(90) scale(423.5)">
<stop offset="0.0993526" stop-color="#8B79FD"/>
<stop offset="0.427081" stop-color="#513CD5"/>
<stop offset="0.718753" stop-color="#8B79FD"/>
<stop offset="1" stop-color="#0B46F9"/>
</radialGradient>
<radialGradient id="paint2_radial_396_2369" cx="0" cy="0" r="1" gradientUnits="userSpaceOnUse" gradientTransform="translate(452.678 82) rotate(91.3336) scale(19.5053 30.5914)">
<stop offset="0.505" stop-color="#010101"/>
<stop offset="1" stop-color="#010101" stop-opacity="0"/>
</radialGradient>
<radialGradient id="paint3_radial_396_2369" cx="0" cy="0" r="1" gradientUnits="userSpaceOnUse" gradientTransform="translate(863.047 450) rotate(91.6679) scale(23.0552 45.2151)">
<stop offset="0.505" stop-color="#010101"/>
<stop offset="1" stop-color="#010101" stop-opacity="0"/>
</radialGradient>
<clipPath id="clip0_396_2369">
<rect width="909" height="907" fill="white"/>
</clipPath>
</defs>
</svg>
