<svg width="909" height="907" viewBox="0 0 909 907" fill="none" xmlns="http://www.w3.org/2000/svg">
<g filter="url(#filter0_f_396_1888)">
<path d="M65.1499 286.5C109.15 179 210.65 77.5 352.15 42.5" stroke="url(#paint0_linear_396_1888)" stroke-width="2"/>
</g>
<g filter="url(#filter1_ddd_396_1888)">
<rect x="427.65" y="427" width="52" height="52" rx="26" fill="#BCF85B"/>
<rect x="428.236" y="427.586" width="50.8281" height="50.8281" rx="25.4141" stroke="white" stroke-opacity="0.15" stroke-width="1.17188"/>
</g>
<g opacity="0.8">
<path d="M465.816 466.625C465.816 464.59 465.816 463.572 465.565 462.744C465 460.88 463.541 459.421 461.676 458.855C460.848 458.604 459.831 458.604 457.796 458.604H450.504C448.469 458.604 447.451 458.604 446.623 458.855C444.759 459.421 443.3 460.88 442.734 462.744C442.483 463.572 442.483 464.59 442.483 466.625M460.712 446.938C460.712 450.562 457.774 453.5 454.15 453.5C450.525 453.5 447.587 450.562 447.587 446.938C447.587 443.313 450.525 440.375 454.15 440.375C457.774 440.375 460.712 443.313 460.712 446.938Z" stroke="black" stroke-width="2" stroke-linecap="round" stroke-linejoin="round"/>
</g>
<g filter="url(#filter2_ddd_396_1888)">
<rect x="401.65" y="401" width="104" height="104" rx="52" fill="#15131D"/>
<rect x="402.822" y="402.171" width="101.656" height="101.656" rx="50.8281" stroke="white" stroke-opacity="0.15" stroke-width="2.34375"/>
</g>
<path d="M470.65 461C470.65 458.209 470.65 456.813 470.305 455.678C469.53 453.121 467.529 451.12 464.972 450.344C463.837 450 462.441 450 459.65 450H449.65C446.859 450 445.463 450 444.328 450.344C441.771 451.12 439.77 453.121 438.994 455.678C438.65 456.813 438.65 458.209 438.65 461M463.65 434C463.65 438.971 459.62 443 454.65 443C449.679 443 445.65 438.971 445.65 434C445.65 429.029 449.679 425 454.65 425C459.62 425 463.65 429.029 463.65 434Z" stroke="white" stroke-width="4" stroke-linecap="round" stroke-linejoin="round"/>
<g filter="url(#filter3_ddd_396_1888)">
<rect x="402" y="401" width="104" height="104" rx="52" fill="#15131D"/>
<rect x="403.172" y="402.172" width="101.656" height="101.656" rx="50.8281" stroke="white" stroke-opacity="0.15" stroke-width="2.34375"/>
</g>
<path d="M470 461C470 458.209 470 456.813 469.656 455.678C468.88 453.121 466.879 451.12 464.322 450.344C463.187 450 461.791 450 459 450H449C446.209 450 444.813 450 443.678 450.344C441.121 451.12 439.12 453.121 438.344 455.678C438 456.813 438 458.209 438 461M463 434C463 438.971 458.971 443 454 443C449.029 443 445 438.971 445 434C445 429.029 449.029 425 454 425C458.971 425 463 429.029 463 434Z" stroke="white" stroke-width="4" stroke-linecap="round" stroke-linejoin="round"/>
<circle opacity="0.25" cx="454.5" cy="453.5" r="302.5" stroke="white" stroke-opacity="0.4" stroke-width="3.41667"/>
<circle cx="454.5" cy="453.5" r="163.5" stroke="url(#paint1_angular_396_1888)" stroke-width="3.41667"/>
<circle opacity="0.25" cx="454.5" cy="453.5" r="423.5" stroke="white" stroke-opacity="0.4" stroke-width="3.41667"/>
<mask id="mask0_396_1888" style="mask-type:alpha" maskUnits="userSpaceOnUse" x="261" y="286" width="195" height="175">
<rect x="262.15" y="286.5" width="193" height="174" fill="#D9D9D9" stroke="white"/>
</mask>
<g mask="url(#mask0_396_1888)">
<g filter="url(#filter4_ddd_396_1888)">
<path d="M606 450.5C606 540.799 532.799 614 442.5 614C352.201 614 291 543.39 291 453.091C291 362.793 364.201 289.591 454.5 289.591C544.799 289.591 606 360.202 606 450.5Z" stroke="#353535" stroke-width="3.41667" shape-rendering="crispEdges"/>
</g>
<path d="M606 450.5C606 540.799 532.799 614 442.5 614C352.201 614 291 543.39 291 453.091C291 362.793 364.201 289.591 454.5 289.591C544.799 289.591 606 360.202 606 450.5Z" stroke="#010101" stroke-width="5"/>
</g>
<path d="M65.1499 286.5C109.15 179 210.65 77.5 352.15 42.5" stroke="url(#paint2_linear_396_1888)" stroke-width="2"/>
<path opacity="0.5" d="M454.65 399L454.65 318L454.65 329.711" stroke="#BCF85B" stroke-width="2"/>
<path opacity="0.5" d="M640.65 453H642.604V451H640.65V453ZM646.514 453H650.423V451H646.514V453ZM654.332 453H658.241V451H654.332V453ZM662.15 453H666.059V451H662.15V453ZM669.968 453H673.877V451H669.968V453ZM677.786 453H681.695V451H677.786V453ZM685.604 453H689.514V451H685.604V453ZM693.423 453H697.332V451H693.423V453ZM701.241 453H705.15V451H701.241V453ZM709.059 453H712.968V451H709.059V453ZM716.877 453H720.786V451H716.877V453ZM724.695 453H726.65V451H724.695V453Z" fill="#BCF85B"/>
<g opacity="0.8">
<path d="M569.981 352.31L584.379 355.149L587.218 340.75" stroke="#7853FF" stroke-width="2.37192" stroke-linecap="round" stroke-linejoin="round"/>
</g>
<g opacity="0.8">
<path d="M492.957 600.469L485.413 613.058L498.002 620.601" stroke="#7853FF" stroke-width="2.37192" stroke-linecap="round" stroke-linejoin="round"/>
</g>
<path d="M435.178 485L439.306 473.8H440.458L444.586 485H443.402L439.882 475.272L436.346 485H435.178ZM437.066 481.976L437.402 481.048H442.346L442.682 481.976H437.066ZM449.354 485.192C448.607 485.192 447.94 485.016 447.354 484.664C446.767 484.312 446.303 483.821 445.962 483.192C445.62 482.552 445.45 481.816 445.45 480.984C445.45 480.12 445.62 479.379 445.962 478.76C446.303 478.131 446.767 477.64 447.354 477.288C447.951 476.925 448.618 476.744 449.354 476.744C450.292 476.744 451.071 476.989 451.69 477.48C452.319 477.96 452.719 478.6 452.89 479.4H451.77C451.652 478.867 451.37 478.456 450.922 478.168C450.484 477.869 449.956 477.72 449.338 477.72C448.858 477.72 448.41 477.843 447.994 478.088C447.578 478.323 447.242 478.68 446.986 479.16C446.73 479.64 446.602 480.248 446.602 480.984C446.602 481.528 446.676 482.003 446.826 482.408C446.975 482.813 447.178 483.155 447.434 483.432C447.69 483.699 447.983 483.901 448.314 484.04C448.644 484.179 448.986 484.248 449.338 484.248C449.743 484.248 450.111 484.184 450.442 484.056C450.783 483.917 451.071 483.72 451.306 483.464C451.54 483.208 451.695 482.899 451.77 482.536H452.89C452.73 483.315 452.335 483.955 451.706 484.456C451.076 484.947 450.292 485.192 449.354 485.192ZM457.623 485C457.164 485 456.77 484.931 456.439 484.792C456.108 484.643 455.852 484.403 455.671 484.072C455.5 483.731 455.415 483.267 455.415 482.68V477.896H454.007V476.936H455.415L455.575 475.064H456.535V476.952H458.951V477.896H456.535V482.68C456.535 483.213 456.642 483.576 456.855 483.768C457.068 483.949 457.447 484.04 457.991 484.04H458.823V485H457.623ZM464.025 485.192C463.289 485.192 462.623 485.021 462.025 484.68C461.439 484.328 460.975 483.837 460.633 483.208C460.292 482.568 460.121 481.827 460.121 480.984C460.121 480.109 460.292 479.357 460.633 478.728C460.985 478.099 461.46 477.613 462.057 477.272C462.655 476.92 463.321 476.744 464.057 476.744C464.825 476.744 465.503 476.92 466.089 477.272C466.676 477.613 467.14 478.099 467.481 478.728C467.823 479.357 467.993 480.109 467.993 480.984C467.993 481.827 467.817 482.568 467.465 483.208C467.124 483.837 466.655 484.328 466.057 484.68C465.471 485.021 464.793 485.192 464.025 485.192ZM464.041 484.232C464.543 484.232 465.001 484.109 465.417 483.864C465.844 483.619 466.185 483.256 466.441 482.776C466.708 482.285 466.841 481.683 466.841 480.968C466.841 480.243 466.713 479.64 466.457 479.16C466.201 478.68 465.86 478.323 465.433 478.088C465.017 477.843 464.559 477.72 464.057 477.72C463.577 477.72 463.124 477.843 462.697 478.088C462.271 478.333 461.924 478.696 461.657 479.176C461.401 479.645 461.273 480.243 461.273 480.968C461.273 481.683 461.401 482.285 461.657 482.776C461.913 483.256 462.249 483.619 462.665 483.864C463.092 484.109 463.551 484.232 464.041 484.232ZM469.911 485V476.936H470.935L471.015 478.488C471.186 478.115 471.415 477.8 471.703 477.544C471.991 477.288 472.338 477.091 472.743 476.952C473.148 476.813 473.607 476.744 474.119 476.744V477.912H473.687C473.346 477.912 473.015 477.96 472.695 478.056C472.375 478.141 472.092 478.291 471.847 478.504C471.602 478.717 471.404 479.005 471.255 479.368C471.106 479.731 471.031 480.184 471.031 480.728V485H469.911Z" fill="#757185"/>
<path d="M426.897 255V243.8H430.353C431.217 243.8 431.921 243.944 432.465 244.232C433.02 244.52 433.425 244.909 433.681 245.4C433.937 245.88 434.065 246.429 434.065 247.048C434.065 247.645 433.932 248.195 433.665 248.696C433.399 249.187 432.988 249.581 432.433 249.88C431.879 250.168 431.159 250.312 430.273 250.312H428.017V255H426.897ZM432.849 255L430.337 249.96H431.617L434.193 255H432.849ZM428.017 249.4H430.273C431.18 249.4 431.847 249.181 432.273 248.744C432.7 248.307 432.913 247.741 432.913 247.048C432.913 246.333 432.705 245.773 432.289 245.368C431.873 244.952 431.196 244.744 430.257 244.744H428.017V249.4ZM439.148 255.192C438.401 255.192 437.74 255.016 437.164 254.664C436.598 254.312 436.15 253.821 435.82 253.192C435.5 252.552 435.34 251.805 435.34 250.952C435.34 250.099 435.5 249.357 435.82 248.728C436.14 248.099 436.588 247.613 437.164 247.272C437.75 246.92 438.422 246.744 439.18 246.744C439.958 246.744 440.614 246.92 441.148 247.272C441.692 247.624 442.102 248.083 442.38 248.648C442.668 249.213 442.812 249.832 442.812 250.504C442.812 250.611 442.812 250.723 442.812 250.84C442.812 250.947 442.806 251.075 442.796 251.224H436.188V250.28H441.724C441.702 249.459 441.446 248.824 440.956 248.376C440.476 247.928 439.868 247.704 439.132 247.704C438.652 247.704 438.204 247.816 437.788 248.04C437.382 248.253 437.052 248.573 436.796 249C436.55 249.416 436.428 249.944 436.428 250.584V251C436.428 251.725 436.556 252.328 436.812 252.808C437.068 253.288 437.404 253.645 437.82 253.88C438.246 254.115 438.689 254.232 439.148 254.232C439.756 254.232 440.257 254.099 440.652 253.832C441.046 253.555 441.329 253.176 441.5 252.696H442.604C442.465 253.165 442.241 253.592 441.932 253.976C441.633 254.36 441.249 254.659 440.78 254.872C440.31 255.085 439.766 255.192 439.148 255.192ZM447.765 258.712C447.05 258.712 446.415 258.616 445.861 258.424C445.317 258.232 444.885 257.944 444.565 257.56C444.255 257.176 444.101 256.701 444.101 256.136C444.101 255.912 444.138 255.667 444.213 255.4C444.298 255.144 444.458 254.883 444.693 254.616C444.927 254.349 445.258 254.109 445.685 253.896L446.597 254.296C446.031 254.563 445.663 254.851 445.493 255.16C445.322 255.48 445.237 255.768 445.237 256.024C445.237 256.408 445.343 256.728 445.557 256.984C445.781 257.24 446.079 257.432 446.453 257.56C446.837 257.699 447.274 257.768 447.765 257.768C448.255 257.768 448.677 257.693 449.029 257.544C449.391 257.405 449.669 257.203 449.861 256.936C450.053 256.68 450.149 256.381 450.149 256.04C450.149 255.645 449.994 255.309 449.685 255.032C449.386 254.765 448.826 254.611 448.005 254.568C447.354 254.525 446.815 254.472 446.389 254.408C445.973 254.333 445.626 254.248 445.349 254.152C445.082 254.045 444.858 253.933 444.677 253.816C444.506 253.699 444.341 253.571 444.181 253.432V253.064L445.717 251.608L446.741 251.976L445.237 253.32L445.333 252.888C445.45 252.973 445.562 253.053 445.669 253.128C445.786 253.203 445.935 253.267 446.117 253.32C446.309 253.363 446.57 253.411 446.901 253.464C447.242 253.507 447.701 253.549 448.277 253.592C449.013 253.645 449.599 253.773 450.037 253.976C450.474 254.179 450.794 254.451 450.997 254.792C451.199 255.133 451.301 255.533 451.301 255.992C451.301 256.451 451.173 256.888 450.917 257.304C450.671 257.72 450.287 258.056 449.765 258.312C449.253 258.579 448.586 258.712 447.765 258.712ZM447.749 252.44C447.066 252.44 446.49 252.312 446.021 252.056C445.562 251.8 445.21 251.459 444.965 251.032C444.719 250.595 444.597 250.115 444.597 249.592C444.597 249.059 444.719 248.579 444.965 248.152C445.21 247.725 445.567 247.384 446.037 247.128C446.506 246.872 447.077 246.744 447.749 246.744C448.431 246.744 449.002 246.872 449.461 247.128C449.93 247.384 450.282 247.725 450.517 248.152C450.762 248.579 450.885 249.059 450.885 249.592C450.885 250.115 450.762 250.595 450.517 251.032C450.282 251.459 449.93 251.8 449.461 252.056C449.002 252.312 448.431 252.44 447.749 252.44ZM447.749 251.48C448.367 251.48 448.853 251.32 449.205 251C449.567 250.669 449.749 250.2 449.749 249.592C449.749 248.973 449.567 248.504 449.205 248.184C448.853 247.864 448.367 247.704 447.749 247.704C447.13 247.704 446.634 247.864 446.261 248.184C445.898 248.504 445.717 248.973 445.717 249.592C445.717 250.2 445.898 250.669 446.261 251C446.623 251.32 447.119 251.48 447.749 251.48ZM449.061 247.944L448.661 246.936H451.925V247.848L449.061 247.944ZM453.633 255V246.936H454.737V255H453.633ZM454.193 245.032C453.969 245.032 453.777 244.957 453.617 244.808C453.457 244.648 453.377 244.451 453.377 244.216C453.377 243.971 453.452 243.779 453.601 243.64C453.761 243.491 453.953 243.416 454.177 243.416C454.401 243.416 454.593 243.491 454.753 243.64C454.913 243.779 454.993 243.971 454.993 244.216C454.993 244.451 454.913 244.648 454.753 244.808C454.604 244.957 454.417 245.032 454.193 245.032ZM460.136 255.192C459.496 255.192 458.931 255.085 458.44 254.872C457.96 254.659 457.571 254.355 457.272 253.96C456.984 253.555 456.808 253.075 456.744 252.52H457.896C457.96 252.829 458.083 253.112 458.264 253.368C458.456 253.624 458.712 253.832 459.032 253.992C459.352 254.141 459.731 254.216 460.168 254.216C460.573 254.216 460.904 254.157 461.16 254.04C461.427 253.912 461.624 253.747 461.752 253.544C461.891 253.331 461.96 253.096 461.96 252.84C461.96 252.488 461.875 252.216 461.704 252.024C461.544 251.821 461.309 251.672 461 251.576C460.691 251.48 460.317 251.389 459.88 251.304C459.517 251.24 459.171 251.155 458.84 251.048C458.509 250.941 458.211 250.803 457.944 250.632C457.688 250.461 457.485 250.248 457.336 249.992C457.187 249.725 457.112 249.416 457.112 249.064C457.112 248.605 457.224 248.205 457.448 247.864C457.683 247.512 458.013 247.24 458.44 247.048C458.867 246.845 459.368 246.744 459.944 246.744C460.765 246.744 461.437 246.952 461.96 247.368C462.483 247.773 462.787 248.371 462.872 249.16H461.752C461.709 248.723 461.528 248.376 461.208 248.12C460.888 247.864 460.456 247.736 459.912 247.736C459.379 247.736 458.968 247.848 458.68 248.072C458.403 248.285 458.264 248.579 458.264 248.952C458.264 249.187 458.339 249.389 458.488 249.56C458.637 249.731 458.856 249.88 459.144 250.008C459.443 250.125 459.805 250.227 460.232 250.312C460.744 250.408 461.213 250.536 461.64 250.696C462.077 250.845 462.429 251.08 462.696 251.4C462.973 251.709 463.112 252.152 463.112 252.728C463.123 253.208 463.005 253.635 462.76 254.008C462.515 254.381 462.168 254.675 461.72 254.888C461.272 255.091 460.744 255.192 460.136 255.192ZM467.763 255C467.305 255 466.91 254.931 466.579 254.792C466.249 254.643 465.993 254.403 465.811 254.072C465.641 253.731 465.555 253.267 465.555 252.68V247.896H464.147V246.936H465.555L465.715 245.064H466.675V246.952H469.091V247.896H466.675V252.68C466.675 253.213 466.782 253.576 466.995 253.768C467.209 253.949 467.587 254.04 468.131 254.04H468.963V255H467.763ZM470.832 255V246.936H471.856L471.936 248.488C472.107 248.115 472.336 247.8 472.624 247.544C472.912 247.288 473.259 247.091 473.664 246.952C474.07 246.813 474.528 246.744 475.04 246.744V247.912H474.608C474.267 247.912 473.936 247.96 473.616 248.056C473.296 248.141 473.014 248.291 472.768 248.504C472.523 248.717 472.326 249.005 472.176 249.368C472.027 249.731 471.952 250.184 471.952 250.728V255H470.832ZM477.446 258.52L479.43 254.104H478.998L475.814 246.936H477.03L479.782 253.336L482.678 246.936H483.83L478.614 258.52H477.446Z" fill="#757185"/>
<path d="M446.15 388.626L437.162 388.626L437.162 391.566L436.35 391.566L436.35 384.706L437.162 384.706L437.162 387.646L446.15 387.646L446.15 388.626ZM446.318 382.012C446.318 382.581 446.215 383.057 446.01 383.44C445.805 383.813 445.539 384.093 445.212 384.28C444.885 384.457 444.526 384.546 444.134 384.546C443.649 384.546 443.238 384.424 442.902 384.182C442.566 383.93 442.314 383.58 442.146 383.132C441.978 382.684 441.894 382.161 441.894 381.564L441.894 379.66C441.437 379.66 441.049 379.73 440.732 379.87C440.415 380.01 440.177 380.215 440.018 380.486C439.85 380.756 439.766 381.097 439.766 381.508C439.766 381.984 439.887 382.394 440.13 382.74C440.373 383.085 440.727 383.3 441.194 383.384L441.194 384.406C440.699 384.35 440.284 384.182 439.948 383.902C439.612 383.612 439.36 383.258 439.192 382.838C439.015 382.418 438.926 381.974 438.926 381.508C438.926 380.854 439.052 380.322 439.304 379.912C439.547 379.501 439.883 379.193 440.312 378.988C440.741 378.782 441.236 378.68 441.796 378.68L446.15 378.68L446.15 379.576L444.862 379.632C445.058 379.716 445.245 379.832 445.422 379.982C445.599 380.122 445.753 380.29 445.884 380.486C446.015 380.672 446.117 380.892 446.192 381.144C446.276 381.396 446.318 381.685 446.318 382.012ZM445.464 381.9C445.464 381.554 445.394 381.246 445.254 380.976C445.105 380.696 444.913 380.458 444.68 380.262C444.447 380.066 444.185 379.916 443.896 379.814C443.597 379.711 443.289 379.66 442.972 379.66L442.72 379.66L442.72 381.494C442.72 381.988 442.781 382.385 442.902 382.684C443.023 382.982 443.187 383.197 443.392 383.328C443.597 383.458 443.835 383.524 444.106 383.524C444.377 383.524 444.615 383.463 444.82 383.342C445.016 383.22 445.175 383.038 445.296 382.796C445.408 382.544 445.464 382.245 445.464 381.9ZM446.318 374.238C446.318 374.798 446.225 375.293 446.038 375.722C445.851 376.142 445.585 376.483 445.24 376.744C444.885 376.996 444.465 377.15 443.98 377.206L443.98 376.198C444.251 376.142 444.498 376.035 444.722 375.876C444.946 375.708 445.128 375.484 445.268 375.204C445.399 374.924 445.464 374.593 445.464 374.21C445.464 373.856 445.413 373.566 445.31 373.342C445.198 373.109 445.053 372.936 444.876 372.824C444.689 372.703 444.484 372.642 444.26 372.642C443.952 372.642 443.714 372.717 443.546 372.866C443.369 373.006 443.238 373.212 443.154 373.482C443.07 373.753 442.991 374.08 442.916 374.462C442.86 374.78 442.785 375.083 442.692 375.372C442.599 375.662 442.477 375.923 442.328 376.156C442.179 376.38 441.992 376.558 441.768 376.688C441.535 376.819 441.264 376.884 440.956 376.884C440.555 376.884 440.205 376.786 439.906 376.59C439.598 376.385 439.36 376.096 439.192 375.722C439.015 375.349 438.926 374.91 438.926 374.406C438.926 373.688 439.108 373.1 439.472 372.642C439.827 372.185 440.349 371.919 441.04 371.844L441.04 372.824C440.657 372.862 440.354 373.02 440.13 373.3C439.906 373.58 439.794 373.958 439.794 374.434C439.794 374.901 439.892 375.26 440.088 375.512C440.275 375.755 440.531 375.876 440.858 375.876C441.063 375.876 441.241 375.811 441.39 375.68C441.539 375.55 441.67 375.358 441.782 375.106C441.885 374.845 441.973 374.528 442.048 374.154C442.132 373.706 442.244 373.296 442.384 372.922C442.515 372.54 442.72 372.232 443 371.998C443.271 371.756 443.658 371.634 444.162 371.634C444.582 371.625 444.955 371.728 445.282 371.942C445.609 372.157 445.865 372.46 446.052 372.852C446.229 373.244 446.318 373.706 446.318 374.238ZM446.15 365.627L442.286 369.085L439.094 365.921L439.094 364.703L442.608 368.217L441.95 368.203L446.15 364.367L446.15 365.627ZM446.15 369.897L436.07 369.897L436.07 368.917L446.15 368.917L446.15 369.897ZM446.318 360.936C446.318 361.496 446.225 361.99 446.038 362.42C445.851 362.84 445.585 363.18 445.24 363.442C444.885 363.694 444.465 363.848 443.98 363.904L443.98 362.896C444.251 362.84 444.498 362.732 444.722 362.574C444.946 362.406 445.128 362.182 445.268 361.902C445.399 361.622 445.464 361.29 445.464 360.908C445.464 360.553 445.413 360.264 445.31 360.04C445.198 359.806 445.053 359.634 444.876 359.522C444.689 359.4 444.484 359.34 444.26 359.34C443.952 359.34 443.714 359.414 443.546 359.564C443.369 359.704 443.238 359.909 443.154 360.18C443.07 360.45 442.991 360.777 442.916 361.16C442.86 361.477 442.785 361.78 442.692 362.07C442.599 362.359 442.477 362.62 442.328 362.854C442.179 363.078 441.992 363.255 441.768 363.386C441.535 363.516 441.264 363.582 440.956 363.582C440.555 363.582 440.205 363.484 439.906 363.288C439.598 363.082 439.36 362.793 439.192 362.42C439.015 362.046 438.926 361.608 438.926 361.104C438.926 360.385 439.108 359.797 439.472 359.34C439.827 358.882 440.349 358.616 441.04 358.542L441.04 359.522C440.657 359.559 440.354 359.718 440.13 359.998C439.906 360.278 439.794 360.656 439.794 361.132C439.794 361.598 439.892 361.958 440.088 362.21C440.275 362.452 440.531 362.574 440.858 362.574C441.063 362.574 441.241 362.508 441.39 362.378C441.539 362.247 441.67 362.056 441.782 361.804C441.885 361.542 441.973 361.225 442.048 360.852C442.132 360.404 442.244 359.993 442.384 359.62C442.515 359.237 442.72 358.929 443 358.696C443.271 358.453 443.658 358.332 444.162 358.332C444.582 358.322 444.955 358.425 445.282 358.64C445.609 358.854 445.865 359.158 446.052 359.55C446.229 359.942 446.318 360.404 446.318 360.936Z" fill="#757185"/>
<circle cx="601.15" cy="391.5" r="16.5" fill="#8B79FD" stroke="#47415E" stroke-width="2"/>
<g opacity="0.8">
<path d="M596.317 388.667H606.983M606.983 388.667L604.317 391.333M606.983 388.667L604.317 386M606.983 395.333H596.317M596.317 395.333L598.983 398M596.317 395.333L598.983 392.667" stroke="black" stroke-linecap="round" stroke-linejoin="round"/>
</g>
<circle cx="295.15" cy="468.5" r="16.5" fill="#15131D" stroke="#47415E" stroke-width="2"/>
<g opacity="0.8">
<path d="M291.65 473.667C290.177 473.667 288.983 472.473 288.983 471C288.983 469.757 289.833 468.713 290.984 468.417C290.983 468.389 290.983 468.361 290.983 468.333C290.983 465.756 293.072 463.667 295.65 463.667C298.056 463.667 300.037 465.488 300.289 467.828C301.469 468.232 302.316 469.35 302.316 470.667C302.316 472.323 300.973 473.667 299.316 473.667C296.824 473.667 294.442 473.667 291.65 473.667Z" stroke="#8B79FD" stroke-linecap="round" stroke-linejoin="round"/>
</g>
<circle cx="613.15" cy="416.5" r="16.5" fill="#8B79FD" stroke="#47415E" stroke-width="2"/>
<g opacity="0.8">
<path d="M608.317 413.667H618.983M618.983 413.667L616.317 416.333M618.983 413.667L616.317 411M618.983 420.333H608.317M608.317 420.333L610.983 423M608.317 420.333L610.983 417.667" stroke="black" stroke-linecap="round" stroke-linejoin="round"/>
</g>
<circle cx="303.15" cy="499.5" r="16.5" fill="#15131D" stroke="#47415E" stroke-width="2"/>
<g opacity="0.8">
<path d="M299.65 504.667C298.177 504.667 296.983 503.473 296.983 502C296.983 500.757 297.833 499.713 298.984 499.417C298.983 499.389 298.983 499.361 298.983 499.333C298.983 496.756 301.072 494.667 303.65 494.667C306.056 494.667 308.037 496.488 308.289 498.828C309.469 499.232 310.316 500.35 310.316 501.667C310.316 503.323 308.973 504.667 307.316 504.667C304.824 504.667 302.442 504.667 299.65 504.667Z" stroke="#8B79FD" stroke-linecap="round" stroke-linejoin="round"/>
</g>
<circle cx="615.65" cy="453" r="24" fill="#8B79FD" stroke="#47415E" stroke-width="2"/>
<g opacity="0.8">
<path d="M608.65 448H624.65M624.65 448L620.65 452M624.65 448L620.65 444M624.65 458H608.65M608.65 458L612.65 462M608.65 458L612.65 454" stroke="black" stroke-width="2" stroke-linecap="round" stroke-linejoin="round"/>
</g>
<circle cx="320.65" cy="531" r="24" fill="#15131D" stroke="#47415E" stroke-width="2"/>
<g opacity="0.8">
<path d="M315.65 538C313.441 538 311.65 536.209 311.65 534C311.65 532.136 312.925 530.569 314.651 530.126C314.65 530.084 314.65 530.042 314.65 530C314.65 526.134 317.784 523 321.65 523C325.26 523 328.231 525.732 328.609 529.242C330.378 529.848 331.65 531.526 331.65 533.5C331.65 535.985 329.635 538 327.15 538C323.411 538 319.838 538 315.65 538Z" stroke="#8B79FD" stroke-width="2" stroke-linecap="round" stroke-linejoin="round"/>
</g>
<rect x="428.4" y="266.75" width="50.5" height="50.5" rx="15.25" fill="#010101"/>
<rect x="428.4" y="266.75" width="50.5" height="50.5" rx="15.25" stroke="#BCF85B" stroke-width="1.5"/>
<rect x="731.4" y="426.75" width="50.5" height="50.5" rx="15.25" fill="#010101"/>
<rect x="731.4" y="426.75" width="50.5" height="50.5" rx="15.25" stroke="#FA1980" stroke-width="1.5"/>
<g opacity="0.8">
<path d="M764.442 459.792L771.733 452.5L764.442 445.208M749.858 445.208L742.567 452.5L749.858 459.792M760.067 439.375L754.233 465.625" stroke="#FA1980" stroke-width="2" stroke-linecap="round" stroke-linejoin="round"/>
</g>
<g opacity="0.8">
<path d="M467.275 292.5L449.775 292.5M467.275 283.75L449.775 283.75M467.275 301.25L449.775 301.25M443.942 292.5C443.942 293.305 443.289 293.958 442.483 293.958C441.678 293.958 441.025 293.305 441.025 292.5C441.025 291.694 441.678 291.042 442.483 291.042C443.289 291.042 443.942 291.694 443.942 292.5ZM443.942 283.75C443.942 284.555 443.289 285.208 442.483 285.208C441.678 285.208 441.025 284.555 441.025 283.75C441.025 282.944 441.678 282.292 442.483 282.292C443.289 282.292 443.942 282.944 443.942 283.75ZM443.942 301.25C443.942 302.055 443.289 302.708 442.483 302.708C441.678 302.708 441.025 302.055 441.025 301.25C441.025 300.444 441.678 299.792 442.483 299.792C443.289 299.792 443.942 300.444 443.942 301.25Z" stroke="#BCF85B" stroke-width="2" stroke-linecap="round" stroke-linejoin="round"/>
</g>
<path d="M555.074 305.139L560.357 297.867L557.978 296.139L558.455 295.482L564.005 299.514L563.528 300.171L561.149 298.443L555.867 305.715L555.074 305.139Z" fill="#757185"/>
<path d="M560.744 309.749C560.311 309.38 560.015 308.993 559.857 308.588C559.705 308.19 559.665 307.806 559.734 307.436C559.811 307.073 559.977 306.741 560.231 306.443C560.545 306.073 560.904 305.839 561.307 305.741C561.716 305.648 562.146 305.684 562.596 305.846C563.046 306.009 563.499 306.283 563.953 306.671L565.403 307.905C565.7 307.557 565.897 307.216 565.996 306.884C566.096 306.552 566.094 306.237 565.99 305.941C565.893 305.638 565.688 305.353 565.376 305.087C565.013 304.778 564.622 304.604 564.202 304.565C563.781 304.526 563.388 304.657 563.021 304.958L562.243 304.295C562.607 303.955 563.004 303.748 563.435 303.673C563.873 303.605 564.306 303.643 564.735 303.787C565.17 303.925 565.565 304.145 565.92 304.447C566.418 304.871 566.741 305.311 566.89 305.77C567.046 306.221 567.062 306.676 566.94 307.136C566.818 307.596 566.576 308.039 566.213 308.466L563.39 311.781L562.708 311.2L563.5 310.183C563.309 310.278 563.099 310.344 562.871 310.382C562.649 310.427 562.421 310.435 562.188 310.407C561.961 310.386 561.727 310.322 561.487 310.215C561.241 310.116 560.993 309.96 560.744 309.749ZM561.383 309.171C561.646 309.395 561.926 309.541 562.223 309.61C562.533 309.678 562.838 309.687 563.139 309.636C563.439 309.585 563.722 309.483 563.988 309.329C564.26 309.169 564.498 308.967 564.704 308.726L564.868 308.534L563.471 307.345C563.095 307.024 562.753 306.813 562.447 306.712C562.141 306.611 561.872 306.596 561.639 306.668C561.407 306.739 561.202 306.878 561.027 307.084C560.852 307.29 560.743 307.511 560.703 307.746C560.668 307.974 560.704 308.213 560.81 308.462C560.929 308.711 561.12 308.947 561.383 309.171Z" fill="#757185"/>
<path d="M566.73 315.221C566.333 314.827 566.048 314.412 565.875 313.977C565.708 313.548 565.654 313.12 565.712 312.69C565.783 312.261 565.97 311.855 566.272 311.471L566.987 312.181C566.836 312.413 566.738 312.664 566.693 312.935C566.654 313.212 566.685 313.499 566.785 313.795C566.892 314.086 567.081 314.365 567.352 314.635C567.604 314.885 567.845 315.052 568.076 315.137C568.321 315.222 568.545 315.241 568.75 315.195C568.967 315.148 569.155 315.045 569.313 314.886C569.53 314.667 569.645 314.446 569.657 314.221C569.683 313.997 569.629 313.759 569.496 313.509C569.364 313.259 569.188 312.972 568.969 312.65C568.783 312.386 568.621 312.12 568.481 311.849C568.342 311.579 568.242 311.309 568.181 311.039C568.128 310.775 568.133 310.517 568.198 310.266C568.27 310.009 568.415 309.771 568.632 309.552C568.914 309.267 569.231 309.088 569.58 309.014C569.943 308.941 570.316 308.976 570.699 309.119C571.089 309.257 571.463 309.503 571.82 309.858C572.33 310.365 572.619 310.908 572.687 311.489C572.762 312.062 572.582 312.621 572.148 313.163L571.453 312.473C571.696 312.175 571.797 311.848 571.757 311.492C571.716 311.135 571.526 310.79 571.189 310.454C570.858 310.125 570.534 309.942 570.217 309.903C569.913 309.865 569.646 309.961 569.416 310.193C569.271 310.339 569.193 310.511 569.18 310.709C569.167 310.907 569.211 311.134 569.311 311.391C569.424 311.648 569.587 311.935 569.799 312.251C570.058 312.626 570.27 312.995 570.436 313.357C570.616 313.72 570.69 314.082 570.658 314.446C570.639 314.809 570.452 315.169 570.097 315.527C569.808 315.831 569.472 316.024 569.09 316.104C568.707 316.185 568.311 316.153 567.901 316.009C567.498 315.859 567.108 315.596 566.73 315.221Z" fill="#757185"/>
<path d="M572.434 321.139L573.057 315.991L577.543 316.264L578.346 317.179L573.387 316.856L573.891 316.432L573.265 322.086L572.434 321.139ZM569.617 317.929L577.194 311.281L577.84 312.017L570.263 318.666L569.617 317.929Z" fill="#757185"/>
<path d="M575.461 325.223C575.122 324.777 574.898 324.326 574.787 323.871C574.683 323.424 574.689 322.992 574.806 322.575C574.937 322.16 575.178 321.783 575.531 321.446L576.14 322.249C575.958 322.457 575.826 322.692 575.743 322.954C575.666 323.223 575.656 323.511 575.714 323.819C575.779 324.121 575.927 324.425 576.158 324.73C576.372 325.012 576.588 325.212 576.805 325.329C577.035 325.447 577.255 325.497 577.464 325.479C577.686 325.463 577.886 325.388 578.065 325.252C578.31 325.066 578.455 324.863 578.498 324.643C578.555 324.424 578.535 324.181 578.439 323.915C578.342 323.648 578.208 323.34 578.037 322.99C577.89 322.703 577.766 322.416 577.666 322.129C577.565 321.842 577.504 321.561 577.482 321.285C577.466 321.016 577.508 320.762 577.607 320.522C577.714 320.277 577.891 320.062 578.136 319.876C578.456 319.633 578.794 319.5 579.151 319.476C579.52 319.454 579.884 319.541 580.244 319.737C580.611 319.927 580.946 320.223 581.251 320.625C581.685 321.198 581.895 321.776 581.881 322.361C581.874 322.939 581.618 323.467 581.113 323.944L580.521 323.163C580.804 322.902 580.95 322.592 580.959 322.234C580.968 321.875 580.829 321.506 580.542 321.127C580.26 320.755 579.965 320.528 579.657 320.445C579.361 320.364 579.083 320.423 578.823 320.62C578.659 320.744 578.557 320.903 578.517 321.098C578.477 321.292 578.489 321.523 578.552 321.792C578.628 322.062 578.749 322.369 578.915 322.711C579.118 323.119 579.277 323.514 579.391 323.896C579.518 324.28 579.54 324.65 579.458 325.005C579.389 325.361 579.153 325.692 578.752 325.997C578.422 326.258 578.063 326.401 577.673 326.427C577.283 326.454 576.895 326.367 576.51 326.167C576.132 325.962 575.782 325.647 575.461 325.223Z" fill="#757185"/>
<path d="M515.762 593.945L511.295 589.772L512.502 589.462L516.969 593.635L515.762 593.945ZM512.896 593.48C511.992 593.712 511.145 593.713 510.353 593.482C509.559 593.242 508.874 592.806 508.298 592.174C507.728 591.53 507.318 590.719 507.067 589.743C506.819 588.776 506.791 587.877 506.983 587.048C507.182 586.206 507.571 585.49 508.152 584.898C508.732 584.306 509.474 583.894 510.378 583.662C511.31 583.423 512.172 583.423 512.966 583.663C513.76 583.903 514.437 584.346 514.998 584.992C515.565 585.627 515.973 586.428 516.221 587.395C516.471 588.372 516.502 589.279 516.312 590.118C516.129 590.945 515.748 591.655 515.167 592.247C514.585 592.83 513.828 593.241 512.896 593.48ZM512.698 592.649C513.412 592.466 513.999 592.142 514.458 591.678C514.917 591.213 515.218 590.64 515.361 589.957C515.501 589.266 515.463 588.496 515.245 587.646C515.027 586.796 514.691 586.106 514.237 585.577C513.783 585.048 513.244 584.69 512.618 584.504C511.992 584.318 511.322 584.316 510.608 584.499C509.893 584.682 509.307 585.006 508.848 585.471C508.389 585.935 508.083 586.51 507.931 587.195C507.788 587.877 507.826 588.643 508.044 589.493C508.262 590.342 508.599 591.037 509.055 591.575C509.517 592.102 510.062 592.458 510.688 592.645C511.314 592.831 511.984 592.833 512.698 592.649Z" fill="#757185"/>
<path d="M522.313 590.603C521.813 590.784 521.335 590.848 520.879 590.794C520.428 590.729 520.025 590.533 519.668 590.205C519.308 589.869 519.012 589.381 518.78 588.74L517.327 584.725L518.249 584.391L519.664 588.301C519.918 589.003 520.26 589.47 520.691 589.701C521.131 589.929 521.627 589.943 522.18 589.743C522.575 589.6 522.893 589.381 523.133 589.085C523.383 588.786 523.53 588.425 523.575 588.002C523.626 587.567 523.556 587.086 523.366 586.559L522.079 583.005L523.001 582.671L525.402 589.306L524.56 589.611L524.078 588.445C524.023 588.952 523.837 589.396 523.519 589.779C523.206 590.151 522.805 590.425 522.313 590.603Z" fill="#757185"/>
<path d="M530.584 587.245C529.99 587.516 529.399 587.616 528.813 587.544C528.235 587.469 527.7 587.241 527.209 586.86C526.722 586.466 526.323 585.93 526.014 585.25C525.704 584.571 525.563 583.923 525.589 583.305C525.616 582.688 525.796 582.139 526.131 581.658C526.471 581.165 526.942 580.781 527.545 580.507C528.165 580.224 528.751 580.126 529.303 580.213C529.864 580.296 530.358 580.512 530.784 580.862C531.218 581.207 531.557 581.648 531.801 582.183C531.84 582.268 531.88 582.357 531.923 582.45C531.961 582.535 532.004 582.639 532.049 582.762L526.788 585.159L526.445 584.408L530.853 582.399C530.538 581.753 530.104 581.34 529.551 581.162C529.006 580.979 528.441 581.021 527.855 581.288C527.473 581.463 527.157 581.714 526.907 582.044C526.661 582.36 526.514 582.735 526.465 583.168C526.421 583.588 526.514 584.053 526.747 584.563L526.898 584.894C527.161 585.471 527.481 585.905 527.859 586.194C528.237 586.483 528.634 586.646 529.051 586.682C529.476 586.714 529.871 586.647 530.236 586.48C530.72 586.26 531.071 585.972 531.288 585.616C531.502 585.252 531.59 584.848 531.551 584.404L532.43 584.004C532.49 584.428 532.467 584.849 532.36 585.267C532.261 585.681 532.064 586.058 531.768 586.398C531.471 586.738 531.077 587.02 530.584 587.245Z" fill="#757185"/>
<path d="M535.193 584.836L531.836 578.629L532.624 578.203L533.332 579.364C533.307 579.006 533.353 578.668 533.468 578.351C533.583 578.035 533.768 577.738 534.022 577.463C534.276 577.187 534.6 576.943 534.994 576.73L535.481 577.629L535.148 577.809C534.886 577.951 534.651 578.125 534.445 578.333C534.234 578.531 534.079 578.764 533.979 579.03C533.879 579.297 533.847 579.6 533.883 579.942C533.919 580.283 534.05 580.663 534.276 581.082L536.055 584.369L535.193 584.836Z" fill="#757185"/>
<path d="M543.122 583.915L542.509 579.723L542.191 579.926L536.47 576.134L537.368 575.562L542.408 578.991L541.535 572.906L542.385 572.365L543.984 583.365L543.122 583.915Z" fill="#757185"/>
<g filter="url(#filter5_bdi_396_1888)">
<circle cx="455.65" cy="319" r="6" fill="#F8F8F8" fill-opacity="0.01" shape-rendering="crispEdges"/>
<circle cx="455.65" cy="319" r="6" fill="#121212" fill-opacity="0.3" shape-rendering="crispEdges"/>
<circle cx="455.65" cy="319" r="5.25" stroke="url(#paint3_linear_396_1888)" stroke-opacity="0.25" stroke-width="1.5" shape-rendering="crispEdges"/>
</g>
<circle cx="455.65" cy="319" r="3" fill="#BCF85B"/>
<rect x="284.65" y="547" width="76" height="44" rx="22" fill="url(#paint4_radial_396_1888)"/>
<path d="M300.826 574.192C299.759 574.192 298.821 573.952 298.01 573.472C297.199 572.981 296.565 572.304 296.106 571.44C295.658 570.565 295.434 569.552 295.434 568.4C295.434 567.259 295.658 566.256 296.106 565.392C296.565 564.517 297.199 563.835 298.01 563.344C298.821 562.853 299.759 562.608 300.826 562.608C301.925 562.608 302.879 562.853 303.69 563.344C304.501 563.835 305.125 564.517 305.562 565.392C306.01 566.256 306.234 567.259 306.234 568.4C306.234 569.552 306.01 570.565 305.562 571.44C305.125 572.304 304.501 572.981 303.69 573.472C302.879 573.952 301.925 574.192 300.826 574.192ZM300.842 573.216C301.685 573.216 302.426 573.024 303.066 572.64C303.706 572.256 304.202 571.707 304.554 570.992C304.906 570.267 305.082 569.403 305.082 568.4C305.082 567.397 304.906 566.539 304.554 565.824C304.202 565.109 303.706 564.56 303.066 564.176C302.426 563.792 301.685 563.6 300.842 563.6C299.999 563.6 299.258 563.792 298.618 564.176C297.978 564.56 297.477 565.109 297.114 565.824C296.762 566.539 296.586 567.397 296.586 568.4C296.586 569.403 296.762 570.267 297.114 570.992C297.477 571.707 297.978 572.256 298.618 572.64C299.258 573.024 299.999 573.216 300.842 573.216ZM308.161 574V565.936H309.185L309.265 567.488C309.436 567.115 309.665 566.8 309.953 566.544C310.241 566.288 310.588 566.091 310.993 565.952C311.398 565.813 311.857 565.744 312.369 565.744V566.912H311.937C311.596 566.912 311.265 566.96 310.945 567.056C310.625 567.141 310.342 567.291 310.097 567.504C309.852 567.717 309.654 568.005 309.505 568.368C309.356 568.731 309.281 569.184 309.281 569.728V574H308.161ZM316.518 574.192C315.867 574.192 315.323 574.075 314.886 573.84C314.459 573.605 314.139 573.301 313.926 572.928C313.723 572.555 313.622 572.144 313.622 571.696C313.622 571.141 313.761 570.672 314.038 570.288C314.326 569.904 314.726 569.616 315.238 569.424C315.75 569.232 316.347 569.136 317.03 569.136H319.206C319.206 568.613 319.126 568.171 318.966 567.808C318.806 567.445 318.571 567.173 318.262 566.992C317.953 566.8 317.563 566.704 317.094 566.704C316.55 566.704 316.081 566.843 315.686 567.12C315.291 567.397 315.046 567.803 314.95 568.336H313.782C313.846 567.771 314.038 567.296 314.358 566.912C314.689 566.528 315.094 566.24 315.574 566.048C316.054 565.845 316.561 565.744 317.094 565.744C317.841 565.744 318.449 565.888 318.918 566.176C319.387 566.453 319.739 566.837 319.974 567.328C320.209 567.819 320.326 568.384 320.326 569.024V574H319.302L319.238 572.528C319.142 572.752 319.009 572.965 318.838 573.168C318.678 573.371 318.486 573.547 318.262 573.696C318.049 573.845 317.798 573.963 317.51 574.048C317.222 574.144 316.891 574.192 316.518 574.192ZM316.646 573.216C317.041 573.216 317.393 573.136 317.702 572.976C318.022 572.805 318.294 572.587 318.518 572.32C318.742 572.053 318.913 571.755 319.03 571.424C319.147 571.083 319.206 570.731 319.206 570.368V570.08H317.11C316.545 570.08 316.091 570.149 315.75 570.288C315.409 570.427 315.163 570.613 315.014 570.848C314.865 571.083 314.79 571.355 314.79 571.664C314.79 571.973 314.859 572.245 314.998 572.48C315.137 572.704 315.345 572.885 315.622 573.024C315.91 573.152 316.251 573.216 316.646 573.216ZM325.994 574.192C325.247 574.192 324.581 574.016 323.994 573.664C323.407 573.312 322.943 572.821 322.602 572.192C322.261 571.552 322.09 570.816 322.09 569.984C322.09 569.12 322.261 568.379 322.602 567.76C322.943 567.131 323.407 566.64 323.994 566.288C324.591 565.925 325.258 565.744 325.994 565.744C326.933 565.744 327.711 565.989 328.33 566.48C328.959 566.96 329.359 567.6 329.53 568.4H328.41C328.293 567.867 328.01 567.456 327.562 567.168C327.125 566.869 326.597 566.72 325.978 566.72C325.498 566.72 325.05 566.843 324.634 567.088C324.218 567.323 323.882 567.68 323.626 568.16C323.37 568.64 323.242 569.248 323.242 569.984C323.242 570.528 323.317 571.003 323.466 571.408C323.615 571.813 323.818 572.155 324.074 572.432C324.33 572.699 324.623 572.901 324.954 573.04C325.285 573.179 325.626 573.248 325.978 573.248C326.383 573.248 326.751 573.184 327.082 573.056C327.423 572.917 327.711 572.72 327.946 572.464C328.181 572.208 328.335 571.899 328.41 571.536H329.53C329.37 572.315 328.975 572.955 328.346 573.456C327.717 573.947 326.933 574.192 325.994 574.192ZM331.458 574V562.48H332.578V574H331.458ZM338.304 574.192C337.558 574.192 336.896 574.016 336.32 573.664C335.755 573.312 335.307 572.821 334.976 572.192C334.656 571.552 334.496 570.805 334.496 569.952C334.496 569.099 334.656 568.357 334.976 567.728C335.296 567.099 335.744 566.613 336.32 566.272C336.907 565.92 337.579 565.744 338.336 565.744C339.115 565.744 339.771 565.92 340.304 566.272C340.848 566.624 341.259 567.083 341.536 567.648C341.824 568.213 341.968 568.832 341.968 569.504C341.968 569.611 341.968 569.723 341.968 569.84C341.968 569.947 341.963 570.075 341.952 570.224H335.344V569.28H340.88C340.859 568.459 340.603 567.824 340.112 567.376C339.632 566.928 339.024 566.704 338.288 566.704C337.808 566.704 337.36 566.816 336.944 567.04C336.539 567.253 336.208 567.573 335.952 568C335.707 568.416 335.584 568.944 335.584 569.584V570C335.584 570.725 335.712 571.328 335.968 571.808C336.224 572.288 336.56 572.645 336.976 572.88C337.403 573.115 337.846 573.232 338.304 573.232C338.912 573.232 339.414 573.099 339.808 572.832C340.203 572.555 340.486 572.176 340.656 571.696H341.76C341.622 572.165 341.398 572.592 341.088 572.976C340.79 573.36 340.406 573.659 339.936 573.872C339.467 574.085 338.923 574.192 338.304 574.192ZM346.762 574.192C346.122 574.192 345.556 574.085 345.066 573.872C344.586 573.659 344.196 573.355 343.898 572.96C343.61 572.555 343.434 572.075 343.37 571.52H344.522C344.586 571.829 344.708 572.112 344.89 572.368C345.082 572.624 345.338 572.832 345.658 572.992C345.978 573.141 346.356 573.216 346.794 573.216C347.199 573.216 347.53 573.157 347.786 573.04C348.052 572.912 348.25 572.747 348.378 572.544C348.516 572.331 348.586 572.096 348.586 571.84C348.586 571.488 348.5 571.216 348.33 571.024C348.17 570.821 347.935 570.672 347.626 570.576C347.316 570.48 346.943 570.389 346.506 570.304C346.143 570.24 345.796 570.155 345.466 570.048C345.135 569.941 344.836 569.803 344.57 569.632C344.314 569.461 344.111 569.248 343.962 568.992C343.812 568.725 343.738 568.416 343.738 568.064C343.738 567.605 343.85 567.205 344.074 566.864C344.308 566.512 344.639 566.24 345.066 566.048C345.492 565.845 345.994 565.744 346.57 565.744C347.391 565.744 348.063 565.952 348.586 566.368C349.108 566.773 349.412 567.371 349.498 568.16H348.378C348.335 567.723 348.154 567.376 347.834 567.12C347.514 566.864 347.082 566.736 346.538 566.736C346.004 566.736 345.594 566.848 345.306 567.072C345.028 567.285 344.89 567.579 344.89 567.952C344.89 568.187 344.964 568.389 345.114 568.56C345.263 568.731 345.482 568.88 345.77 569.008C346.068 569.125 346.431 569.227 346.858 569.312C347.37 569.408 347.839 569.536 348.266 569.696C348.703 569.845 349.055 570.08 349.322 570.4C349.599 570.709 349.738 571.152 349.738 571.728C349.748 572.208 349.631 572.635 349.386 573.008C349.14 573.381 348.794 573.675 348.346 573.888C347.898 574.091 347.37 574.192 346.762 574.192Z" fill="#757185"/>
<rect x="574.65" y="475" width="81" height="44" rx="22" fill="url(#paint5_radial_396_1888)"/>
<path d="M585.898 502V490.8H589.354C590.218 490.8 590.922 490.944 591.466 491.232C592.021 491.52 592.426 491.909 592.682 492.4C592.938 492.88 593.066 493.429 593.066 494.048C593.066 494.645 592.933 495.195 592.666 495.696C592.399 496.187 591.989 496.581 591.434 496.88C590.879 497.168 590.159 497.312 589.274 497.312H587.018V502H585.898ZM591.85 502L589.338 496.96H590.618L593.194 502H591.85ZM587.018 496.4H589.274C590.181 496.4 590.847 496.181 591.274 495.744C591.701 495.307 591.914 494.741 591.914 494.048C591.914 493.333 591.706 492.773 591.29 492.368C590.874 491.952 590.197 491.744 589.258 491.744H587.018V496.4ZM598.148 502.192C597.401 502.192 596.74 502.016 596.164 501.664C595.599 501.312 595.151 500.821 594.82 500.192C594.5 499.552 594.34 498.805 594.34 497.952C594.34 497.099 594.5 496.357 594.82 495.728C595.14 495.099 595.588 494.613 596.164 494.272C596.751 493.92 597.423 493.744 598.18 493.744C598.959 493.744 599.615 493.92 600.148 494.272C600.692 494.624 601.103 495.083 601.38 495.648C601.668 496.213 601.812 496.832 601.812 497.504C601.812 497.611 601.812 497.723 601.812 497.84C601.812 497.947 601.807 498.075 601.796 498.224H595.188V497.28H600.724C600.703 496.459 600.447 495.824 599.956 495.376C599.476 494.928 598.868 494.704 598.132 494.704C597.652 494.704 597.204 494.816 596.788 495.04C596.383 495.253 596.052 495.573 595.796 496C595.551 496.416 595.428 496.944 595.428 497.584V498C595.428 498.725 595.556 499.328 595.812 499.808C596.068 500.288 596.404 500.645 596.82 500.88C597.247 501.115 597.689 501.232 598.148 501.232C598.756 501.232 599.257 501.099 599.652 500.832C600.047 500.555 600.329 500.176 600.5 499.696H601.604C601.465 500.165 601.241 500.592 600.932 500.976C600.633 501.36 600.249 501.659 599.78 501.872C599.311 502.085 598.767 502.192 598.148 502.192ZM603.645 502V490.48H604.765V502H603.645ZM609.612 502.192C608.961 502.192 608.417 502.075 607.98 501.84C607.553 501.605 607.233 501.301 607.02 500.928C606.817 500.555 606.716 500.144 606.716 499.696C606.716 499.141 606.855 498.672 607.132 498.288C607.42 497.904 607.82 497.616 608.332 497.424C608.844 497.232 609.441 497.136 610.124 497.136H612.3C612.3 496.613 612.22 496.171 612.06 495.808C611.9 495.445 611.665 495.173 611.356 494.992C611.047 494.8 610.657 494.704 610.188 494.704C609.644 494.704 609.175 494.843 608.78 495.12C608.385 495.397 608.14 495.803 608.044 496.336H606.876C606.94 495.771 607.132 495.296 607.452 494.912C607.783 494.528 608.188 494.24 608.668 494.048C609.148 493.845 609.655 493.744 610.188 493.744C610.935 493.744 611.543 493.888 612.012 494.176C612.481 494.453 612.833 494.837 613.068 495.328C613.303 495.819 613.42 496.384 613.42 497.024V502H612.396L612.332 500.528C612.236 500.752 612.103 500.965 611.932 501.168C611.772 501.371 611.58 501.547 611.356 501.696C611.143 501.845 610.892 501.963 610.604 502.048C610.316 502.144 609.985 502.192 609.612 502.192ZM609.74 501.216C610.135 501.216 610.487 501.136 610.796 500.976C611.116 500.805 611.388 500.587 611.612 500.32C611.836 500.053 612.007 499.755 612.124 499.424C612.241 499.083 612.3 498.731 612.3 498.368V498.08H610.204C609.639 498.08 609.185 498.149 608.844 498.288C608.503 498.427 608.257 498.613 608.108 498.848C607.959 499.083 607.884 499.355 607.884 499.664C607.884 499.973 607.953 500.245 608.092 500.48C608.231 500.704 608.439 500.885 608.716 501.024C609.004 501.152 609.345 501.216 609.74 501.216ZM616.149 505.52L618.133 501.104H617.701L614.517 493.936H615.733L618.485 500.336L621.381 493.936H622.533L617.317 505.52H616.149ZM626.695 502.192C625.948 502.192 625.287 502.016 624.711 501.664C624.146 501.312 623.698 500.821 623.367 500.192C623.047 499.552 622.887 498.805 622.887 497.952C622.887 497.099 623.047 496.357 623.367 495.728C623.687 495.099 624.135 494.613 624.711 494.272C625.298 493.92 625.97 493.744 626.727 493.744C627.506 493.744 628.162 493.92 628.695 494.272C629.239 494.624 629.65 495.083 629.927 495.648C630.215 496.213 630.359 496.832 630.359 497.504C630.359 497.611 630.359 497.723 630.359 497.84C630.359 497.947 630.354 498.075 630.343 498.224H623.735V497.28H629.271C629.25 496.459 628.994 495.824 628.503 495.376C628.023 494.928 627.415 494.704 626.679 494.704C626.199 494.704 625.751 494.816 625.335 495.04C624.93 495.253 624.599 495.573 624.343 496C624.098 496.416 623.975 496.944 623.975 497.584V498C623.975 498.725 624.103 499.328 624.359 499.808C624.615 500.288 624.951 500.645 625.367 500.88C625.794 501.115 626.236 501.232 626.695 501.232C627.303 501.232 627.804 501.099 628.199 500.832C628.594 500.555 628.876 500.176 629.047 499.696H630.151C630.012 500.165 629.788 500.592 629.479 500.976C629.18 501.36 628.796 501.659 628.327 501.872C627.858 502.085 627.314 502.192 626.695 502.192ZM632.192 502V493.936H633.216L633.296 495.488C633.467 495.115 633.696 494.8 633.984 494.544C634.272 494.288 634.619 494.091 635.024 493.952C635.429 493.813 635.888 493.744 636.4 493.744V494.912H635.968C635.627 494.912 635.296 494.96 634.976 495.056C634.656 495.141 634.373 495.291 634.128 495.504C633.883 495.717 633.685 496.005 633.536 496.368C633.387 496.731 633.312 497.184 633.312 497.728V502H632.192ZM640.933 502.192C640.293 502.192 639.728 502.085 639.237 501.872C638.757 501.659 638.368 501.355 638.069 500.96C637.781 500.555 637.605 500.075 637.541 499.52H638.693C638.757 499.829 638.88 500.112 639.061 500.368C639.253 500.624 639.509 500.832 639.829 500.992C640.149 501.141 640.528 501.216 640.965 501.216C641.371 501.216 641.701 501.157 641.957 501.04C642.224 500.912 642.421 500.747 642.549 500.544C642.688 500.331 642.757 500.096 642.757 499.84C642.757 499.488 642.672 499.216 642.501 499.024C642.341 498.821 642.107 498.672 641.797 498.576C641.488 498.48 641.115 498.389 640.677 498.304C640.315 498.24 639.968 498.155 639.637 498.048C639.307 497.941 639.008 497.803 638.741 497.632C638.485 497.461 638.283 497.248 638.133 496.992C637.984 496.725 637.909 496.416 637.909 496.064C637.909 495.605 638.021 495.205 638.245 494.864C638.48 494.512 638.811 494.24 639.237 494.048C639.664 493.845 640.165 493.744 640.741 493.744C641.563 493.744 642.235 493.952 642.757 494.368C643.28 494.773 643.584 495.371 643.669 496.16H642.549C642.507 495.723 642.325 495.376 642.005 495.12C641.685 494.864 641.253 494.736 640.709 494.736C640.176 494.736 639.765 494.848 639.477 495.072C639.2 495.285 639.061 495.579 639.061 495.952C639.061 496.187 639.136 496.389 639.285 496.56C639.435 496.731 639.653 496.88 639.941 497.008C640.24 497.125 640.603 497.227 641.029 497.312C641.541 497.408 642.011 497.536 642.437 497.696C642.875 497.845 643.227 498.08 643.493 498.4C643.771 498.709 643.909 499.152 643.909 499.728C643.92 500.208 643.803 500.635 643.557 501.008C643.312 501.381 642.965 501.675 642.517 501.888C642.069 502.091 641.541 502.192 640.933 502.192Z" fill="#757185"/>
<rect x="724.65" y="475" width="63" height="44" rx="22" fill="url(#paint6_radial_396_1888)"/>
<path d="M735.898 502V490.8H737.018V502H735.898ZM739.395 502V493.936H740.419L740.483 495.376C740.739 494.864 741.107 494.464 741.587 494.176C742.078 493.888 742.622 493.744 743.219 493.744C743.838 493.744 744.377 493.867 744.835 494.112C745.294 494.357 745.651 494.731 745.907 495.232C746.163 495.723 746.291 496.352 746.291 497.12V502H745.171V497.248C745.171 496.395 744.985 495.76 744.611 495.344C744.238 494.928 743.705 494.72 743.011 494.72C742.542 494.72 742.115 494.837 741.731 495.072C741.358 495.296 741.059 495.627 740.835 496.064C740.622 496.501 740.515 497.04 740.515 497.68V502H739.395ZM751.467 502C751.008 502 750.614 501.931 750.283 501.792C749.952 501.643 749.696 501.403 749.515 501.072C749.344 500.731 749.259 500.267 749.259 499.68V494.896H747.851V493.936H749.259L749.419 492.064H750.379V493.952H752.795V494.896H750.379V499.68C750.379 500.213 750.486 500.576 750.699 500.768C750.912 500.949 751.291 501.04 751.835 501.04H752.667V502H751.467ZM757.773 502.192C757.026 502.192 756.365 502.016 755.789 501.664C755.224 501.312 754.776 500.821 754.445 500.192C754.125 499.552 753.965 498.805 753.965 497.952C753.965 497.099 754.125 496.357 754.445 495.728C754.765 495.099 755.213 494.613 755.789 494.272C756.376 493.92 757.048 493.744 757.805 493.744C758.584 493.744 759.24 493.92 759.773 494.272C760.317 494.624 760.728 495.083 761.005 495.648C761.293 496.213 761.437 496.832 761.437 497.504C761.437 497.611 761.437 497.723 761.437 497.84C761.437 497.947 761.432 498.075 761.421 498.224H754.813V497.28H760.349C760.328 496.459 760.072 495.824 759.581 495.376C759.101 494.928 758.493 494.704 757.757 494.704C757.277 494.704 756.829 494.816 756.413 495.04C756.008 495.253 755.677 495.573 755.421 496C755.176 496.416 755.053 496.944 755.053 497.584V498C755.053 498.725 755.181 499.328 755.437 499.808C755.693 500.288 756.029 500.645 756.445 500.88C756.872 501.115 757.314 501.232 757.773 501.232C758.381 501.232 758.882 501.099 759.277 500.832C759.672 500.555 759.954 500.176 760.125 499.696H761.229C761.09 500.165 760.866 500.592 760.557 500.976C760.258 501.36 759.874 501.659 759.405 501.872C758.936 502.085 758.392 502.192 757.773 502.192ZM763.27 502V493.936H764.294L764.358 495.376C764.614 494.864 764.982 494.464 765.462 494.176C765.953 493.888 766.497 493.744 767.094 493.744C767.713 493.744 768.252 493.867 768.71 494.112C769.169 494.357 769.526 494.731 769.782 495.232C770.038 495.723 770.166 496.352 770.166 497.12V502H769.046V497.248C769.046 496.395 768.86 495.76 768.486 495.344C768.113 494.928 767.58 494.72 766.886 494.72C766.417 494.72 765.99 494.837 765.606 495.072C765.233 495.296 764.934 495.627 764.71 496.064C764.497 496.501 764.39 497.04 764.39 497.68V502H763.27ZM775.342 502C774.883 502 774.489 501.931 774.158 501.792C773.827 501.643 773.571 501.403 773.39 501.072C773.219 500.731 773.134 500.267 773.134 499.68V494.896H771.726V493.936H773.134L773.294 492.064H774.254V493.952H776.67V494.896H774.254V499.68C774.254 500.213 774.361 500.576 774.574 500.768C774.787 500.949 775.166 501.04 775.71 501.04H776.542V502H775.342Z" fill="#757185"/>
<g filter="url(#filter6_bdi_396_1888)">
<circle cx="731.65" cy="452" r="6" fill="#F8F8F8" fill-opacity="0.01" shape-rendering="crispEdges"/>
<circle cx="731.65" cy="452" r="6" fill="#121212" fill-opacity="0.3" shape-rendering="crispEdges"/>
<circle cx="731.65" cy="452" r="5.25" stroke="url(#paint7_linear_396_1888)" stroke-opacity="0.25" stroke-width="1.5" shape-rendering="crispEdges"/>
</g>
<circle cx="731.65" cy="452" r="3" fill="#BCF85B"/>
<defs>
<filter id="filter0_f_396_1888" x="60.2244" y="37.5293" width="296.166" height="253.349" filterUnits="userSpaceOnUse" color-interpolation-filters="sRGB">
<feFlood flood-opacity="0" result="BackgroundImageFix"/>
<feBlend mode="normal" in="SourceGraphic" in2="BackgroundImageFix" result="shape"/>
<feGaussianBlur stdDeviation="2" result="effect1_foregroundBlur_396_1888"/>
</filter>
<filter id="filter1_ddd_396_1888" x="426.244" y="426.297" width="54.8125" height="54.8125" filterUnits="userSpaceOnUse" color-interpolation-filters="sRGB">
<feFlood flood-opacity="0" result="BackgroundImageFix"/>
<feColorMatrix in="SourceAlpha" type="matrix" values="0 0 0 0 0 0 0 0 0 0 0 0 0 0 0 0 0 0 127 0" result="hardAlpha"/>
<feOffset dy="0.703125"/>
<feGaussianBlur stdDeviation="0.703125"/>
<feComposite in2="hardAlpha" operator="out"/>
<feColorMatrix type="matrix" values="0 0 0 0 0 0 0 0 0 0 0 0 0 0 0 0 0 0 0.1 0"/>
<feBlend mode="normal" in2="BackgroundImageFix" result="effect1_dropShadow_396_1888"/>
<feColorMatrix in="SourceAlpha" type="matrix" values="0 0 0 0 0 0 0 0 0 0 0 0 0 0 0 0 0 0 127 0" result="hardAlpha"/>
<feOffset dy="0.46875"/>
<feGaussianBlur stdDeviation="0.351562"/>
<feComposite in2="hardAlpha" operator="out"/>
<feColorMatrix type="matrix" values="0 0 0 0 0 0 0 0 0 0 0 0 0 0 0 0 0 0 0.1 0"/>
<feBlend mode="normal" in2="effect1_dropShadow_396_1888" result="effect2_dropShadow_396_1888"/>
<feColorMatrix in="SourceAlpha" type="matrix" values="0 0 0 0 0 0 0 0 0 0 0 0 0 0 0 0 0 0 127 0" result="hardAlpha"/>
<feOffset dy="0.117188"/>
<feGaussianBlur stdDeviation="0.117188"/>
<feComposite in2="hardAlpha" operator="out"/>
<feColorMatrix type="matrix" values="0 0 0 0 0 0 0 0 0 0 0 0 0 0 0 0 0 0 0.1 0"/>
<feBlend mode="normal" in2="effect2_dropShadow_396_1888" result="effect3_dropShadow_396_1888"/>
<feBlend mode="normal" in="SourceGraphic" in2="effect3_dropShadow_396_1888" result="shape"/>
</filter>
<filter id="filter2_ddd_396_1888" x="398.837" y="399.593" width="109.625" height="109.625" filterUnits="userSpaceOnUse" color-interpolation-filters="sRGB">
<feFlood flood-opacity="0" result="BackgroundImageFix"/>
<feColorMatrix in="SourceAlpha" type="matrix" values="0 0 0 0 0 0 0 0 0 0 0 0 0 0 0 0 0 0 127 0" result="hardAlpha"/>
<feOffset dy="1.40625"/>
<feGaussianBlur stdDeviation="1.40625"/>
<feComposite in2="hardAlpha" operator="out"/>
<feColorMatrix type="matrix" values="0 0 0 0 0 0 0 0 0 0 0 0 0 0 0 0 0 0 0.1 0"/>
<feBlend mode="normal" in2="BackgroundImageFix" result="effect1_dropShadow_396_1888"/>
<feColorMatrix in="SourceAlpha" type="matrix" values="0 0 0 0 0 0 0 0 0 0 0 0 0 0 0 0 0 0 127 0" result="hardAlpha"/>
<feOffset dy="0.9375"/>
<feGaussianBlur stdDeviation="0.703125"/>
<feComposite in2="hardAlpha" operator="out"/>
<feColorMatrix type="matrix" values="0 0 0 0 0 0 0 0 0 0 0 0 0 0 0 0 0 0 0.1 0"/>
<feBlend mode="normal" in2="effect1_dropShadow_396_1888" result="effect2_dropShadow_396_1888"/>
<feColorMatrix in="SourceAlpha" type="matrix" values="0 0 0 0 0 0 0 0 0 0 0 0 0 0 0 0 0 0 127 0" result="hardAlpha"/>
<feOffset dy="0.234375"/>
<feGaussianBlur stdDeviation="0.234375"/>
<feComposite in2="hardAlpha" operator="out"/>
<feColorMatrix type="matrix" values="0 0 0 0 0 0 0 0 0 0 0 0 0 0 0 0 0 0 0.1 0"/>
<feBlend mode="normal" in2="effect2_dropShadow_396_1888" result="effect3_dropShadow_396_1888"/>
<feBlend mode="normal" in="SourceGraphic" in2="effect3_dropShadow_396_1888" result="shape"/>
</filter>
<filter id="filter3_ddd_396_1888" x="399.188" y="399.594" width="109.625" height="109.625" filterUnits="userSpaceOnUse" color-interpolation-filters="sRGB">
<feFlood flood-opacity="0" result="BackgroundImageFix"/>
<feColorMatrix in="SourceAlpha" type="matrix" values="0 0 0 0 0 0 0 0 0 0 0 0 0 0 0 0 0 0 127 0" result="hardAlpha"/>
<feOffset dy="1.40625"/>
<feGaussianBlur stdDeviation="1.40625"/>
<feComposite in2="hardAlpha" operator="out"/>
<feColorMatrix type="matrix" values="0 0 0 0 0 0 0 0 0 0 0 0 0 0 0 0 0 0 0.1 0"/>
<feBlend mode="normal" in2="BackgroundImageFix" result="effect1_dropShadow_396_1888"/>
<feColorMatrix in="SourceAlpha" type="matrix" values="0 0 0 0 0 0 0 0 0 0 0 0 0 0 0 0 0 0 127 0" result="hardAlpha"/>
<feOffset dy="0.9375"/>
<feGaussianBlur stdDeviation="0.703125"/>
<feComposite in2="hardAlpha" operator="out"/>
<feColorMatrix type="matrix" values="0 0 0 0 0 0 0 0 0 0 0 0 0 0 0 0 0 0 0.1 0"/>
<feBlend mode="normal" in2="effect1_dropShadow_396_1888" result="effect2_dropShadow_396_1888"/>
<feColorMatrix in="SourceAlpha" type="matrix" values="0 0 0 0 0 0 0 0 0 0 0 0 0 0 0 0 0 0 127 0" result="hardAlpha"/>
<feOffset dy="0.234375"/>
<feGaussianBlur stdDeviation="0.234375"/>
<feComposite in2="hardAlpha" operator="out"/>
<feColorMatrix type="matrix" values="0 0 0 0 0 0 0 0 0 0 0 0 0 0 0 0 0 0 0.1 0"/>
<feBlend mode="normal" in2="effect2_dropShadow_396_1888" result="effect3_dropShadow_396_1888"/>
<feBlend mode="normal" in="SourceGraphic" in2="effect3_dropShadow_396_1888" result="shape"/>
</filter>
<filter id="filter4_ddd_396_1888" x="285.292" y="287.883" width="326.417" height="335.826" filterUnits="userSpaceOnUse" color-interpolation-filters="sRGB">
<feFlood flood-opacity="0" result="BackgroundImageFix"/>
<feColorMatrix in="SourceAlpha" type="matrix" values="0 0 0 0 0 0 0 0 0 0 0 0 0 0 0 0 0 0 127 0" result="hardAlpha"/>
<feOffset dy="4"/>
<feGaussianBlur stdDeviation="2"/>
<feComposite in2="hardAlpha" operator="out"/>
<feColorMatrix type="matrix" values="0 0 0 0 0 0 0 0 0 0 0 0 0 0 0 0 0 0 0.25 0"/>
<feBlend mode="normal" in2="BackgroundImageFix" result="effect1_dropShadow_396_1888"/>
<feColorMatrix in="SourceAlpha" type="matrix" values="0 0 0 0 0 0 0 0 0 0 0 0 0 0 0 0 0 0 127 0" result="hardAlpha"/>
<feOffset dy="4"/>
<feGaussianBlur stdDeviation="2"/>
<feComposite in2="hardAlpha" operator="out"/>
<feColorMatrix type="matrix" values="0 0 0 0 0 0 0 0 0 0 0 0 0 0 0 0 0 0 0.25 0"/>
<feBlend mode="normal" in2="effect1_dropShadow_396_1888" result="effect2_dropShadow_396_1888"/>
<feColorMatrix in="SourceAlpha" type="matrix" values="0 0 0 0 0 0 0 0 0 0 0 0 0 0 0 0 0 0 127 0" result="hardAlpha"/>
<feOffset dy="4"/>
<feGaussianBlur stdDeviation="2"/>
<feComposite in2="hardAlpha" operator="out"/>
<feColorMatrix type="matrix" values="0 0 0 0 0 0 0 0 0 0 0 0 0 0 0 0 0 0 0.25 0"/>
<feBlend mode="normal" in2="effect2_dropShadow_396_1888" result="effect3_dropShadow_396_1888"/>
<feBlend mode="normal" in="SourceGraphic" in2="effect3_dropShadow_396_1888" result="shape"/>
</filter>
<filter id="filter5_bdi_396_1888" x="441.65" y="305" width="28" height="46.6667" filterUnits="userSpaceOnUse" color-interpolation-filters="sRGB">
<feFlood flood-opacity="0" result="BackgroundImageFix"/>
<feGaussianBlur in="BackgroundImageFix" stdDeviation="4"/>
<feComposite in2="SourceAlpha" operator="in" result="effect1_backgroundBlur_396_1888"/>
<feColorMatrix in="SourceAlpha" type="matrix" values="0 0 0 0 0 0 0 0 0 0 0 0 0 0 0 0 0 0 127 0" result="hardAlpha"/>
<feMorphology radius="10.6667" operator="erode" in="SourceAlpha" result="effect2_dropShadow_396_1888"/>
<feOffset dy="21.3333"/>
<feGaussianBlur stdDeviation="8"/>
<feComposite in2="hardAlpha" operator="out"/>
<feColorMatrix type="matrix" values="0 0 0 0 0 0 0 0 0 0 0 0 0 0 0 0 0 0 0.4 0"/>
<feBlend mode="multiply" in2="effect1_backgroundBlur_396_1888" result="effect2_dropShadow_396_1888"/>
<feBlend mode="normal" in="SourceGraphic" in2="effect2_dropShadow_396_1888" result="shape"/>
<feColorMatrix in="SourceAlpha" type="matrix" values="0 0 0 0 0 0 0 0 0 0 0 0 0 0 0 0 0 0 127 0" result="hardAlpha"/>
<feOffset/>
<feGaussianBlur stdDeviation="2.66667"/>
<feComposite in2="hardAlpha" operator="arithmetic" k2="-1" k3="1"/>
<feColorMatrix type="matrix" values="0 0 0 0 0.972549 0 0 0 0 0.972549 0 0 0 0 0.972549 0 0 0 0.25 0"/>
<feBlend mode="normal" in2="shape" result="effect3_innerShadow_396_1888"/>
</filter>
<filter id="filter6_bdi_396_1888" x="717.65" y="438" width="28" height="46.6667" filterUnits="userSpaceOnUse" color-interpolation-filters="sRGB">
<feFlood flood-opacity="0" result="BackgroundImageFix"/>
<feGaussianBlur in="BackgroundImageFix" stdDeviation="4"/>
<feComposite in2="SourceAlpha" operator="in" result="effect1_backgroundBlur_396_1888"/>
<feColorMatrix in="SourceAlpha" type="matrix" values="0 0 0 0 0 0 0 0 0 0 0 0 0 0 0 0 0 0 127 0" result="hardAlpha"/>
<feMorphology radius="10.6667" operator="erode" in="SourceAlpha" result="effect2_dropShadow_396_1888"/>
<feOffset dy="21.3333"/>
<feGaussianBlur stdDeviation="8"/>
<feComposite in2="hardAlpha" operator="out"/>
<feColorMatrix type="matrix" values="0 0 0 0 0 0 0 0 0 0 0 0 0 0 0 0 0 0 0.4 0"/>
<feBlend mode="multiply" in2="effect1_backgroundBlur_396_1888" result="effect2_dropShadow_396_1888"/>
<feBlend mode="normal" in="SourceGraphic" in2="effect2_dropShadow_396_1888" result="shape"/>
<feColorMatrix in="SourceAlpha" type="matrix" values="0 0 0 0 0 0 0 0 0 0 0 0 0 0 0 0 0 0 127 0" result="hardAlpha"/>
<feOffset/>
<feGaussianBlur stdDeviation="2.66667"/>
<feComposite in2="hardAlpha" operator="arithmetic" k2="-1" k3="1"/>
<feColorMatrix type="matrix" values="0 0 0 0 0.972549 0 0 0 0 0.972549 0 0 0 0 0.972549 0 0 0 0.25 0"/>
<feBlend mode="normal" in2="shape" result="effect3_innerShadow_396_1888"/>
</filter>
<linearGradient id="paint0_linear_396_1888" x1="65.1499" y1="164.5" x2="352.15" y2="164.5" gradientUnits="userSpaceOnUse">
<stop stop-color="#8B79FD" stop-opacity="0"/>
<stop offset="0.505" stop-color="#8B79FD"/>
<stop offset="1" stop-color="#8B79FD" stop-opacity="0"/>
</linearGradient>
<radialGradient id="paint1_angular_396_1888" cx="0" cy="0" r="1" gradientUnits="userSpaceOnUse" gradientTransform="translate(454.5 453.5) rotate(90) scale(163.5)">
<stop offset="0.0993526" stop-color="#8B79FD"/>
<stop offset="0.427081" stop-color="#513CD5"/>
<stop offset="0.718753" stop-color="#8B79FD"/>
<stop offset="1" stop-color="#0B46F9"/>
</radialGradient>
<linearGradient id="paint2_linear_396_1888" x1="65.1499" y1="164.5" x2="352.15" y2="164.5" gradientUnits="userSpaceOnUse">
<stop stop-color="#8B79FD" stop-opacity="0"/>
<stop offset="0.505" stop-color="#8B79FD"/>
<stop offset="1" stop-color="#8B79FD" stop-opacity="0"/>
</linearGradient>
<linearGradient id="paint3_linear_396_1888" x1="455.65" y1="313" x2="460.87" y2="326.177" gradientUnits="userSpaceOnUse">
<stop stop-color="white" stop-opacity="0.4"/>
<stop offset="0.4" stop-color="white" stop-opacity="0.01"/>
<stop offset="0.6" stop-color="white" stop-opacity="0.01"/>
<stop offset="1" stop-color="white" stop-opacity="0.1"/>
</linearGradient>
<radialGradient id="paint4_radial_396_1888" cx="0" cy="0" r="1" gradientUnits="userSpaceOnUse" gradientTransform="translate(326.15 569) rotate(91.4688) scale(19.5064 33.6929)">
<stop offset="0.505" stop-color="#010101"/>
<stop offset="1" stop-color="#010101" stop-opacity="0"/>
</radialGradient>
<radialGradient id="paint5_radial_396_1888" cx="0" cy="0" r="1" gradientUnits="userSpaceOnUse" gradientTransform="translate(618.88 497) rotate(91.5654) scale(19.5073 35.9079)">
<stop offset="0.505" stop-color="#010101"/>
<stop offset="1" stop-color="#010101" stop-opacity="0"/>
</radialGradient>
<radialGradient id="paint6_radial_396_1888" cx="0" cy="0" r="1" gradientUnits="userSpaceOnUse" gradientTransform="translate(759.051 497) rotate(91.2176) scale(19.5044 27.9325)">
<stop offset="0.505" stop-color="#010101"/>
<stop offset="1" stop-color="#010101" stop-opacity="0"/>
</radialGradient>
<linearGradient id="paint7_linear_396_1888" x1="731.65" y1="446" x2="736.87" y2="459.177" gradientUnits="userSpaceOnUse">
<stop stop-color="white" stop-opacity="0.4"/>
<stop offset="0.4" stop-color="white" stop-opacity="0.01"/>
<stop offset="0.6" stop-color="white" stop-opacity="0.01"/>
<stop offset="1" stop-color="white" stop-opacity="0.1"/>
</linearGradient>
</defs>
</svg>
