<svg width="909" height="907" viewBox="0 0 909 907" fill="none" xmlns="http://www.w3.org/2000/svg">
<g clip-path="url(#clip0_396_2270)">
<circle opacity="0.25" cx="454.5" cy="453.5" r="302.5" stroke="white" stroke-opacity="0.4" stroke-width="3.41667"/>
<g filter="url(#filter0_ddd_396_2270)">
<rect x="429" y="428" width="52" height="52" rx="26" fill="#BCF85B"/>
<rect x="429.586" y="428.586" width="50.8281" height="50.8281" rx="25.4141" stroke="white" stroke-opacity="0.15" stroke-width="1.17188"/>
</g>
<g opacity="0.8">
<path d="M467.167 467.625C467.167 465.59 467.167 464.573 466.915 463.745C466.35 461.88 464.891 460.421 463.027 459.856C462.199 459.605 461.181 459.605 459.146 459.605H451.854C449.819 459.605 448.801 459.605 447.973 459.856C446.109 460.421 444.65 461.88 444.084 463.745C443.833 464.573 443.833 465.59 443.833 467.625M462.062 447.938C462.062 451.562 459.124 454.5 455.5 454.5C451.876 454.5 448.937 451.562 448.937 447.938C448.937 444.314 451.876 441.375 455.5 441.375C459.124 441.375 462.062 444.314 462.062 447.938Z" stroke="black" stroke-width="2" stroke-linecap="round" stroke-linejoin="round"/>
</g>
<g filter="url(#filter1_ddd_396_2270)">
<rect x="403" y="402" width="104" height="104" rx="52" fill="#15131D"/>
<rect x="404.172" y="403.172" width="101.656" height="101.656" rx="50.8281" stroke="white" stroke-opacity="0.15" stroke-width="2.34375"/>
</g>
<path d="M472 462C472 459.209 472 457.814 471.656 456.678C470.88 454.121 468.879 452.121 466.322 451.345C465.187 451 463.791 451 461 451H451C448.209 451 446.813 451 445.678 451.345C443.121 452.121 441.12 454.121 440.344 456.678C440 457.814 440 459.209 440 462M465 435C465 439.971 460.971 444 456 444C451.029 444 447 439.971 447 435C447 430.03 451.029 426 456 426C460.971 426 465 430.03 465 435Z" stroke="white" stroke-width="4" stroke-linecap="round" stroke-linejoin="round"/>
<circle cx="454.5" cy="453.5" r="302.5" stroke="url(#paint0_angular_396_2270)" stroke-width="3.41667"/>
<mask id="mask0_396_2270" style="mask-type:alpha" maskUnits="userSpaceOnUse" x="452" y="114" width="339" height="343">
<rect x="452" y="114" width="339" height="343" fill="#D9D9D9"/>
</mask>
<g mask="url(#mask0_396_2270)">
<circle cx="454.5" cy="453.5" r="302.5" stroke="#010101" stroke-width="5"/>
</g>
<circle opacity="0.25" cx="454.5" cy="453.5" r="163.5" stroke="white" stroke-opacity="0.4" stroke-width="3.41667"/>
<circle opacity="0.25" cx="454.5" cy="453.5" r="423.5" stroke="white" stroke-opacity="0.4" stroke-width="3.41667"/>
<path d="M65.1499 286.5C109.15 179 210.65 77.5 352.15 42.5" stroke="url(#paint1_linear_396_2270)" stroke-width="2"/>
<path opacity="0.5" d="M453 126L453 55" stroke="#8B79FD" stroke-width="2"/>
<g opacity="0.8">
<path d="M649.267 665.435L646.656 679.877L661.098 682.487" stroke="#7853FF" stroke-width="2.37192" stroke-linecap="round" stroke-linejoin="round"/>
</g>
<g opacity="0.8">
<path d="M383.216 733.873L369.558 739.243L374.928 752.901" stroke="#7853FF" stroke-width="2.37192" stroke-linecap="round" stroke-linejoin="round"/>
</g>
<g opacity="0.8">
<path d="M226.833 271.515L226.185 256.854L211.524 257.502" stroke="#7853FF" stroke-width="2.37192" stroke-linecap="round" stroke-linejoin="round"/>
</g>
<path d="M428.528 801L432.656 789.8H433.808L437.936 801H436.752L433.232 791.272L429.696 801H428.528ZM430.416 797.976L430.752 797.048H435.696L436.032 797.976H430.416ZM442.329 801.192C441.721 801.192 441.183 801.075 440.713 800.84C440.255 800.595 439.897 800.227 439.641 799.736C439.385 799.235 439.257 798.595 439.257 797.816V792.936H440.377V797.688C440.377 798.541 440.564 799.176 440.937 799.592C441.321 800.008 441.849 800.216 442.521 800.216C443.001 800.216 443.428 800.104 443.801 799.88C444.185 799.656 444.484 799.325 444.697 798.888C444.921 798.44 445.033 797.896 445.033 797.256V792.936H446.153V801H445.129L445.065 799.56C444.809 800.083 444.436 800.488 443.945 800.776C443.465 801.053 442.927 801.192 442.329 801.192ZM451.985 801.192C451.238 801.192 450.572 801.016 449.985 800.664C449.398 800.312 448.934 799.821 448.593 799.192C448.252 798.552 448.081 797.816 448.081 796.984C448.081 796.12 448.252 795.379 448.593 794.76C448.934 794.131 449.398 793.64 449.985 793.288C450.582 792.925 451.249 792.744 451.985 792.744C452.924 792.744 453.702 792.989 454.321 793.48C454.95 793.96 455.35 794.6 455.521 795.4H454.401C454.284 794.867 454.001 794.456 453.553 794.168C453.116 793.869 452.588 793.72 451.969 793.72C451.489 793.72 451.041 793.843 450.625 794.088C450.209 794.323 449.873 794.68 449.617 795.16C449.361 795.64 449.233 796.248 449.233 796.984C449.233 797.528 449.308 798.003 449.457 798.408C449.606 798.813 449.809 799.155 450.065 799.432C450.321 799.699 450.614 799.901 450.945 800.04C451.276 800.179 451.617 800.248 451.969 800.248C452.374 800.248 452.742 800.184 453.073 800.056C453.414 799.917 453.702 799.72 453.937 799.464C454.172 799.208 454.326 798.899 454.401 798.536H455.521C455.361 799.315 454.966 799.955 454.337 800.456C453.708 800.947 452.924 801.192 451.985 801.192ZM460.255 801C459.796 801 459.401 800.931 459.071 800.792C458.74 800.643 458.484 800.403 458.303 800.072C458.132 799.731 458.047 799.267 458.047 798.68V793.896H456.639V792.936H458.047L458.207 791.064H459.167V792.952H461.583V793.896H459.167V798.68C459.167 799.213 459.273 799.576 459.487 799.768C459.7 799.949 460.079 800.04 460.623 800.04H461.455V801H460.255ZM463.484 801V792.936H464.588V801H463.484ZM464.044 791.032C463.82 791.032 463.628 790.957 463.468 790.808C463.308 790.648 463.228 790.451 463.228 790.216C463.228 789.971 463.302 789.779 463.452 789.64C463.612 789.491 463.804 789.416 464.028 789.416C464.252 789.416 464.444 789.491 464.604 789.64C464.764 789.779 464.844 789.971 464.844 790.216C464.844 790.451 464.764 790.648 464.604 790.808C464.454 790.957 464.268 791.032 464.044 791.032ZM470.579 801.192C469.843 801.192 469.176 801.021 468.579 800.68C467.992 800.328 467.528 799.837 467.187 799.208C466.845 798.568 466.675 797.827 466.675 796.984C466.675 796.109 466.845 795.357 467.187 794.728C467.539 794.099 468.013 793.613 468.611 793.272C469.208 792.92 469.875 792.744 470.611 792.744C471.379 792.744 472.056 792.92 472.643 793.272C473.229 793.613 473.693 794.099 474.035 794.728C474.376 795.357 474.547 796.109 474.547 796.984C474.547 797.827 474.371 798.568 474.019 799.208C473.677 799.837 473.208 800.328 472.611 800.68C472.024 801.021 471.347 801.192 470.579 801.192ZM470.595 800.232C471.096 800.232 471.555 800.109 471.971 799.864C472.397 799.619 472.739 799.256 472.995 798.776C473.261 798.285 473.395 797.683 473.395 796.968C473.395 796.243 473.267 795.64 473.011 795.16C472.755 794.68 472.413 794.323 471.987 794.088C471.571 793.843 471.112 793.72 470.611 793.72C470.131 793.72 469.677 793.843 469.251 794.088C468.824 794.333 468.477 794.696 468.211 795.176C467.955 795.645 467.827 796.243 467.827 796.968C467.827 797.683 467.955 798.285 468.211 798.776C468.467 799.256 468.803 799.619 469.219 799.864C469.645 800.109 470.104 800.232 470.595 800.232ZM476.464 801V792.936H477.488L477.552 794.376C477.808 793.864 478.176 793.464 478.656 793.176C479.147 792.888 479.691 792.744 480.288 792.744C480.907 792.744 481.445 792.867 481.904 793.112C482.363 793.357 482.72 793.731 482.976 794.232C483.232 794.723 483.36 795.352 483.36 796.12V801H482.24V796.248C482.24 795.395 482.053 794.76 481.68 794.344C481.307 793.928 480.773 793.72 480.08 793.72C479.611 793.72 479.184 793.837 478.8 794.072C478.427 794.296 478.128 794.627 477.904 795.064C477.691 795.501 477.584 796.04 477.584 796.68V801H476.464Z" fill="#757185"/>
<path d="M426.686 202V190.8H433.486V191.728H427.806V195.904H433.006V196.832H427.806V201.072H433.486V202H426.686ZM434.774 202L437.462 197.968L434.774 193.936H435.974L438.23 197.376L440.502 193.936H441.702L439.014 197.968L441.702 202H440.502L438.23 198.544L435.99 202H434.774ZM446.311 202.192C445.564 202.192 444.903 202.016 444.327 201.664C443.761 201.312 443.313 200.821 442.983 200.192C442.663 199.552 442.503 198.805 442.503 197.952C442.503 197.099 442.663 196.357 442.983 195.728C443.303 195.099 443.751 194.613 444.327 194.272C444.913 193.92 445.585 193.744 446.343 193.744C447.121 193.744 447.777 193.92 448.311 194.272C448.855 194.624 449.265 195.083 449.543 195.648C449.831 196.213 449.975 196.832 449.975 197.504C449.975 197.611 449.975 197.723 449.975 197.84C449.975 197.947 449.969 198.075 449.959 198.224H443.351V197.28H448.887C448.865 196.459 448.609 195.824 448.119 195.376C447.639 194.928 447.031 194.704 446.295 194.704C445.815 194.704 445.367 194.816 444.951 195.04C444.545 195.253 444.215 195.573 443.959 196C443.713 196.416 443.591 196.944 443.591 197.584V198C443.591 198.725 443.719 199.328 443.975 199.808C444.231 200.288 444.567 200.645 444.983 200.88C445.409 201.115 445.852 201.232 446.311 201.232C446.919 201.232 447.42 201.099 447.815 200.832C448.209 200.555 448.492 200.176 448.663 199.696H449.767C449.628 200.165 449.404 200.592 449.095 200.976C448.796 201.36 448.412 201.659 447.943 201.872C447.473 202.085 446.929 202.192 446.311 202.192ZM455.36 202.192C454.613 202.192 453.947 202.016 453.36 201.664C452.773 201.312 452.309 200.821 451.968 200.192C451.627 199.552 451.456 198.816 451.456 197.984C451.456 197.12 451.627 196.379 451.968 195.76C452.309 195.131 452.773 194.64 453.36 194.288C453.957 193.925 454.624 193.744 455.36 193.744C456.299 193.744 457.077 193.989 457.696 194.48C458.325 194.96 458.725 195.6 458.896 196.4H457.776C457.659 195.867 457.376 195.456 456.928 195.168C456.491 194.869 455.963 194.72 455.344 194.72C454.864 194.72 454.416 194.843 454 195.088C453.584 195.323 453.248 195.68 452.992 196.16C452.736 196.64 452.608 197.248 452.608 197.984C452.608 198.528 452.683 199.003 452.832 199.408C452.981 199.813 453.184 200.155 453.44 200.432C453.696 200.699 453.989 200.901 454.32 201.04C454.651 201.179 454.992 201.248 455.344 201.248C455.749 201.248 456.117 201.184 456.448 201.056C456.789 200.917 457.077 200.72 457.312 200.464C457.547 200.208 457.701 199.899 457.776 199.536H458.896C458.736 200.315 458.341 200.955 457.712 201.456C457.083 201.947 456.299 202.192 455.36 202.192ZM463.736 202.192C463.128 202.192 462.589 202.075 462.12 201.84C461.661 201.595 461.304 201.227 461.048 200.736C460.792 200.235 460.664 199.595 460.664 198.816V193.936H461.784V198.688C461.784 199.541 461.97 200.176 462.344 200.592C462.728 201.008 463.256 201.216 463.928 201.216C464.408 201.216 464.834 201.104 465.208 200.88C465.592 200.656 465.89 200.325 466.104 199.888C466.328 199.44 466.44 198.896 466.44 198.256V193.936H467.56V202H466.536L466.472 200.56C466.216 201.083 465.842 201.488 465.352 201.776C464.872 202.053 464.333 202.192 463.736 202.192ZM472.895 202C472.436 202 472.042 201.931 471.711 201.792C471.38 201.643 471.124 201.403 470.943 201.072C470.772 200.731 470.687 200.267 470.687 199.68V194.896H469.279V193.936H470.687L470.847 192.064H471.807V193.952H474.223V194.896H471.807V199.68C471.807 200.213 471.914 200.576 472.127 200.768C472.34 200.949 472.719 201.04 473.263 201.04H474.095V202H472.895ZM479.201 202.192C478.455 202.192 477.793 202.016 477.217 201.664C476.652 201.312 476.204 200.821 475.873 200.192C475.553 199.552 475.393 198.805 475.393 197.952C475.393 197.099 475.553 196.357 475.873 195.728C476.193 195.099 476.641 194.613 477.217 194.272C477.804 193.92 478.476 193.744 479.233 193.744C480.012 193.744 480.668 193.92 481.201 194.272C481.745 194.624 482.156 195.083 482.433 195.648C482.721 196.213 482.865 196.832 482.865 197.504C482.865 197.611 482.865 197.723 482.865 197.84C482.865 197.947 482.86 198.075 482.849 198.224H476.241V197.28H481.777C481.756 196.459 481.5 195.824 481.009 195.376C480.529 194.928 479.921 194.704 479.185 194.704C478.705 194.704 478.257 194.816 477.841 195.04C477.436 195.253 477.105 195.573 476.849 196C476.604 196.416 476.481 196.944 476.481 197.584V198C476.481 198.725 476.609 199.328 476.865 199.808C477.121 200.288 477.457 200.645 477.873 200.88C478.3 201.115 478.743 201.232 479.201 201.232C479.809 201.232 480.311 201.099 480.705 200.832C481.1 200.555 481.383 200.176 481.553 199.696H482.657C482.519 200.165 482.295 200.592 481.985 200.976C481.687 201.36 481.303 201.659 480.833 201.872C480.364 202.085 479.82 202.192 479.201 202.192Z" fill="#757185"/>
<path d="M257.717 245V233.8H261.477C262.266 233.8 262.917 233.928 263.429 234.184C263.941 234.44 264.319 234.781 264.565 235.208C264.821 235.635 264.949 236.109 264.949 236.632C264.949 237.208 264.821 237.688 264.565 238.072C264.319 238.456 263.994 238.749 263.589 238.952C263.194 239.155 262.778 239.283 262.341 239.336L262.549 239.176C263.018 239.187 263.455 239.315 263.861 239.56C264.266 239.805 264.591 240.136 264.837 240.552C265.082 240.957 265.205 241.421 265.205 241.944C265.205 242.499 265.066 243.011 264.789 243.48C264.522 243.939 264.122 244.307 263.589 244.584C263.055 244.861 262.389 245 261.589 245H257.717ZM258.837 244.056H261.509C262.319 244.056 262.943 243.864 263.381 243.48C263.829 243.096 264.053 242.568 264.053 241.896C264.053 241.224 263.818 240.691 263.349 240.296C262.89 239.891 262.261 239.688 261.461 239.688H258.837V244.056ZM258.837 238.76H261.445C262.202 238.76 262.783 238.579 263.189 238.216C263.594 237.853 263.797 237.363 263.797 236.744C263.797 236.147 263.599 235.667 263.205 235.304C262.81 234.931 262.207 234.744 261.397 234.744H258.837V238.76ZM270.592 245.192C269.845 245.192 269.184 245.016 268.608 244.664C268.043 244.312 267.595 243.821 267.264 243.192C266.944 242.552 266.784 241.805 266.784 240.952C266.784 240.099 266.944 239.357 267.264 238.728C267.584 238.099 268.032 237.613 268.608 237.272C269.195 236.92 269.867 236.744 270.624 236.744C271.403 236.744 272.059 236.92 272.592 237.272C273.136 237.624 273.547 238.083 273.824 238.648C274.112 239.213 274.256 239.832 274.256 240.504C274.256 240.611 274.256 240.723 274.256 240.84C274.256 240.947 274.251 241.075 274.24 241.224H267.632V240.28H273.168C273.147 239.459 272.891 238.824 272.4 238.376C271.92 237.928 271.312 237.704 270.576 237.704C270.096 237.704 269.648 237.816 269.232 238.04C268.827 238.253 268.496 238.573 268.24 239C267.995 239.416 267.872 239.944 267.872 240.584V241C267.872 241.725 268 242.328 268.256 242.808C268.512 243.288 268.848 243.645 269.264 243.88C269.691 244.115 270.133 244.232 270.592 244.232C271.2 244.232 271.701 244.099 272.096 243.832C272.491 243.555 272.773 243.176 272.944 242.696H274.048C273.909 243.165 273.685 243.592 273.376 243.976C273.077 244.36 272.693 244.659 272.224 244.872C271.755 245.085 271.211 245.192 270.592 245.192ZM279.049 245.192C278.409 245.192 277.844 245.085 277.353 244.872C276.873 244.659 276.484 244.355 276.185 243.96C275.897 243.555 275.721 243.075 275.657 242.52H276.809C276.873 242.829 276.996 243.112 277.177 243.368C277.369 243.624 277.625 243.832 277.945 243.992C278.265 244.141 278.644 244.216 279.081 244.216C279.486 244.216 279.817 244.157 280.073 244.04C280.34 243.912 280.537 243.747 280.665 243.544C280.804 243.331 280.873 243.096 280.873 242.84C280.873 242.488 280.788 242.216 280.617 242.024C280.457 241.821 280.222 241.672 279.913 241.576C279.604 241.48 279.23 241.389 278.793 241.304C278.43 241.24 278.084 241.155 277.753 241.048C277.422 240.941 277.124 240.803 276.857 240.632C276.601 240.461 276.398 240.248 276.249 239.992C276.1 239.725 276.025 239.416 276.025 239.064C276.025 238.605 276.137 238.205 276.361 237.864C276.596 237.512 276.926 237.24 277.353 237.048C277.78 236.845 278.281 236.744 278.857 236.744C279.678 236.744 280.35 236.952 280.873 237.368C281.396 237.773 281.7 238.371 281.785 239.16H280.665C280.622 238.723 280.441 238.376 280.121 238.12C279.801 237.864 279.369 237.736 278.825 237.736C278.292 237.736 277.881 237.848 277.593 238.072C277.316 238.285 277.177 238.579 277.177 238.952C277.177 239.187 277.252 239.389 277.401 239.56C277.55 239.731 277.769 239.88 278.057 240.008C278.356 240.125 278.718 240.227 279.145 240.312C279.657 240.408 280.126 240.536 280.553 240.696C280.99 240.845 281.342 241.08 281.609 241.4C281.886 241.709 282.025 242.152 282.025 242.728C282.036 243.208 281.918 243.635 281.673 244.008C281.428 244.381 281.081 244.675 280.633 244.888C280.185 245.091 279.657 245.192 279.049 245.192ZM286.676 245C286.218 245 285.823 244.931 285.492 244.792C285.162 244.643 284.906 244.403 284.724 244.072C284.554 243.731 284.468 243.267 284.468 242.68V237.896H283.06V236.936H284.468L284.628 235.064H285.588V236.952H288.004V237.896H285.588V242.68C285.588 243.213 285.695 243.576 285.908 243.768C286.122 243.949 286.5 244.04 287.044 244.04H287.876V245H286.676ZM294.264 245V233.8H295.544L299.656 241.88L303.784 233.8H305.08V245H303.96V235.848L300.088 243.432H299.256L295.384 235.88V245H294.264ZM310.04 245.192C309.389 245.192 308.845 245.075 308.408 244.84C307.981 244.605 307.661 244.301 307.448 243.928C307.245 243.555 307.144 243.144 307.144 242.696C307.144 242.141 307.283 241.672 307.56 241.288C307.848 240.904 308.248 240.616 308.76 240.424C309.272 240.232 309.869 240.136 310.552 240.136H312.728C312.728 239.613 312.648 239.171 312.488 238.808C312.328 238.445 312.093 238.173 311.784 237.992C311.475 237.8 311.085 237.704 310.616 237.704C310.072 237.704 309.603 237.843 309.208 238.12C308.813 238.397 308.568 238.803 308.472 239.336H307.304C307.368 238.771 307.56 238.296 307.88 237.912C308.211 237.528 308.616 237.24 309.096 237.048C309.576 236.845 310.083 236.744 310.616 236.744C311.363 236.744 311.971 236.888 312.44 237.176C312.909 237.453 313.261 237.837 313.496 238.328C313.731 238.819 313.848 239.384 313.848 240.024V245H312.824L312.76 243.528C312.664 243.752 312.531 243.965 312.36 244.168C312.2 244.371 312.008 244.547 311.784 244.696C311.571 244.845 311.32 244.963 311.032 245.048C310.744 245.144 310.413 245.192 310.04 245.192ZM310.168 244.216C310.563 244.216 310.915 244.136 311.224 243.976C311.544 243.805 311.816 243.587 312.04 243.32C312.264 243.053 312.435 242.755 312.552 242.424C312.669 242.083 312.728 241.731 312.728 241.368V241.08H310.632C310.067 241.08 309.613 241.149 309.272 241.288C308.931 241.427 308.685 241.613 308.536 241.848C308.387 242.083 308.312 242.355 308.312 242.664C308.312 242.973 308.381 243.245 308.52 243.48C308.659 243.704 308.867 243.885 309.144 244.024C309.432 244.152 309.773 244.216 310.168 244.216ZM318.77 245C318.311 245 317.917 244.931 317.586 244.792C317.255 244.643 316.999 244.403 316.818 244.072C316.647 243.731 316.562 243.267 316.562 242.68V237.896H315.154V236.936H316.562L316.722 235.064H317.682V236.952H320.098V237.896H317.682V242.68C317.682 243.213 317.789 243.576 318.002 243.768C318.215 243.949 318.594 244.04 319.138 244.04H319.97V245H318.77ZM325.172 245.192C324.426 245.192 323.759 245.016 323.172 244.664C322.586 244.312 322.122 243.821 321.78 243.192C321.439 242.552 321.268 241.816 321.268 240.984C321.268 240.12 321.439 239.379 321.78 238.76C322.122 238.131 322.586 237.64 323.172 237.288C323.77 236.925 324.436 236.744 325.172 236.744C326.111 236.744 326.89 236.989 327.508 237.48C328.138 237.96 328.538 238.6 328.708 239.4H327.588C327.471 238.867 327.188 238.456 326.74 238.168C326.303 237.869 325.775 237.72 325.156 237.72C324.676 237.72 324.228 237.843 323.812 238.088C323.396 238.323 323.06 238.68 322.804 239.16C322.548 239.64 322.42 240.248 322.42 240.984C322.42 241.528 322.495 242.003 322.644 242.408C322.794 242.813 322.996 243.155 323.252 243.432C323.508 243.699 323.802 243.901 324.132 244.04C324.463 244.179 324.804 244.248 325.156 244.248C325.562 244.248 325.93 244.184 326.26 244.056C326.602 243.917 326.89 243.72 327.124 243.464C327.359 243.208 327.514 242.899 327.588 242.536H328.708C328.548 243.315 328.154 243.955 327.524 244.456C326.895 244.947 326.111 245.192 325.172 245.192ZM330.636 245V233.48H331.756V238.376C332.033 237.864 332.417 237.464 332.908 237.176C333.399 236.888 333.937 236.744 334.524 236.744C335.132 236.744 335.66 236.867 336.108 237.112C336.567 237.357 336.919 237.731 337.164 238.232C337.42 238.733 337.548 239.373 337.548 240.152V245H336.444V240.28C336.444 239.416 336.263 238.776 335.9 238.36C335.548 237.933 335.025 237.72 334.332 237.72C333.852 237.72 333.415 237.837 333.02 238.072C332.636 238.307 332.327 238.648 332.092 239.096C331.868 239.533 331.756 240.077 331.756 240.728V245H330.636Z" fill="#757185"/>
<path d="M274.736 760.192C273.915 760.192 273.2 760.043 272.592 759.744C271.995 759.445 271.536 759.029 271.216 758.496C270.896 757.952 270.736 757.333 270.736 756.64H271.904C271.904 757.109 272.011 757.541 272.224 757.936C272.437 758.331 272.752 758.651 273.168 758.896C273.584 759.131 274.107 759.248 274.736 759.248C275.291 759.248 275.755 759.157 276.128 758.976C276.512 758.784 276.805 758.533 277.008 758.224C277.211 757.915 277.312 757.563 277.312 757.168C277.312 756.699 277.211 756.32 277.008 756.032C276.816 755.744 276.549 755.509 276.208 755.328C275.867 755.147 275.477 754.992 275.04 754.864C274.613 754.725 274.16 754.576 273.68 754.416C272.816 754.117 272.181 753.749 271.776 753.312C271.371 752.875 271.163 752.315 271.152 751.632C271.152 751.045 271.285 750.528 271.552 750.08C271.829 749.621 272.229 749.264 272.752 749.008C273.275 748.741 273.893 748.608 274.608 748.608C275.301 748.608 275.904 748.741 276.416 749.008C276.939 749.264 277.344 749.627 277.632 750.096C277.92 750.555 278.064 751.083 278.064 751.68H276.912C276.912 751.339 276.821 751.008 276.64 750.688C276.469 750.357 276.208 750.091 275.856 749.888C275.515 749.675 275.077 749.568 274.544 749.568C274.107 749.568 273.717 749.648 273.376 749.808C273.045 749.957 272.784 750.181 272.592 750.48C272.4 750.768 272.304 751.109 272.304 751.504C272.304 751.888 272.389 752.203 272.56 752.448C272.731 752.693 272.971 752.896 273.28 753.056C273.589 753.216 273.952 753.365 274.368 753.504C274.784 753.632 275.248 753.781 275.76 753.952C276.283 754.133 276.747 754.352 277.152 754.608C277.557 754.864 277.877 755.195 278.112 755.6C278.347 755.995 278.464 756.496 278.464 757.104C278.464 757.627 278.325 758.128 278.048 758.608C277.781 759.077 277.371 759.461 276.816 759.76C276.261 760.048 275.568 760.192 274.736 760.192ZM283.907 760.192C283.171 760.192 282.504 760.021 281.907 759.68C281.32 759.328 280.856 758.837 280.515 758.208C280.173 757.568 280.003 756.827 280.003 755.984C280.003 755.109 280.173 754.357 280.515 753.728C280.867 753.099 281.341 752.613 281.939 752.272C282.536 751.92 283.203 751.744 283.939 751.744C284.707 751.744 285.384 751.92 285.971 752.272C286.557 752.613 287.021 753.099 287.363 753.728C287.704 754.357 287.875 755.109 287.875 755.984C287.875 756.827 287.699 757.568 287.347 758.208C287.005 758.837 286.536 759.328 285.939 759.68C285.352 760.021 284.675 760.192 283.907 760.192ZM283.923 759.232C284.424 759.232 284.883 759.109 285.299 758.864C285.725 758.619 286.067 758.256 286.323 757.776C286.589 757.285 286.723 756.683 286.723 755.968C286.723 755.243 286.595 754.64 286.339 754.16C286.083 753.68 285.741 753.323 285.315 753.088C284.899 752.843 284.44 752.72 283.939 752.72C283.459 752.72 283.005 752.843 282.579 753.088C282.152 753.333 281.805 753.696 281.539 754.176C281.283 754.645 281.155 755.243 281.155 755.968C281.155 756.683 281.283 757.285 281.539 757.776C281.795 758.256 282.131 758.619 282.547 758.864C282.973 759.109 283.432 759.232 283.923 759.232ZM289.792 760V748.48H290.912V760H289.792ZM295.551 760L292.479 751.936H293.647L296.207 758.912L298.767 751.936H299.919L296.831 760H295.551ZM304.498 760.192C303.752 760.192 303.09 760.016 302.514 759.664C301.949 759.312 301.501 758.821 301.17 758.192C300.85 757.552 300.69 756.805 300.69 755.952C300.69 755.099 300.85 754.357 301.17 753.728C301.49 753.099 301.938 752.613 302.514 752.272C303.101 751.92 303.773 751.744 304.53 751.744C305.309 751.744 305.965 751.92 306.498 752.272C307.042 752.624 307.453 753.083 307.73 753.648C308.018 754.213 308.162 754.832 308.162 755.504C308.162 755.611 308.162 755.723 308.162 755.84C308.162 755.947 308.157 756.075 308.146 756.224H301.538V755.28H307.074C307.053 754.459 306.797 753.824 306.306 753.376C305.826 752.928 305.218 752.704 304.482 752.704C304.002 752.704 303.554 752.816 303.138 753.04C302.733 753.253 302.402 753.573 302.146 754C301.901 754.416 301.778 754.944 301.778 755.584V756C301.778 756.725 301.906 757.328 302.162 757.808C302.418 758.288 302.754 758.645 303.17 758.88C303.597 759.115 304.04 759.232 304.498 759.232C305.106 759.232 305.608 759.099 306.002 758.832C306.397 758.555 306.68 758.176 306.85 757.696H307.954C307.816 758.165 307.592 758.592 307.282 758.976C306.984 759.36 306.6 759.659 306.13 759.872C305.661 760.085 305.117 760.192 304.498 760.192ZM309.995 760V751.936H311.019L311.099 753.488C311.27 753.115 311.499 752.8 311.787 752.544C312.075 752.288 312.422 752.091 312.827 751.952C313.233 751.813 313.691 751.744 314.203 751.744V752.912H313.771C313.43 752.912 313.099 752.96 312.779 753.056C312.459 753.141 312.177 753.291 311.931 753.504C311.686 753.717 311.489 754.005 311.339 754.368C311.19 754.731 311.115 755.184 311.115 755.728V760H309.995ZM318.737 760.192C318.097 760.192 317.531 760.085 317.041 759.872C316.561 759.659 316.171 759.355 315.873 758.96C315.585 758.555 315.409 758.075 315.345 757.52H316.497C316.561 757.829 316.683 758.112 316.865 758.368C317.057 758.624 317.313 758.832 317.633 758.992C317.953 759.141 318.331 759.216 318.769 759.216C319.174 759.216 319.505 759.157 319.761 759.04C320.027 758.912 320.225 758.747 320.353 758.544C320.491 758.331 320.561 758.096 320.561 757.84C320.561 757.488 320.475 757.216 320.305 757.024C320.145 756.821 319.91 756.672 319.601 756.576C319.291 756.48 318.918 756.389 318.481 756.304C318.118 756.24 317.771 756.155 317.441 756.048C317.11 755.941 316.811 755.803 316.545 755.632C316.289 755.461 316.086 755.248 315.937 754.992C315.787 754.725 315.713 754.416 315.713 754.064C315.713 753.605 315.825 753.205 316.049 752.864C316.283 752.512 316.614 752.24 317.041 752.048C317.467 751.845 317.969 751.744 318.545 751.744C319.366 751.744 320.038 751.952 320.561 752.368C321.083 752.773 321.387 753.371 321.473 754.16H320.353C320.31 753.723 320.129 753.376 319.809 753.12C319.489 752.864 319.057 752.736 318.513 752.736C317.979 752.736 317.569 752.848 317.281 753.072C317.003 753.285 316.865 753.579 316.865 753.952C316.865 754.187 316.939 754.389 317.089 754.56C317.238 754.731 317.457 754.88 317.745 755.008C318.043 755.125 318.406 755.227 318.833 755.312C319.345 755.408 319.814 755.536 320.241 755.696C320.678 755.845 321.03 756.08 321.297 756.4C321.574 756.709 321.713 757.152 321.713 757.728C321.723 758.208 321.606 758.635 321.361 759.008C321.115 759.381 320.769 759.675 320.321 759.888C319.873 760.091 319.345 760.192 318.737 760.192Z" fill="#757185"/>
<g filter="url(#filter2_ddd_396_2270)">
<rect x="428" y="725" width="52" height="52" rx="26" fill="#8B79FD"/>
<rect x="428.586" y="725.586" width="50.8281" height="50.8281" rx="25.4141" stroke="white" stroke-opacity="0.15" stroke-width="1.17188"/>
</g>
<g opacity="0.8">
<path d="M461.792 763.167H461.5C459.05 763.167 457.825 763.167 456.889 762.69C456.066 762.27 455.396 761.601 454.977 760.778C454.5 759.842 454.5 758.617 454.5 756.167V746.833C454.5 744.383 454.5 743.158 454.977 742.222C455.396 741.399 456.066 740.729 456.889 740.31C457.825 739.833 459.05 739.833 461.5 739.833H461.792M461.792 763.167C461.792 764.777 463.098 766.083 464.708 766.083C466.319 766.083 467.625 764.777 467.625 763.167C467.625 761.556 466.319 760.25 464.708 760.25C463.098 760.25 461.792 761.556 461.792 763.167ZM461.792 739.833C461.792 741.444 463.098 742.75 464.708 742.75C466.319 742.75 467.625 741.444 467.625 739.833C467.625 738.222 466.319 736.917 464.708 736.917C463.098 736.917 461.792 738.222 461.792 739.833ZM447.208 751.5L461.792 751.5M447.208 751.5C447.208 753.111 445.902 754.417 444.292 754.417C442.681 754.417 441.375 753.111 441.375 751.5C441.375 749.889 442.681 748.583 444.292 748.583C445.902 748.583 447.208 749.889 447.208 751.5ZM461.792 751.5C461.792 753.111 463.098 754.417 464.708 754.417C466.319 754.417 467.625 753.111 467.625 751.5C467.625 749.889 466.319 748.583 464.708 748.583C463.098 748.583 461.792 749.889 461.792 751.5Z" stroke="black" stroke-width="2" stroke-linecap="round" stroke-linejoin="round"/>
</g>
<g filter="url(#filter3_ddd_396_2270)">
<rect x="426" y="126" width="52" height="52" rx="26" fill="#8B79FD"/>
<rect x="426.586" y="126.586" width="50.8281" height="50.8281" rx="25.4141" stroke="white" stroke-opacity="0.15" stroke-width="1.17188"/>
</g>
<g opacity="0.8">
<path d="M464.167 143.75L448.125 159.792L440.833 152.5" stroke="black" stroke-width="2" stroke-linecap="round" stroke-linejoin="round"/>
</g>
<g filter="url(#filter4_ddd_396_2270)">
<rect x="269" y="169" width="52" height="52" rx="26" fill="#1D9BF0"/>
<rect x="269.586" y="169.586" width="50.8281" height="50.8281" rx="25.4141" stroke="white" stroke-opacity="0.15" stroke-width="1.17188"/>
</g>
<g opacity="0.8">
<path d="M297.731 190.18C296.896 190.775 295.874 191.125 294.771 191.125C291.952 191.125 289.667 188.84 289.667 186.021C289.667 183.202 291.952 180.917 294.771 180.917C296.598 180.917 298.201 181.877 299.103 183.32M286.75 207.294H290.557C291.053 207.294 291.546 207.353 292.028 207.471L296.05 208.448C296.922 208.661 297.832 208.681 298.713 208.51L303.161 207.645C304.335 207.416 305.416 206.854 306.263 206.03L309.41 202.969C310.308 202.096 310.308 200.68 309.41 199.806C308.601 199.019 307.319 198.931 306.404 199.598L302.737 202.274C302.212 202.657 301.573 202.864 300.916 202.864H297.375L299.629 202.864C300.899 202.864 301.928 201.863 301.928 200.627V200.18C301.928 199.154 301.21 198.259 300.187 198.011L296.708 197.165C296.142 197.028 295.562 196.958 294.98 196.958C293.573 196.958 291.026 198.123 291.026 198.123L286.75 199.911M307.167 187.479C307.167 190.298 304.882 192.583 302.063 192.583C299.244 192.583 296.958 190.298 296.958 187.479C296.958 184.66 299.244 182.375 302.063 182.375C304.882 182.375 307.167 184.66 307.167 187.479ZM280.917 199.292L280.917 207.75C280.917 208.567 280.917 208.975 281.076 209.287C281.216 209.561 281.439 209.784 281.713 209.924C282.025 210.083 282.433 210.083 283.25 210.083H284.417C285.233 210.083 285.642 210.083 285.954 209.924C286.228 209.784 286.451 209.561 286.591 209.287C286.75 208.975 286.75 208.567 286.75 207.75V199.292C286.75 198.475 286.75 198.066 286.591 197.754C286.451 197.48 286.228 197.257 285.954 197.117C285.642 196.958 285.233 196.958 284.417 196.958L283.25 196.958C282.433 196.958 282.025 196.958 281.713 197.117C281.439 197.257 281.216 197.48 281.076 197.754C280.917 198.066 280.917 198.475 280.917 199.292Z" stroke="black" stroke-width="2" stroke-linecap="round" stroke-linejoin="round"/>
</g>
<circle cx="191.282" cy="600.602" r="16.5" transform="rotate(-5.78102 191.282 600.602)" fill="#15A1FF" stroke="#47415E" stroke-width="2"/>
<circle cx="280.5" cy="699.5" r="16.5" fill="#15A1FF" stroke="#47415E" stroke-width="2"/>
<circle cx="180.704" cy="575.54" r="16.5" transform="rotate(-5.78102 180.704 575.54)" fill="#15A1FF" stroke="#47415E" stroke-width="2"/>
<circle cx="305.5" cy="718.5" r="16.5" fill="#15A1FF" stroke="#47415E" stroke-width="2"/>
<circle cx="170.718" cy="546.398" r="16.5" transform="rotate(-5.78102 170.718 546.398)" fill="#15A1FF" stroke="#47415E" stroke-width="2"/>
<circle cx="154.5" cy="418.5" r="16.5" fill="#15A1FF" stroke="#47415E" stroke-width="2"/>
<circle cx="158.5" cy="389.5" r="16.5" fill="#15A1FF" stroke="#47415E" stroke-width="2"/>
<circle cx="169" cy="355" r="24" fill="#15A1FF" stroke="#47415E" stroke-width="2"/>
<g opacity="0.8" clip-path="url(#clip1_396_2270)">
<path d="M190.83 601.382C190.83 600.831 190.381 600.382 189.83 600.382C189.279 600.382 188.83 600.831 188.83 601.382C188.83 601.934 189.279 602.382 189.83 602.382C190.381 602.382 190.83 601.934 190.83 601.382ZM189.83 601.716C189.646 601.716 189.497 601.566 189.497 601.382C189.497 601.198 189.646 601.049 189.83 601.049C190.014 601.049 190.163 601.199 190.163 601.382C190.163 601.566 190.014 601.716 189.83 601.716Z" fill="black"/>
<path d="M193.83 600.382C193.279 600.382 192.83 600.831 192.83 601.382C192.83 601.934 193.279 602.382 193.83 602.382C194.381 602.382 194.83 601.934 194.83 601.382C194.83 600.831 194.381 600.382 193.83 600.382ZM193.83 601.716C193.646 601.716 193.497 601.566 193.497 601.382C193.497 601.198 193.646 601.049 193.83 601.049C194.014 601.049 194.163 601.199 194.163 601.382C194.163 601.566 194.014 601.716 193.83 601.716Z" fill="black"/>
<path d="M193.345 604.352C192.406 604.834 191.254 604.834 190.316 604.352C190.152 604.268 189.951 604.332 189.867 604.496C189.783 604.66 189.847 604.861 190.011 604.945C190.568 605.231 191.197 605.382 191.83 605.382C192.464 605.382 193.093 605.231 193.649 604.945C193.813 604.861 193.878 604.66 193.794 604.496C193.71 604.332 193.509 604.268 193.345 604.352Z" fill="black"/>
<path d="M198.83 600.382H197.83V599.382C197.83 598.463 197.082 597.715 196.163 597.715H192.163V596.335C192.737 596.186 193.163 595.668 193.163 595.049C193.163 594.313 192.565 593.715 191.83 593.715C191.095 593.715 190.497 594.313 190.497 595.049C190.497 595.668 190.923 596.186 191.497 596.335V597.715H187.497C186.578 597.715 185.83 598.463 185.83 599.382V600.382H184.83C184.279 600.382 183.83 600.831 183.83 601.382V604.382C183.83 604.933 184.279 605.382 184.83 605.382H185.83V606.382C185.83 607.301 186.578 608.049 187.497 608.049H196.163C197.082 608.049 197.83 607.301 197.83 606.382V605.382H198.83C199.381 605.382 199.83 604.933 199.83 604.382V601.382C199.83 600.831 199.381 600.382 198.83 600.382ZM191.163 595.049C191.163 594.681 191.462 594.382 191.83 594.382C192.198 594.382 192.497 594.681 192.497 595.049C192.497 595.416 192.198 595.715 191.83 595.715C191.462 595.715 191.163 595.416 191.163 595.049ZM184.83 604.715C184.646 604.715 184.497 604.566 184.497 604.382V601.382C184.497 601.198 184.646 601.049 184.83 601.049H185.83V604.715H184.83ZM197.163 606.382C197.163 606.933 196.715 607.382 196.163 607.382H187.497C186.945 607.382 186.497 606.933 186.497 606.382V599.382C186.497 598.831 186.945 598.382 187.497 598.382H196.163C196.715 598.382 197.163 598.831 197.163 599.382V606.382ZM199.163 604.382C199.163 604.566 199.014 604.715 198.83 604.715H197.83V601.049H198.83C199.014 601.049 199.163 601.198 199.163 601.382V604.382Z" fill="black"/>
</g>
<g opacity="0.8">
<path d="M280 700.333C280 699.782 279.551 699.333 279 699.333C278.449 699.333 278 699.782 278 700.333C278 700.885 278.449 701.333 279 701.333C279.551 701.333 280 700.885 280 700.333ZM279 700.667C278.816 700.667 278.667 700.517 278.667 700.333C278.667 700.149 278.816 700 279 700C279.184 700 279.333 700.15 279.333 700.333C279.333 700.517 279.184 700.667 279 700.667Z" fill="black"/>
<path d="M283 699.333C282.449 699.333 282 699.782 282 700.333C282 700.885 282.449 701.333 283 701.333C283.551 701.333 284 700.885 284 700.333C284 699.782 283.551 699.333 283 699.333ZM283 700.667C282.816 700.667 282.667 700.517 282.667 700.333C282.667 700.149 282.816 700 283 700C283.184 700 283.333 700.15 283.333 700.333C283.333 700.517 283.184 700.667 283 700.667Z" fill="black"/>
<path d="M282.514 703.303C281.576 703.785 280.424 703.785 279.486 703.303C279.322 703.219 279.121 703.283 279.037 703.447C278.952 703.611 279.017 703.812 279.181 703.896C279.737 704.182 280.366 704.333 281 704.333C281.634 704.333 282.263 704.182 282.819 703.896C282.983 703.812 283.047 703.611 282.963 703.447C282.879 703.283 282.678 703.219 282.514 703.303Z" fill="black"/>
<path d="M288 699.333H287V698.333C287 697.414 286.252 696.667 285.333 696.667H281.333V695.286C281.907 695.137 282.333 694.619 282.333 694C282.333 693.265 281.735 692.667 281 692.667C280.265 692.667 279.667 693.265 279.667 694C279.667 694.619 280.093 695.137 280.667 695.286V696.667H276.667C275.748 696.667 275 697.414 275 698.333V699.333H274C273.449 699.333 273 699.782 273 700.333V703.333C273 703.885 273.449 704.333 274 704.333H275V705.333C275 706.252 275.748 707 276.667 707H285.333C286.252 707 287 706.252 287 705.333V704.333H288C288.551 704.333 289 703.885 289 703.333V700.333C289 699.782 288.551 699.333 288 699.333ZM280.333 694C280.333 693.632 280.632 693.333 281 693.333C281.368 693.333 281.667 693.632 281.667 694C281.667 694.368 281.368 694.667 281 694.667C280.632 694.667 280.333 694.368 280.333 694ZM274 703.667C273.816 703.667 273.667 703.517 273.667 703.333V700.333C273.667 700.15 273.816 700 274 700H275V703.667H274ZM286.333 705.333C286.333 705.885 285.885 706.333 285.333 706.333H276.667C276.115 706.333 275.667 705.885 275.667 705.333V698.333C275.667 697.782 276.115 697.333 276.667 697.333H285.333C285.885 697.333 286.333 697.782 286.333 698.333V705.333ZM288.333 703.333C288.333 703.517 288.184 703.667 288 703.667H287V700H288C288.184 700 288.333 700.15 288.333 700.333V703.333Z" fill="black"/>
</g>
<g opacity="0.8" clip-path="url(#clip2_396_2270)">
<path d="M180.252 576.321C180.252 575.769 179.803 575.321 179.252 575.321C178.701 575.321 178.252 575.769 178.252 576.321C178.252 576.872 178.701 577.321 179.252 577.321C179.803 577.321 180.252 576.872 180.252 576.321ZM179.252 576.654C179.068 576.654 178.919 576.505 178.919 576.321C178.919 576.137 179.068 575.987 179.252 575.987C179.436 575.987 179.585 576.137 179.585 576.321C179.585 576.504 179.436 576.654 179.252 576.654Z" fill="black"/>
<path d="M183.252 575.321C182.701 575.321 182.252 575.769 182.252 576.321C182.252 576.872 182.701 577.321 183.252 577.321C183.803 577.321 184.252 576.872 184.252 576.321C184.252 575.769 183.803 575.321 183.252 575.321ZM183.252 576.654C183.068 576.654 182.919 576.505 182.919 576.321C182.919 576.137 183.068 575.987 183.252 575.987C183.436 575.987 183.585 576.137 183.585 576.321C183.585 576.504 183.436 576.654 183.252 576.654Z" fill="black"/>
<path d="M182.766 579.29C181.828 579.773 180.676 579.773 179.738 579.29C179.574 579.206 179.373 579.271 179.289 579.435C179.204 579.599 179.269 579.799 179.433 579.884C179.989 580.169 180.618 580.321 181.252 580.321C181.886 580.321 182.515 580.17 183.071 579.884C183.235 579.799 183.299 579.599 183.215 579.435C183.131 579.271 182.93 579.206 182.766 579.29Z" fill="black"/>
<path d="M188.252 575.32H187.252V574.32C187.252 573.401 186.504 572.654 185.585 572.654H181.585V571.273C182.159 571.124 182.585 570.606 182.585 569.987C182.585 569.252 181.987 568.654 181.252 568.654C180.517 568.654 179.919 569.252 179.919 569.987C179.919 570.606 180.345 571.124 180.919 571.273V572.654H176.919C176 572.654 175.252 573.401 175.252 574.32V575.32H174.252C173.701 575.32 173.252 575.769 173.252 576.32V579.32C173.252 579.872 173.701 580.32 174.252 580.32H175.252V581.32C175.252 582.239 176 582.987 176.919 582.987H185.585C186.504 582.987 187.252 582.239 187.252 581.32V580.32H188.252C188.803 580.32 189.252 579.872 189.252 579.32V576.32C189.252 575.769 188.803 575.32 188.252 575.32ZM180.585 569.987C180.585 569.619 180.884 569.32 181.252 569.32C181.62 569.32 181.919 569.619 181.919 569.987C181.919 570.355 181.62 570.654 181.252 570.654C180.884 570.654 180.585 570.355 180.585 569.987ZM174.252 579.654C174.068 579.654 173.919 579.504 173.919 579.32V576.32C173.919 576.137 174.068 575.987 174.252 575.987H175.252V579.654H174.252ZM186.585 581.32C186.585 581.872 186.137 582.32 185.585 582.32H176.919C176.367 582.32 175.919 581.872 175.919 581.32V574.32C175.919 573.769 176.367 573.32 176.919 573.32H185.585C186.137 573.32 186.585 573.769 186.585 574.32V581.32ZM188.585 579.32C188.585 579.504 188.436 579.654 188.252 579.654H187.252V575.987H188.252C188.436 575.987 188.585 576.137 188.585 576.32V579.32Z" fill="black"/>
</g>
<g opacity="0.8">
<path d="M305 719.333C305 718.782 304.551 718.333 304 718.333C303.449 718.333 303 718.782 303 719.333C303 719.885 303.449 720.333 304 720.333C304.551 720.333 305 719.885 305 719.333ZM304 719.667C303.816 719.667 303.667 719.517 303.667 719.333C303.667 719.149 303.816 719 304 719C304.184 719 304.333 719.15 304.333 719.333C304.333 719.517 304.184 719.667 304 719.667Z" fill="black"/>
<path d="M308 718.333C307.449 718.333 307 718.782 307 719.333C307 719.885 307.449 720.333 308 720.333C308.551 720.333 309 719.885 309 719.333C309 718.782 308.551 718.333 308 718.333ZM308 719.667C307.816 719.667 307.667 719.517 307.667 719.333C307.667 719.149 307.816 719 308 719C308.184 719 308.333 719.15 308.333 719.333C308.333 719.517 308.184 719.667 308 719.667Z" fill="black"/>
<path d="M307.514 722.303C306.576 722.785 305.424 722.785 304.486 722.303C304.322 722.219 304.121 722.283 304.037 722.447C303.952 722.611 304.017 722.812 304.181 722.896C304.737 723.182 305.366 723.333 306 723.333C306.634 723.333 307.263 723.182 307.819 722.896C307.983 722.812 308.047 722.611 307.963 722.447C307.879 722.283 307.678 722.219 307.514 722.303Z" fill="black"/>
<path d="M313 718.333H312V717.333C312 716.414 311.252 715.667 310.333 715.667H306.333V714.286C306.907 714.137 307.333 713.619 307.333 713C307.333 712.265 306.735 711.667 306 711.667C305.265 711.667 304.667 712.265 304.667 713C304.667 713.619 305.093 714.137 305.667 714.286V715.667H301.667C300.748 715.667 300 716.414 300 717.333V718.333H299C298.449 718.333 298 718.782 298 719.333V722.333C298 722.885 298.449 723.333 299 723.333H300V724.333C300 725.252 300.748 726 301.667 726H310.333C311.252 726 312 725.252 312 724.333V723.333H313C313.551 723.333 314 722.885 314 722.333V719.333C314 718.782 313.551 718.333 313 718.333ZM305.333 713C305.333 712.632 305.632 712.333 306 712.333C306.368 712.333 306.667 712.632 306.667 713C306.667 713.368 306.368 713.667 306 713.667C305.632 713.667 305.333 713.368 305.333 713ZM299 722.667C298.816 722.667 298.667 722.517 298.667 722.333V719.333C298.667 719.15 298.816 719 299 719H300V722.667H299ZM311.333 724.333C311.333 724.885 310.885 725.333 310.333 725.333H301.667C301.115 725.333 300.667 724.885 300.667 724.333V717.333C300.667 716.782 301.115 716.333 301.667 716.333H310.333C310.885 716.333 311.333 716.782 311.333 717.333V724.333ZM313.333 722.333C313.333 722.517 313.184 722.667 313 722.667H312V719H313C313.184 719 313.333 719.15 313.333 719.333V722.333Z" fill="black"/>
</g>
<g opacity="0.8" clip-path="url(#clip3_396_2270)">
<path d="M170.266 547.178C170.266 546.627 169.817 546.178 169.266 546.178C168.714 546.178 168.266 546.627 168.266 547.178C168.266 547.73 168.714 548.178 169.266 548.178C169.817 548.178 170.266 547.73 170.266 547.178ZM169.266 547.512C169.082 547.512 168.932 547.362 168.932 547.178C168.932 546.994 169.082 546.845 169.266 546.845C169.449 546.845 169.599 546.995 169.599 547.178C169.599 547.362 169.449 547.512 169.266 547.512Z" fill="black"/>
<path d="M173.266 546.178C172.714 546.178 172.266 546.627 172.266 547.178C172.266 547.73 172.714 548.178 173.266 548.178C173.817 548.178 174.266 547.73 174.266 547.178C174.266 546.627 173.817 546.178 173.266 546.178ZM173.266 547.512C173.082 547.512 172.932 547.362 172.932 547.178C172.932 546.994 173.082 546.845 173.266 546.845C173.449 546.845 173.599 546.995 173.599 547.178C173.599 547.362 173.449 547.512 173.266 547.512Z" fill="black"/>
<path d="M172.78 550.148C171.842 550.63 170.69 550.63 169.751 550.148C169.587 550.064 169.387 550.128 169.302 550.292C169.218 550.456 169.283 550.657 169.447 550.741C170.003 551.027 170.632 551.178 171.266 551.178C171.899 551.178 172.528 551.027 173.085 550.741C173.248 550.657 173.313 550.456 173.229 550.292C173.145 550.128 172.944 550.064 172.78 550.148Z" fill="black"/>
<path d="M178.266 546.178H177.266V545.178C177.266 544.259 176.518 543.511 175.599 543.511H171.599V542.131C172.172 541.982 172.599 541.464 172.599 540.845C172.599 540.109 172.001 539.511 171.266 539.511C170.53 539.511 169.932 540.109 169.932 540.845C169.932 541.464 170.359 541.982 170.932 542.131V543.511H166.932C166.013 543.511 165.266 544.259 165.266 545.178V546.178H164.266C163.714 546.178 163.266 546.627 163.266 547.178V550.178C163.266 550.729 163.714 551.178 164.266 551.178H165.266V552.178C165.266 553.097 166.013 553.845 166.932 553.845H175.599C176.518 553.845 177.266 553.097 177.266 552.178V551.178H178.266C178.817 551.178 179.266 550.729 179.266 550.178V547.178C179.266 546.627 178.817 546.178 178.266 546.178ZM170.599 540.845C170.599 540.477 170.898 540.178 171.266 540.178C171.633 540.178 171.932 540.477 171.932 540.845C171.932 541.212 171.633 541.511 171.266 541.511C170.898 541.511 170.599 541.212 170.599 540.845ZM164.266 550.511C164.082 550.511 163.932 550.362 163.932 550.178V547.178C163.932 546.994 164.082 546.845 164.266 546.845H165.266V550.511H164.266ZM176.599 552.178C176.599 552.729 176.15 553.178 175.599 553.178H166.932C166.381 553.178 165.932 552.729 165.932 552.178V545.178C165.932 544.627 166.381 544.178 166.932 544.178H175.599C176.15 544.178 176.599 544.627 176.599 545.178V552.178ZM178.599 550.178C178.599 550.362 178.449 550.511 178.266 550.511H177.266V546.845H178.266C178.449 546.845 178.599 546.994 178.599 547.178V550.178Z" fill="black"/>
</g>
<g opacity="0.8">
<path d="M154 419.333C154 418.782 153.551 418.333 153 418.333C152.449 418.333 152 418.782 152 419.333C152 419.885 152.449 420.333 153 420.333C153.551 420.333 154 419.885 154 419.333ZM153 419.667C152.816 419.667 152.667 419.517 152.667 419.333C152.667 419.149 152.816 419 153 419C153.184 419 153.333 419.15 153.333 419.333C153.333 419.517 153.184 419.667 153 419.667Z" fill="black"/>
<path d="M157 418.333C156.449 418.333 156 418.782 156 419.333C156 419.885 156.449 420.333 157 420.333C157.551 420.333 158 419.885 158 419.333C158 418.782 157.551 418.333 157 418.333ZM157 419.667C156.816 419.667 156.667 419.517 156.667 419.333C156.667 419.149 156.816 419 157 419C157.184 419 157.333 419.15 157.333 419.333C157.333 419.517 157.184 419.667 157 419.667Z" fill="black"/>
<path d="M156.514 422.303C155.576 422.785 154.424 422.785 153.486 422.303C153.322 422.219 153.121 422.283 153.037 422.447C152.952 422.611 153.017 422.812 153.181 422.896C153.737 423.182 154.366 423.333 155 423.333C155.634 423.333 156.263 423.182 156.819 422.896C156.983 422.812 157.047 422.611 156.963 422.447C156.879 422.283 156.678 422.219 156.514 422.303Z" fill="black"/>
<path d="M162 418.333H161V417.333C161 416.414 160.252 415.667 159.333 415.667H155.333V414.286C155.907 414.137 156.333 413.619 156.333 413C156.333 412.265 155.735 411.667 155 411.667C154.265 411.667 153.667 412.265 153.667 413C153.667 413.619 154.093 414.137 154.667 414.286V415.667H150.667C149.748 415.667 149 416.414 149 417.333V418.333H148C147.449 418.333 147 418.782 147 419.333V422.333C147 422.885 147.449 423.333 148 423.333H149V424.333C149 425.252 149.748 426 150.667 426H159.333C160.252 426 161 425.252 161 424.333V423.333H162C162.551 423.333 163 422.885 163 422.333V419.333C163 418.782 162.551 418.333 162 418.333ZM154.333 413C154.333 412.632 154.632 412.333 155 412.333C155.368 412.333 155.667 412.632 155.667 413C155.667 413.368 155.368 413.667 155 413.667C154.632 413.667 154.333 413.368 154.333 413ZM148 422.667C147.816 422.667 147.667 422.517 147.667 422.333V419.333C147.667 419.15 147.816 419 148 419H149V422.667H148ZM160.333 424.333C160.333 424.885 159.885 425.333 159.333 425.333H150.667C150.115 425.333 149.667 424.885 149.667 424.333V417.333C149.667 416.782 150.115 416.333 150.667 416.333H159.333C159.885 416.333 160.333 416.782 160.333 417.333V424.333ZM162.333 422.333C162.333 422.517 162.184 422.667 162 422.667H161V419H162C162.184 419 162.333 419.15 162.333 419.333V422.333Z" fill="black"/>
</g>
<g opacity="0.8">
<path d="M158 390.333C158 389.782 157.551 389.333 157 389.333C156.449 389.333 156 389.782 156 390.333C156 390.885 156.449 391.333 157 391.333C157.551 391.333 158 390.885 158 390.333ZM157 390.667C156.816 390.667 156.667 390.517 156.667 390.333C156.667 390.149 156.816 390 157 390C157.184 390 157.333 390.15 157.333 390.333C157.333 390.517 157.184 390.667 157 390.667Z" fill="black"/>
<path d="M161 389.333C160.449 389.333 160 389.782 160 390.333C160 390.885 160.449 391.333 161 391.333C161.551 391.333 162 390.885 162 390.333C162 389.782 161.551 389.333 161 389.333ZM161 390.667C160.816 390.667 160.667 390.517 160.667 390.333C160.667 390.149 160.816 390 161 390C161.184 390 161.333 390.15 161.333 390.333C161.333 390.517 161.184 390.667 161 390.667Z" fill="black"/>
<path d="M160.514 393.303C159.576 393.785 158.424 393.785 157.486 393.303C157.322 393.219 157.121 393.283 157.037 393.447C156.952 393.611 157.017 393.812 157.181 393.896C157.737 394.182 158.366 394.333 159 394.333C159.634 394.333 160.263 394.182 160.819 393.896C160.983 393.812 161.047 393.611 160.963 393.447C160.879 393.283 160.678 393.219 160.514 393.303Z" fill="black"/>
<path d="M166 389.333H165V388.333C165 387.414 164.252 386.667 163.333 386.667H159.333V385.286C159.907 385.137 160.333 384.619 160.333 384C160.333 383.265 159.735 382.667 159 382.667C158.265 382.667 157.667 383.265 157.667 384C157.667 384.619 158.093 385.137 158.667 385.286V386.667H154.667C153.748 386.667 153 387.414 153 388.333V389.333H152C151.449 389.333 151 389.782 151 390.333V393.333C151 393.885 151.449 394.333 152 394.333H153V395.333C153 396.252 153.748 397 154.667 397H163.333C164.252 397 165 396.252 165 395.333V394.333H166C166.551 394.333 167 393.885 167 393.333V390.333C167 389.782 166.551 389.333 166 389.333ZM158.333 384C158.333 383.632 158.632 383.333 159 383.333C159.368 383.333 159.667 383.632 159.667 384C159.667 384.368 159.368 384.667 159 384.667C158.632 384.667 158.333 384.368 158.333 384ZM152 393.667C151.816 393.667 151.667 393.517 151.667 393.333V390.333C151.667 390.15 151.816 390 152 390H153V393.667H152ZM164.333 395.333C164.333 395.885 163.885 396.333 163.333 396.333H154.667C154.115 396.333 153.667 395.885 153.667 395.333V388.333C153.667 387.782 154.115 387.333 154.667 387.333H163.333C163.885 387.333 164.333 387.782 164.333 388.333V395.333ZM166.333 393.333C166.333 393.517 166.184 393.667 166 393.667H165V390H166C166.184 390 166.333 390.15 166.333 390.333V393.333Z" fill="black"/>
</g>
<g opacity="0.8">
<path d="M166.875 355.708C166.875 354.537 165.922 353.583 164.75 353.583C163.578 353.583 162.625 354.537 162.625 355.708C162.625 356.88 163.578 357.833 164.75 357.833C165.922 357.833 166.875 356.88 166.875 355.708ZM164.75 356.417C164.36 356.417 164.042 356.099 164.042 355.708C164.042 355.317 164.36 355 164.75 355C165.14 355 165.458 355.318 165.458 355.708C165.458 356.099 165.14 356.417 164.75 356.417Z" fill="black"/>
<path d="M173.25 353.583C172.078 353.583 171.125 354.537 171.125 355.708C171.125 356.88 172.078 357.833 173.25 357.833C174.422 357.833 175.375 356.88 175.375 355.708C175.375 354.537 174.422 353.583 173.25 353.583ZM173.25 356.417C172.86 356.417 172.542 356.099 172.542 355.708C172.542 355.317 172.86 355 173.25 355C173.64 355 173.958 355.318 173.958 355.708C173.958 356.099 173.64 356.417 173.25 356.417Z" fill="black"/>
<path d="M172.218 362.02C170.224 363.045 167.776 363.045 165.782 362.02C165.434 361.84 165.007 361.978 164.828 362.326C164.649 362.675 164.786 363.101 165.135 363.28C166.317 363.887 167.653 364.209 169 364.209C170.347 364.209 171.683 363.888 172.865 363.28C173.213 363.101 173.351 362.675 173.172 362.326C172.994 361.978 172.566 361.84 172.218 362.02Z" fill="black"/>
<path d="M183.875 353.583H181.75V351.458C181.75 349.505 180.161 347.917 178.208 347.917H169.708V344.983C170.927 344.666 171.833 343.566 171.833 342.25C171.833 340.687 170.563 339.417 169 339.417C167.437 339.417 166.167 340.687 166.167 342.25C166.167 343.566 167.073 344.666 168.292 344.983V347.917H159.792C157.839 347.917 156.25 349.505 156.25 351.458V353.583H154.125C152.953 353.583 152 354.537 152 355.708V362.083C152 363.255 152.953 364.208 154.125 364.208H156.25V366.333C156.25 368.286 157.839 369.875 159.792 369.875H178.208C180.161 369.875 181.75 368.286 181.75 366.333V364.208H183.875C185.047 364.208 186 363.255 186 362.083V355.708C186 354.537 185.047 353.583 183.875 353.583ZM167.583 342.25C167.583 341.469 168.219 340.833 169 340.833C169.781 340.833 170.417 341.469 170.417 342.25C170.417 343.031 169.781 343.667 169 343.667C168.219 343.667 167.583 343.031 167.583 342.25ZM154.125 362.792C153.735 362.792 153.417 362.474 153.417 362.083V355.708C153.417 355.318 153.735 355 154.125 355H156.25V362.792H154.125ZM180.333 366.333C180.333 367.505 179.38 368.458 178.208 368.458H159.792C158.62 368.458 157.667 367.505 157.667 366.333V351.458C157.667 350.287 158.62 349.333 159.792 349.333H178.208C179.38 349.333 180.333 350.287 180.333 351.458V366.333ZM184.583 362.083C184.583 362.474 184.265 362.792 183.875 362.792H181.75V355H183.875C184.265 355 184.583 355.318 184.583 355.708V362.083Z" fill="black"/>
</g>
<g opacity="0.8">
<path d="M365.89 178.405L374.442 166.479L362.515 157.927" stroke="#7853FF" stroke-width="2.37192" stroke-linecap="round" stroke-linejoin="round"/>
</g>
<g filter="url(#filter5_ddd_396_2270)">
<rect x="403" y="403" width="104" height="104" rx="52" fill="#15131D"/>
<rect x="404.172" y="404.172" width="101.656" height="101.656" rx="50.8281" stroke="white" stroke-opacity="0.15" stroke-width="2.34375"/>
</g>
<rect x="427.75" y="2.75" width="50.5" height="50.5" rx="15.25" fill="#010101"/>
<rect x="427.75" y="2.75" width="50.5" height="50.5" rx="15.25" stroke="#FA1980" stroke-width="1.5"/>
<g opacity="0.8">
<path d="M452.482 42.5218C452.805 42.7102 452.966 42.8043 453.194 42.8532C453.371 42.8911 453.629 42.8911 453.806 42.8532C454.034 42.8043 454.195 42.7102 454.518 42.5218C457.359 40.8644 465.167 35.6583 465.167 28.5001V22.9584C465.167 21.3924 465.167 20.6093 464.925 20.0535C464.68 19.4885 464.435 19.188 463.932 18.8327C463.437 18.4832 462.467 18.2813 460.526 17.8776C458.387 17.4327 456.744 16.6293 455.242 15.4675C454.521 14.9103 454.161 14.6317 453.88 14.5557C453.582 14.4756 453.418 14.4756 453.12 14.5557C452.838 14.6317 452.478 14.9103 451.758 15.4675C450.256 16.6293 448.613 17.4327 446.474 17.8776C444.533 18.2813 443.563 18.4832 443.068 18.8327C442.564 19.188 442.32 19.4885 442.075 20.0535C441.833 20.6093 441.833 21.3924 441.833 22.9584V28.5001C441.833 35.6583 449.641 40.8644 452.482 42.5218Z" stroke="#FA1980" stroke-width="2" stroke-linecap="round" stroke-linejoin="round"/>
</g>
<g filter="url(#filter6_bdi_396_2270)">
<circle cx="453" cy="54" r="6" fill="#F8F8F8" fill-opacity="0.01" shape-rendering="crispEdges"/>
<circle cx="453" cy="54" r="6" fill="#121212" fill-opacity="0.3" shape-rendering="crispEdges"/>
<circle cx="453" cy="54" r="5.25" stroke="url(#paint2_linear_396_2270)" stroke-opacity="0.25" stroke-width="1.5" shape-rendering="crispEdges"/>
</g>
<circle cx="453" cy="54" r="3" fill="#8B79FD"/>
<rect x="731.75" y="426.75" width="50.5" height="50.5" rx="15.25" fill="#010101"/>
<rect x="731.75" y="426.75" width="50.5" height="50.5" rx="15.25" stroke="#BCF85B" stroke-width="1.5"/>
<g opacity="0.8">
<path d="M764.792 459.792L772.083 452.5L764.792 445.208M750.208 445.208L742.917 452.5L750.208 459.792M760.417 439.375L754.583 465.625" stroke="#BCF85B" stroke-width="2" stroke-linecap="round" stroke-linejoin="round"/>
</g>
<rect x="415" y="60" width="69" height="44" rx="22" fill="url(#paint3_radial_396_2270)"/>
<path d="M429.736 87.192C428.915 87.192 428.2 87.0427 427.592 86.744C426.995 86.4453 426.536 86.0293 426.216 85.496C425.896 84.952 425.736 84.3333 425.736 83.64H426.904C426.904 84.1093 427.011 84.5413 427.224 84.936C427.437 85.3307 427.752 85.6507 428.168 85.896C428.584 86.1307 429.107 86.248 429.736 86.248C430.291 86.248 430.755 86.1573 431.128 85.976C431.512 85.784 431.805 85.5333 432.008 85.224C432.211 84.9147 432.312 84.5627 432.312 84.168C432.312 83.6987 432.211 83.32 432.008 83.032C431.816 82.744 431.549 82.5093 431.208 82.328C430.867 82.1467 430.477 81.992 430.04 81.864C429.613 81.7253 429.16 81.576 428.68 81.416C427.816 81.1173 427.181 80.7493 426.776 80.312C426.371 79.8747 426.163 79.3147 426.152 78.632C426.152 78.0453 426.285 77.528 426.552 77.08C426.829 76.6213 427.229 76.264 427.752 76.008C428.275 75.7413 428.893 75.608 429.608 75.608C430.301 75.608 430.904 75.7413 431.416 76.008C431.939 76.264 432.344 76.6267 432.632 77.096C432.92 77.5547 433.064 78.0827 433.064 78.68H431.912C431.912 78.3387 431.821 78.008 431.64 77.688C431.469 77.3573 431.208 77.0907 430.856 76.888C430.515 76.6747 430.077 76.568 429.544 76.568C429.107 76.568 428.717 76.648 428.376 76.808C428.045 76.9573 427.784 77.1813 427.592 77.48C427.4 77.768 427.304 78.1093 427.304 78.504C427.304 78.888 427.389 79.2027 427.56 79.448C427.731 79.6933 427.971 79.896 428.28 80.056C428.589 80.216 428.952 80.3653 429.368 80.504C429.784 80.632 430.248 80.7813 430.76 80.952C431.283 81.1333 431.747 81.352 432.152 81.608C432.557 81.864 432.877 82.1947 433.112 82.6C433.347 82.9947 433.464 83.496 433.464 84.104C433.464 84.6267 433.325 85.128 433.048 85.608C432.781 86.0773 432.371 86.4613 431.816 86.76C431.261 87.048 430.568 87.192 429.736 87.192ZM438.811 87.192C438.064 87.192 437.403 87.016 436.827 86.664C436.261 86.312 435.813 85.8213 435.483 85.192C435.163 84.552 435.003 83.8053 435.003 82.952C435.003 82.0987 435.163 81.3573 435.483 80.728C435.803 80.0987 436.251 79.6133 436.827 79.272C437.413 78.92 438.085 78.744 438.843 78.744C439.621 78.744 440.277 78.92 440.811 79.272C441.355 79.624 441.765 80.0827 442.043 80.648C442.331 81.2133 442.475 81.832 442.475 82.504C442.475 82.6107 442.475 82.7227 442.475 82.84C442.475 82.9467 442.469 83.0747 442.459 83.224H435.851V82.28H441.387C441.365 81.4587 441.109 80.824 440.619 80.376C440.139 79.928 439.531 79.704 438.795 79.704C438.315 79.704 437.867 79.816 437.451 80.04C437.045 80.2533 436.715 80.5733 436.459 81C436.213 81.416 436.091 81.944 436.091 82.584V83C436.091 83.7253 436.219 84.328 436.475 84.808C436.731 85.288 437.067 85.6453 437.483 85.88C437.909 86.1147 438.352 86.232 438.811 86.232C439.419 86.232 439.92 86.0987 440.315 85.832C440.709 85.5547 440.992 85.176 441.163 84.696H442.267C442.128 85.1653 441.904 85.592 441.595 85.976C441.296 86.36 440.912 86.6587 440.443 86.872C439.973 87.0853 439.429 87.192 438.811 87.192ZM447.051 87C446.593 87 446.198 86.9307 445.867 86.792C445.537 86.6427 445.281 86.4027 445.099 86.072C444.929 85.7307 444.843 85.2667 444.843 84.68V79.896H443.435V78.936H444.843L445.003 77.064H445.963V78.952H448.379V79.896H445.963V84.68C445.963 85.2133 446.07 85.576 446.283 85.768C446.497 85.9493 446.875 86.04 447.419 86.04H448.251V87H447.051ZM453.176 87C452.718 87 452.323 86.9307 451.992 86.792C451.662 86.6427 451.406 86.4027 451.224 86.072C451.054 85.7307 450.968 85.2667 450.968 84.68V79.896H449.56V78.936H450.968L451.128 77.064H452.088V78.952H454.504V79.896H452.088V84.68C452.088 85.2133 452.195 85.576 452.408 85.768C452.622 85.9493 453 86.04 453.544 86.04H454.376V87H453.176ZM456.245 87V75.48H457.365V87H456.245ZM463.092 87.192C462.345 87.192 461.684 87.016 461.108 86.664C460.543 86.312 460.095 85.8213 459.764 85.192C459.444 84.552 459.284 83.8053 459.284 82.952C459.284 82.0987 459.444 81.3573 459.764 80.728C460.084 80.0987 460.532 79.6133 461.108 79.272C461.695 78.92 462.367 78.744 463.124 78.744C463.903 78.744 464.559 78.92 465.092 79.272C465.636 79.624 466.047 80.0827 466.324 80.648C466.612 81.2133 466.756 81.832 466.756 82.504C466.756 82.6107 466.756 82.7227 466.756 82.84C466.756 82.9467 466.751 83.0747 466.74 83.224H460.132V82.28H465.668C465.647 81.4587 465.391 80.824 464.9 80.376C464.42 79.928 463.812 79.704 463.076 79.704C462.596 79.704 462.148 79.816 461.732 80.04C461.327 80.2533 460.996 80.5733 460.74 81C460.495 81.416 460.372 81.944 460.372 82.584V83C460.372 83.7253 460.5 84.328 460.756 84.808C461.012 85.288 461.348 85.6453 461.764 85.88C462.191 86.1147 462.633 86.232 463.092 86.232C463.7 86.232 464.201 86.0987 464.596 85.832C464.991 85.5547 465.273 85.176 465.444 84.696H466.548C466.409 85.1653 466.185 85.592 465.876 85.976C465.577 86.36 465.193 86.6587 464.724 86.872C464.255 87.0853 463.711 87.192 463.092 87.192ZM468.589 87V78.936H469.613L469.693 80.488C469.864 80.1147 470.093 79.8 470.381 79.544C470.669 79.288 471.016 79.0907 471.421 78.952C471.826 78.8133 472.285 78.744 472.797 78.744V79.912H472.365C472.024 79.912 471.693 79.96 471.373 80.056C471.053 80.1413 470.77 80.2907 470.525 80.504C470.28 80.7173 470.082 81.0053 469.933 81.368C469.784 81.7307 469.709 82.184 469.709 82.728V87H468.589Z" fill="#757185"/>
<rect x="724.65" y="475" width="63" height="44" rx="22" fill="url(#paint4_radial_396_2270)"/>
<path d="M735.898 502V490.8H737.018V502H735.898ZM739.395 502V493.936H740.419L740.483 495.376C740.739 494.864 741.107 494.464 741.587 494.176C742.078 493.888 742.622 493.744 743.219 493.744C743.838 493.744 744.377 493.867 744.835 494.112C745.294 494.357 745.651 494.731 745.907 495.232C746.163 495.723 746.291 496.352 746.291 497.12V502H745.171V497.248C745.171 496.395 744.985 495.76 744.611 495.344C744.238 494.928 743.705 494.72 743.011 494.72C742.542 494.72 742.115 494.837 741.731 495.072C741.358 495.296 741.059 495.627 740.835 496.064C740.622 496.501 740.515 497.04 740.515 497.68V502H739.395ZM751.467 502C751.008 502 750.614 501.931 750.283 501.792C749.952 501.643 749.696 501.403 749.515 501.072C749.344 500.731 749.259 500.267 749.259 499.68V494.896H747.851V493.936H749.259L749.419 492.064H750.379V493.952H752.795V494.896H750.379V499.68C750.379 500.213 750.486 500.576 750.699 500.768C750.912 500.949 751.291 501.04 751.835 501.04H752.667V502H751.467ZM757.773 502.192C757.026 502.192 756.365 502.016 755.789 501.664C755.224 501.312 754.776 500.821 754.445 500.192C754.125 499.552 753.965 498.805 753.965 497.952C753.965 497.099 754.125 496.357 754.445 495.728C754.765 495.099 755.213 494.613 755.789 494.272C756.376 493.92 757.048 493.744 757.805 493.744C758.584 493.744 759.24 493.92 759.773 494.272C760.317 494.624 760.728 495.083 761.005 495.648C761.293 496.213 761.437 496.832 761.437 497.504C761.437 497.611 761.437 497.723 761.437 497.84C761.437 497.947 761.432 498.075 761.421 498.224H754.813V497.28H760.349C760.328 496.459 760.072 495.824 759.581 495.376C759.101 494.928 758.493 494.704 757.757 494.704C757.277 494.704 756.829 494.816 756.413 495.04C756.008 495.253 755.677 495.573 755.421 496C755.176 496.416 755.053 496.944 755.053 497.584V498C755.053 498.725 755.181 499.328 755.437 499.808C755.693 500.288 756.029 500.645 756.445 500.88C756.872 501.115 757.314 501.232 757.773 501.232C758.381 501.232 758.882 501.099 759.277 500.832C759.672 500.555 759.954 500.176 760.125 499.696H761.229C761.09 500.165 760.866 500.592 760.557 500.976C760.258 501.36 759.874 501.659 759.405 501.872C758.936 502.085 758.392 502.192 757.773 502.192ZM763.27 502V493.936H764.294L764.358 495.376C764.614 494.864 764.982 494.464 765.462 494.176C765.953 493.888 766.497 493.744 767.094 493.744C767.713 493.744 768.252 493.867 768.71 494.112C769.169 494.357 769.526 494.731 769.782 495.232C770.038 495.723 770.166 496.352 770.166 497.12V502H769.046V497.248C769.046 496.395 768.86 495.76 768.486 495.344C768.113 494.928 767.58 494.72 766.886 494.72C766.417 494.72 765.99 494.837 765.606 495.072C765.233 495.296 764.934 495.627 764.71 496.064C764.497 496.501 764.39 497.04 764.39 497.68V502H763.27ZM775.342 502C774.883 502 774.489 501.931 774.158 501.792C773.827 501.643 773.571 501.403 773.39 501.072C773.219 500.731 773.134 500.267 773.134 499.68V494.896H771.726V493.936H773.134L773.294 492.064H774.254V493.952H776.67V494.896H774.254V499.68C774.254 500.213 774.361 500.576 774.574 500.768C774.787 500.949 775.166 501.04 775.71 501.04H776.542V502H775.342Z" fill="#757185"/>
<g filter="url(#filter7_ddd_396_2270)">
<rect x="403" y="402" width="104" height="104" rx="52" fill="#15131D"/>
<rect x="404.172" y="403.172" width="101.656" height="101.656" rx="50.8281" stroke="white" stroke-opacity="0.15" stroke-width="2.34375"/>
</g>
<path d="M479.333 481.25C479.333 477.18 479.333 475.144 478.831 473.488C477.7 469.76 474.782 466.842 471.053 465.711C469.397 465.208 467.362 465.208 463.291 465.208H448.708C444.638 465.208 442.603 465.208 440.947 465.711C437.218 466.842 434.3 469.76 433.169 473.488C432.667 475.144 432.667 477.18 432.667 481.25M469.125 441.875C469.125 449.124 463.249 455 456 455C448.751 455 442.875 449.124 442.875 441.875C442.875 434.626 448.751 428.75 456 428.75C463.249 428.75 469.125 434.626 469.125 441.875Z" stroke="white" stroke-width="4" stroke-linecap="round" stroke-linejoin="round"/>
</g>
<defs>
<filter id="filter0_ddd_396_2270" x="427.594" y="427.297" width="54.8125" height="54.8125" filterUnits="userSpaceOnUse" color-interpolation-filters="sRGB">
<feFlood flood-opacity="0" result="BackgroundImageFix"/>
<feColorMatrix in="SourceAlpha" type="matrix" values="0 0 0 0 0 0 0 0 0 0 0 0 0 0 0 0 0 0 127 0" result="hardAlpha"/>
<feOffset dy="0.703125"/>
<feGaussianBlur stdDeviation="0.703125"/>
<feComposite in2="hardAlpha" operator="out"/>
<feColorMatrix type="matrix" values="0 0 0 0 0 0 0 0 0 0 0 0 0 0 0 0 0 0 0.1 0"/>
<feBlend mode="normal" in2="BackgroundImageFix" result="effect1_dropShadow_396_2270"/>
<feColorMatrix in="SourceAlpha" type="matrix" values="0 0 0 0 0 0 0 0 0 0 0 0 0 0 0 0 0 0 127 0" result="hardAlpha"/>
<feOffset dy="0.46875"/>
<feGaussianBlur stdDeviation="0.351562"/>
<feComposite in2="hardAlpha" operator="out"/>
<feColorMatrix type="matrix" values="0 0 0 0 0 0 0 0 0 0 0 0 0 0 0 0 0 0 0.1 0"/>
<feBlend mode="normal" in2="effect1_dropShadow_396_2270" result="effect2_dropShadow_396_2270"/>
<feColorMatrix in="SourceAlpha" type="matrix" values="0 0 0 0 0 0 0 0 0 0 0 0 0 0 0 0 0 0 127 0" result="hardAlpha"/>
<feOffset dy="0.117188"/>
<feGaussianBlur stdDeviation="0.117188"/>
<feComposite in2="hardAlpha" operator="out"/>
<feColorMatrix type="matrix" values="0 0 0 0 0 0 0 0 0 0 0 0 0 0 0 0 0 0 0.1 0"/>
<feBlend mode="normal" in2="effect2_dropShadow_396_2270" result="effect3_dropShadow_396_2270"/>
<feBlend mode="normal" in="SourceGraphic" in2="effect3_dropShadow_396_2270" result="shape"/>
</filter>
<filter id="filter1_ddd_396_2270" x="400.188" y="400.594" width="109.625" height="109.625" filterUnits="userSpaceOnUse" color-interpolation-filters="sRGB">
<feFlood flood-opacity="0" result="BackgroundImageFix"/>
<feColorMatrix in="SourceAlpha" type="matrix" values="0 0 0 0 0 0 0 0 0 0 0 0 0 0 0 0 0 0 127 0" result="hardAlpha"/>
<feOffset dy="1.40625"/>
<feGaussianBlur stdDeviation="1.40625"/>
<feComposite in2="hardAlpha" operator="out"/>
<feColorMatrix type="matrix" values="0 0 0 0 0 0 0 0 0 0 0 0 0 0 0 0 0 0 0.1 0"/>
<feBlend mode="normal" in2="BackgroundImageFix" result="effect1_dropShadow_396_2270"/>
<feColorMatrix in="SourceAlpha" type="matrix" values="0 0 0 0 0 0 0 0 0 0 0 0 0 0 0 0 0 0 127 0" result="hardAlpha"/>
<feOffset dy="0.9375"/>
<feGaussianBlur stdDeviation="0.703125"/>
<feComposite in2="hardAlpha" operator="out"/>
<feColorMatrix type="matrix" values="0 0 0 0 0 0 0 0 0 0 0 0 0 0 0 0 0 0 0.1 0"/>
<feBlend mode="normal" in2="effect1_dropShadow_396_2270" result="effect2_dropShadow_396_2270"/>
<feColorMatrix in="SourceAlpha" type="matrix" values="0 0 0 0 0 0 0 0 0 0 0 0 0 0 0 0 0 0 127 0" result="hardAlpha"/>
<feOffset dy="0.234375"/>
<feGaussianBlur stdDeviation="0.234375"/>
<feComposite in2="hardAlpha" operator="out"/>
<feColorMatrix type="matrix" values="0 0 0 0 0 0 0 0 0 0 0 0 0 0 0 0 0 0 0.1 0"/>
<feBlend mode="normal" in2="effect2_dropShadow_396_2270" result="effect3_dropShadow_396_2270"/>
<feBlend mode="normal" in="SourceGraphic" in2="effect3_dropShadow_396_2270" result="shape"/>
</filter>
<filter id="filter2_ddd_396_2270" x="426.594" y="724.297" width="54.8125" height="54.8125" filterUnits="userSpaceOnUse" color-interpolation-filters="sRGB">
<feFlood flood-opacity="0" result="BackgroundImageFix"/>
<feColorMatrix in="SourceAlpha" type="matrix" values="0 0 0 0 0 0 0 0 0 0 0 0 0 0 0 0 0 0 127 0" result="hardAlpha"/>
<feOffset dy="0.703125"/>
<feGaussianBlur stdDeviation="0.703125"/>
<feComposite in2="hardAlpha" operator="out"/>
<feColorMatrix type="matrix" values="0 0 0 0 0 0 0 0 0 0 0 0 0 0 0 0 0 0 0.1 0"/>
<feBlend mode="normal" in2="BackgroundImageFix" result="effect1_dropShadow_396_2270"/>
<feColorMatrix in="SourceAlpha" type="matrix" values="0 0 0 0 0 0 0 0 0 0 0 0 0 0 0 0 0 0 127 0" result="hardAlpha"/>
<feOffset dy="0.46875"/>
<feGaussianBlur stdDeviation="0.351562"/>
<feComposite in2="hardAlpha" operator="out"/>
<feColorMatrix type="matrix" values="0 0 0 0 0 0 0 0 0 0 0 0 0 0 0 0 0 0 0.1 0"/>
<feBlend mode="normal" in2="effect1_dropShadow_396_2270" result="effect2_dropShadow_396_2270"/>
<feColorMatrix in="SourceAlpha" type="matrix" values="0 0 0 0 0 0 0 0 0 0 0 0 0 0 0 0 0 0 127 0" result="hardAlpha"/>
<feOffset dy="0.117188"/>
<feGaussianBlur stdDeviation="0.117188"/>
<feComposite in2="hardAlpha" operator="out"/>
<feColorMatrix type="matrix" values="0 0 0 0 0 0 0 0 0 0 0 0 0 0 0 0 0 0 0.1 0"/>
<feBlend mode="normal" in2="effect2_dropShadow_396_2270" result="effect3_dropShadow_396_2270"/>
<feBlend mode="normal" in="SourceGraphic" in2="effect3_dropShadow_396_2270" result="shape"/>
</filter>
<filter id="filter3_ddd_396_2270" x="424.594" y="125.297" width="54.8125" height="54.8125" filterUnits="userSpaceOnUse" color-interpolation-filters="sRGB">
<feFlood flood-opacity="0" result="BackgroundImageFix"/>
<feColorMatrix in="SourceAlpha" type="matrix" values="0 0 0 0 0 0 0 0 0 0 0 0 0 0 0 0 0 0 127 0" result="hardAlpha"/>
<feOffset dy="0.703125"/>
<feGaussianBlur stdDeviation="0.703125"/>
<feComposite in2="hardAlpha" operator="out"/>
<feColorMatrix type="matrix" values="0 0 0 0 0 0 0 0 0 0 0 0 0 0 0 0 0 0 0.1 0"/>
<feBlend mode="normal" in2="BackgroundImageFix" result="effect1_dropShadow_396_2270"/>
<feColorMatrix in="SourceAlpha" type="matrix" values="0 0 0 0 0 0 0 0 0 0 0 0 0 0 0 0 0 0 127 0" result="hardAlpha"/>
<feOffset dy="0.46875"/>
<feGaussianBlur stdDeviation="0.351562"/>
<feComposite in2="hardAlpha" operator="out"/>
<feColorMatrix type="matrix" values="0 0 0 0 0 0 0 0 0 0 0 0 0 0 0 0 0 0 0.1 0"/>
<feBlend mode="normal" in2="effect1_dropShadow_396_2270" result="effect2_dropShadow_396_2270"/>
<feColorMatrix in="SourceAlpha" type="matrix" values="0 0 0 0 0 0 0 0 0 0 0 0 0 0 0 0 0 0 127 0" result="hardAlpha"/>
<feOffset dy="0.117188"/>
<feGaussianBlur stdDeviation="0.117188"/>
<feComposite in2="hardAlpha" operator="out"/>
<feColorMatrix type="matrix" values="0 0 0 0 0 0 0 0 0 0 0 0 0 0 0 0 0 0 0.1 0"/>
<feBlend mode="normal" in2="effect2_dropShadow_396_2270" result="effect3_dropShadow_396_2270"/>
<feBlend mode="normal" in="SourceGraphic" in2="effect3_dropShadow_396_2270" result="shape"/>
</filter>
<filter id="filter4_ddd_396_2270" x="267.594" y="168.297" width="54.8125" height="54.8125" filterUnits="userSpaceOnUse" color-interpolation-filters="sRGB">
<feFlood flood-opacity="0" result="BackgroundImageFix"/>
<feColorMatrix in="SourceAlpha" type="matrix" values="0 0 0 0 0 0 0 0 0 0 0 0 0 0 0 0 0 0 127 0" result="hardAlpha"/>
<feOffset dy="0.703125"/>
<feGaussianBlur stdDeviation="0.703125"/>
<feComposite in2="hardAlpha" operator="out"/>
<feColorMatrix type="matrix" values="0 0 0 0 0 0 0 0 0 0 0 0 0 0 0 0 0 0 0.1 0"/>
<feBlend mode="normal" in2="BackgroundImageFix" result="effect1_dropShadow_396_2270"/>
<feColorMatrix in="SourceAlpha" type="matrix" values="0 0 0 0 0 0 0 0 0 0 0 0 0 0 0 0 0 0 127 0" result="hardAlpha"/>
<feOffset dy="0.46875"/>
<feGaussianBlur stdDeviation="0.351562"/>
<feComposite in2="hardAlpha" operator="out"/>
<feColorMatrix type="matrix" values="0 0 0 0 0 0 0 0 0 0 0 0 0 0 0 0 0 0 0.1 0"/>
<feBlend mode="normal" in2="effect1_dropShadow_396_2270" result="effect2_dropShadow_396_2270"/>
<feColorMatrix in="SourceAlpha" type="matrix" values="0 0 0 0 0 0 0 0 0 0 0 0 0 0 0 0 0 0 127 0" result="hardAlpha"/>
<feOffset dy="0.117188"/>
<feGaussianBlur stdDeviation="0.117188"/>
<feComposite in2="hardAlpha" operator="out"/>
<feColorMatrix type="matrix" values="0 0 0 0 0 0 0 0 0 0 0 0 0 0 0 0 0 0 0.1 0"/>
<feBlend mode="normal" in2="effect2_dropShadow_396_2270" result="effect3_dropShadow_396_2270"/>
<feBlend mode="normal" in="SourceGraphic" in2="effect3_dropShadow_396_2270" result="shape"/>
</filter>
<filter id="filter5_ddd_396_2270" x="400.188" y="401.594" width="109.625" height="109.625" filterUnits="userSpaceOnUse" color-interpolation-filters="sRGB">
<feFlood flood-opacity="0" result="BackgroundImageFix"/>
<feColorMatrix in="SourceAlpha" type="matrix" values="0 0 0 0 0 0 0 0 0 0 0 0 0 0 0 0 0 0 127 0" result="hardAlpha"/>
<feOffset dy="1.40625"/>
<feGaussianBlur stdDeviation="1.40625"/>
<feComposite in2="hardAlpha" operator="out"/>
<feColorMatrix type="matrix" values="0 0 0 0 0 0 0 0 0 0 0 0 0 0 0 0 0 0 0.1 0"/>
<feBlend mode="normal" in2="BackgroundImageFix" result="effect1_dropShadow_396_2270"/>
<feColorMatrix in="SourceAlpha" type="matrix" values="0 0 0 0 0 0 0 0 0 0 0 0 0 0 0 0 0 0 127 0" result="hardAlpha"/>
<feOffset dy="0.9375"/>
<feGaussianBlur stdDeviation="0.703125"/>
<feComposite in2="hardAlpha" operator="out"/>
<feColorMatrix type="matrix" values="0 0 0 0 0 0 0 0 0 0 0 0 0 0 0 0 0 0 0.1 0"/>
<feBlend mode="normal" in2="effect1_dropShadow_396_2270" result="effect2_dropShadow_396_2270"/>
<feColorMatrix in="SourceAlpha" type="matrix" values="0 0 0 0 0 0 0 0 0 0 0 0 0 0 0 0 0 0 127 0" result="hardAlpha"/>
<feOffset dy="0.234375"/>
<feGaussianBlur stdDeviation="0.234375"/>
<feComposite in2="hardAlpha" operator="out"/>
<feColorMatrix type="matrix" values="0 0 0 0 0 0 0 0 0 0 0 0 0 0 0 0 0 0 0.1 0"/>
<feBlend mode="normal" in2="effect2_dropShadow_396_2270" result="effect3_dropShadow_396_2270"/>
<feBlend mode="normal" in="SourceGraphic" in2="effect3_dropShadow_396_2270" result="shape"/>
</filter>
<filter id="filter6_bdi_396_2270" x="439" y="40" width="28" height="46.6667" filterUnits="userSpaceOnUse" color-interpolation-filters="sRGB">
<feFlood flood-opacity="0" result="BackgroundImageFix"/>
<feGaussianBlur in="BackgroundImageFix" stdDeviation="4"/>
<feComposite in2="SourceAlpha" operator="in" result="effect1_backgroundBlur_396_2270"/>
<feColorMatrix in="SourceAlpha" type="matrix" values="0 0 0 0 0 0 0 0 0 0 0 0 0 0 0 0 0 0 127 0" result="hardAlpha"/>
<feMorphology radius="10.6667" operator="erode" in="SourceAlpha" result="effect2_dropShadow_396_2270"/>
<feOffset dy="21.3333"/>
<feGaussianBlur stdDeviation="8"/>
<feComposite in2="hardAlpha" operator="out"/>
<feColorMatrix type="matrix" values="0 0 0 0 0 0 0 0 0 0 0 0 0 0 0 0 0 0 0.4 0"/>
<feBlend mode="multiply" in2="effect1_backgroundBlur_396_2270" result="effect2_dropShadow_396_2270"/>
<feBlend mode="normal" in="SourceGraphic" in2="effect2_dropShadow_396_2270" result="shape"/>
<feColorMatrix in="SourceAlpha" type="matrix" values="0 0 0 0 0 0 0 0 0 0 0 0 0 0 0 0 0 0 127 0" result="hardAlpha"/>
<feOffset/>
<feGaussianBlur stdDeviation="2.66667"/>
<feComposite in2="hardAlpha" operator="arithmetic" k2="-1" k3="1"/>
<feColorMatrix type="matrix" values="0 0 0 0 0.972549 0 0 0 0 0.972549 0 0 0 0 0.972549 0 0 0 0.25 0"/>
<feBlend mode="normal" in2="shape" result="effect3_innerShadow_396_2270"/>
</filter>
<filter id="filter7_ddd_396_2270" x="400.188" y="400.594" width="109.625" height="109.625" filterUnits="userSpaceOnUse" color-interpolation-filters="sRGB">
<feFlood flood-opacity="0" result="BackgroundImageFix"/>
<feColorMatrix in="SourceAlpha" type="matrix" values="0 0 0 0 0 0 0 0 0 0 0 0 0 0 0 0 0 0 127 0" result="hardAlpha"/>
<feOffset dy="1.40625"/>
<feGaussianBlur stdDeviation="1.40625"/>
<feComposite in2="hardAlpha" operator="out"/>
<feColorMatrix type="matrix" values="0 0 0 0 0 0 0 0 0 0 0 0 0 0 0 0 0 0 0.1 0"/>
<feBlend mode="normal" in2="BackgroundImageFix" result="effect1_dropShadow_396_2270"/>
<feColorMatrix in="SourceAlpha" type="matrix" values="0 0 0 0 0 0 0 0 0 0 0 0 0 0 0 0 0 0 127 0" result="hardAlpha"/>
<feOffset dy="0.9375"/>
<feGaussianBlur stdDeviation="0.703125"/>
<feComposite in2="hardAlpha" operator="out"/>
<feColorMatrix type="matrix" values="0 0 0 0 0 0 0 0 0 0 0 0 0 0 0 0 0 0 0.1 0"/>
<feBlend mode="normal" in2="effect1_dropShadow_396_2270" result="effect2_dropShadow_396_2270"/>
<feColorMatrix in="SourceAlpha" type="matrix" values="0 0 0 0 0 0 0 0 0 0 0 0 0 0 0 0 0 0 127 0" result="hardAlpha"/>
<feOffset dy="0.234375"/>
<feGaussianBlur stdDeviation="0.234375"/>
<feComposite in2="hardAlpha" operator="out"/>
<feColorMatrix type="matrix" values="0 0 0 0 0 0 0 0 0 0 0 0 0 0 0 0 0 0 0.1 0"/>
<feBlend mode="normal" in2="effect2_dropShadow_396_2270" result="effect3_dropShadow_396_2270"/>
<feBlend mode="normal" in="SourceGraphic" in2="effect3_dropShadow_396_2270" result="shape"/>
</filter>
<radialGradient id="paint0_angular_396_2270" cx="0" cy="0" r="1" gradientUnits="userSpaceOnUse" gradientTransform="translate(454.5 453.5) rotate(90) scale(302.5)">
<stop offset="0.0993526" stop-color="#8B79FD"/>
<stop offset="0.427081" stop-color="#513CD5"/>
<stop offset="0.718753" stop-color="#8B79FD"/>
<stop offset="1" stop-color="#0B46F9"/>
</radialGradient>
<linearGradient id="paint1_linear_396_2270" x1="65.1499" y1="164.5" x2="352.15" y2="164.5" gradientUnits="userSpaceOnUse">
<stop stop-color="#8B79FD" stop-opacity="0"/>
<stop offset="0.505" stop-color="#8B79FD"/>
<stop offset="1" stop-color="#8B79FD" stop-opacity="0"/>
</linearGradient>
<linearGradient id="paint2_linear_396_2270" x1="453" y1="48" x2="458.22" y2="61.1775" gradientUnits="userSpaceOnUse">
<stop stop-color="white" stop-opacity="0.4"/>
<stop offset="0.4" stop-color="white" stop-opacity="0.01"/>
<stop offset="0.6" stop-color="white" stop-opacity="0.01"/>
<stop offset="1" stop-color="white" stop-opacity="0.1"/>
</linearGradient>
<radialGradient id="paint3_radial_396_2270" cx="0" cy="0" r="1" gradientUnits="userSpaceOnUse" gradientTransform="translate(452.678 82) rotate(91.3336) scale(19.5053 30.5914)">
<stop offset="0.505" stop-color="#010101"/>
<stop offset="1" stop-color="#010101" stop-opacity="0"/>
</radialGradient>
<radialGradient id="paint4_radial_396_2270" cx="0" cy="0" r="1" gradientUnits="userSpaceOnUse" gradientTransform="translate(759.051 497) rotate(91.2176) scale(19.5044 27.9325)">
<stop offset="0.505" stop-color="#010101"/>
<stop offset="1" stop-color="#010101" stop-opacity="0"/>
</radialGradient>
<clipPath id="clip0_396_2270">
<rect width="909" height="907" fill="white"/>
</clipPath>
<clipPath id="clip1_396_2270">
<rect width="16" height="16" fill="white" transform="translate(183.83 593.049)"/>
</clipPath>
<clipPath id="clip2_396_2270">
<rect width="16" height="16" fill="white" transform="translate(173.252 567.987)"/>
</clipPath>
<clipPath id="clip3_396_2270">
<rect width="16" height="16" fill="white" transform="translate(163.266 538.845)"/>
</clipPath>
</defs>
</svg>
