<?xml version="1.0" encoding="iso-8859-1"?>
<!-- Uploaded to: SVG Repo, www.svgrepo.com, Generator: SVG Repo Mixer Tools -->
<svg height="800px" width="800px" version="1.1" id="Layer_1" xmlns="http://www.w3.org/2000/svg" xmlns:xlink="http://www.w3.org/1999/xlink" 
	 viewBox="0 0 503.607 503.607" xml:space="preserve">
<g transform="translate(1 1)">
	<g>
		<path style="fill:#FFE100;" d="M192.049,99.721c-5.036,0-8.393-3.357-8.393-8.393c0-5.036,3.357-8.393,8.393-8.393
			c41.967,0,75.541-33.574,75.541-75.541c0-5.036,3.357-8.393,8.393-8.393s8.393,3.357,8.393,8.393
			C284.377,58.593,243.249,99.721,192.049,99.721z"/>
		<path style="fill:#FFE100;" d="M326.344,99.721c-50.361,0-92.328-41.128-92.328-92.328c0-5.036,3.357-8.393,8.393-8.393
			s8.393,3.357,8.393,8.393c0,41.967,33.574,75.541,75.541,75.541c5.036,0,8.393,3.357,8.393,8.393
			C334.738,96.364,331.38,99.721,326.344,99.721z"/>
		<path style="fill:#FFE100;" d="M418.672,132.456v-7.554H82.934v7.554c0,53.718-19.305,105.757-50.361,149.403
			c-15.948,21.823-25.18,49.521-25.18,78.898c0.839,74.702,63.79,133.456,138.492,133.456h210.675
			c74.702,0,137.652-58.754,137.652-133.456c0-29.377-9.233-57.075-25.18-78.898C437.977,238.213,418.672,187.013,418.672,132.456"
			/>
	</g>
	<path style="fill:#FDCC00;" d="M82.934,132.456v-7.554h335.738v7.554c0,48.682,15.948,95.685,41.967,136.813V91.328H40.967v177.941
		C67.826,228.141,82.934,181.138,82.934,132.456"/>
	<g>
		<path style="fill:#FFA800;" d="M444.692,270.948c0,6.715,1.679,12.59,5.036,18.466c12.59,20.984,20.144,45.325,20.144,71.344
			c-0.839,74.702-63.79,133.456-138.492,133.456h24.341c73.862,0,136.813-57.915,138.492-131.777
			c0.839-30.216-8.393-57.915-25.18-80.577c-9.233-13.43-17.626-26.859-24.341-41.128h-0.839L444.692,270.948z"/>
		<path style="fill:#FFA800;" d="M443.852,91.328v147.725c5.036,10.072,10.911,20.144,16.787,30.216V91.328H443.852z"/>
	</g>
	<g>
		<path style="fill:#FFFFFF;" d="M57.754,270.948c0,6.715-1.679,12.59-5.036,18.466c-12.59,20.984-20.144,45.325-20.144,71.344
			c0.839,74.702,63.79,133.456,138.492,133.456h-24.341c-73.862,0-137.652-57.915-139.331-131.777
			c-0.839-30.216,8.393-57.915,25.18-80.577C41.807,268.429,50.2,255,56.915,240.731h0.839V270.948z"/>
		<path style="fill:#FFFFFF;" d="M57.754,91.328v147.725c-5.036,10.072-10.911,20.144-16.787,30.216V91.328H57.754z"/>
	</g>
	<path d="M356.561,502.607H145.885C65.308,502.607-0.161,438.816-1,360.757c0-30.216,9.233-59.593,26.859-83.934
		c31.895-44.485,48.682-94.007,48.682-144.367v-7.554c0-5.036,3.357-8.393,8.393-8.393h335.738c5.036,0,8.393,3.357,8.393,8.393
		v7.554c0,49.521,16.787,99.882,48.682,144.367c17.626,24.341,26.859,53.718,26.859,83.934
		C502.607,438.816,436.298,502.607,356.561,502.607z M91.328,133.295c0,52.879-18.466,106.597-52.039,153.6
		c-15.108,21.823-23.502,47.003-23.502,73.862c0.839,68.826,58.754,125.062,130.098,125.062h210.675
		c70.505,0,129.259-56.236,129.259-125.062c0-26.859-7.554-52.039-23.502-73.862c-33.574-47.003-52.039-100.721-52.039-153.6H91.328
		z"/>
	<path d="M460.639,277.662c-2.518,0-5.875-1.679-6.715-4.197c-28.538-43.646-42.807-92.328-43.646-140.171H91.328
		c0,47.843-15.108,96.525-43.646,140.171c-1.679,3.357-5.875,4.197-9.233,3.357c-3.357-0.839-5.875-4.197-5.875-7.554V91.328
		c0-5.036,3.357-8.393,8.393-8.393h419.672c5.036,0,8.393,3.357,8.393,8.393v177.941c0,3.357-2.518,6.715-5.875,8.393
		C462.318,277.662,461.479,277.662,460.639,277.662z M82.934,116.508h335.738c5.036,0,8.393,3.357,8.393,8.393v7.554
		c0,35.252,8.393,70.505,25.18,104.918V99.721H49.361v137.652c16.787-33.574,25.18-69.666,25.18-104.918v-7.554
		C74.541,119.866,78.738,116.508,82.934,116.508z"/>
	<path d="M183.656,99.721c-5.036,0-8.393-3.357-8.393-8.393c0-5.036,3.357-8.393,8.393-8.393c41.967,0,75.541-33.574,75.541-75.541
		c0-5.036,3.357-8.393,8.393-8.393s8.393,3.357,8.393,8.393C275.984,58.593,234.856,99.721,183.656,99.721z"/>
	<path d="M317.951,99.721c-50.361,0-92.328-41.128-92.328-92.328c0-5.036,3.357-8.393,8.393-8.393c5.036,0,8.393,3.357,8.393,8.393
		c0,41.967,33.574,75.541,75.541,75.541c5.036,0,8.393,3.357,8.393,8.393C326.344,96.364,322.987,99.721,317.951,99.721z"/>
	<path d="M250.803,418.672c-32.734,0-58.754-26.02-58.754-58.754c0-5.036,3.357-8.393,8.393-8.393s8.393,3.357,8.393,8.393
		c0,23.502,18.466,41.967,41.967,41.967s41.967-18.466,41.967-41.967c0-23.502-18.466-41.967-41.967-41.967
		c-32.734,0-58.754-26.02-58.754-58.754s26.02-58.754,58.754-58.754s58.754,26.02,58.754,58.754c0,5.036-3.357,8.393-8.393,8.393
		c-5.036,0-8.393-3.357-8.393-8.393c0-23.502-18.466-41.967-41.967-41.967s-41.967,18.466-41.967,41.967
		c0,23.502,18.466,41.967,41.967,41.967c32.734,0,58.754,26.02,58.754,58.754S283.538,418.672,250.803,418.672z"/>
	<path d="M250.803,217.229c-5.036,0-8.393-3.357-8.393-8.393v-25.18c0-5.036,3.357-8.393,8.393-8.393s8.393,3.357,8.393,8.393v25.18
		C259.197,213.872,255.839,217.229,250.803,217.229z"/>
	<path d="M250.803,443.852c-5.036,0-8.393-3.357-8.393-8.393v-25.18c0-5.036,3.357-8.393,8.393-8.393s8.393,3.357,8.393,8.393v25.18
		C259.197,440.495,255.839,443.852,250.803,443.852z"/>
</g>
</svg>